<?xml version="1.0" encoding="utf-8"?>
<!-- Generator: Adobe Illustrator 16.0.0, SVG Export Plug-In . SVG Version: 6.00 Build 0)  -->
<!DOCTYPE svg PUBLIC "-//W3C//DTD SVG 1.1//EN" "http://www.w3.org/Graphics/SVG/1.1/DTD/svg11.dtd">
<svg version="1.1" id="Layer_1" xmlns="http://www.w3.org/2000/svg" xmlns:xlink="http://www.w3.org/1999/xlink" x="0px" y="0px"
	 width="751px" height="178px" viewBox="0 0 751 178" enable-background="new 0 0 751 178" xml:space="preserve">
<path fill-rule="evenodd" clip-rule="evenodd" fill="#FFFFFF" d="M513.508,115.96h-5.604h-4.948h-4.326h-3.755h-3.211h-2.727h-2.272
	h-1.856h-1.488h-1.163h-0.871h-0.623h-0.416h-0.256h-0.134h-0.043h-0.008v-5.632v-4.385v-3.294v-2.362v-1.581v-0.961v-0.494v-0.18
	v-0.028h5.604h4.951h4.328h3.753h3.219h2.728h2.271h1.856h1.488h1.163h0.868h0.626h0.419h0.253h0.13h0.047h0.007l2.303,0.278
	l2.109,0.716l1.856,1.115l1.553,1.45l1.185,1.732l0.754,1.969l0.264,2.144l-0.264,2.157l-0.757,1.996l-1.188,1.767l-1.553,1.48
	l-1.862,1.133l-2.109,0.727L513.508,115.96z M479.807,60.497h5.83h5.102h4.42h3.792h3.208h2.674h2.188h1.758h1.362h1.027h0.733
	h0.498h0.294h0.156h0.057h0.01l2.613,0.424l2.293,1.137l1.825,1.739l1.21,2.224l0.434,2.595l-0.32,2.194l-0.893,1.965l-1.368,1.657
	l-1.742,1.267l-2.027,0.81l-2.211,0.272h-5.797h-5.072h-4.394h-3.769h-3.193h-2.657h-2.18h-1.742h-1.359h-1.02h-0.735h-0.494h-0.292
	h-0.151h-0.057h-0.011V71.41v-4.042v-2.896v-1.938v-1.179v-0.604v-0.222V60.497z M532.549,86.951l1.755-1.401l1.53-1.564
	l1.314-1.708l1.109-1.84l0.919-1.964l0.725-2.072l0.551-2.166l0.38-2.247l0.227-2.319l0.071-2.372l-0.099-2.233l-0.271-2.183
	l-0.454-2.123l-0.618-2.053l-0.781-1.986l-0.929-1.907l-1.08-1.82l-1.221-1.727l-1.346-1.632l-1.469-1.52l-1.591-1.413l-1.701-1.289
	l-1.795-1.163l-1.896-1.03l-1.983-0.897l-2.062-0.741l-2.132-0.592l-2.202-0.428l-2.258-0.266l-2.31-0.088h-5.809h-5.401h-4.996
	h-4.611h-4.248h-3.887h-3.551H477.2h-2.927h-2.632h-2.354h-2.09h-1.851h-1.612h-1.403h-1.203h-1.014h-0.849h-0.693h-0.562h-0.428
	h-0.326h-0.234h-0.152h-0.099h-0.047h-0.02h-0.003v8.724v8.179v7.646v7.14v6.653v6.17v5.717v5.277v4.856v4.448v4.067v3.693v3.345
	v3.009v2.693v2.394v2.109v1.851v1.604v1.374v1.159v0.97v0.798v0.631v0.497v0.374v0.267v0.177v0.107v0.057v0.022v0.003h5.842h5.438
	h5.052h4.677h4.314H486h3.637h3.326h3.021h2.738h2.461h2.201h1.958h1.729h1.514h1.312h1.122h0.953h0.789h0.652h0.52h0.406h0.304
	h0.219h0.142h0.092h0.048h0.017v0.025v0.014v0.003v0.003l2.321-0.088l2.28-0.252l2.228-0.411l2.167-0.561l2.106-0.713l2.026-0.852
	l1.958-0.986l1.862-1.115l1.769-1.233l1.672-1.351l1.562-1.46l1.448-1.559l1.323-1.657l1.197-1.742l1.059-1.834l0.915-1.907
	l0.764-1.976l0.607-2.041l0.441-2.096l0.271-2.148l0.093-2.188l-0.124-2.477l-0.358-2.361l-0.573-2.236l-0.77-2.118l-0.938-1.986
	l-1.102-1.856l-1.239-1.718l-1.356-1.576l-1.452-1.436l-1.534-1.283l-1.597-1.127L532.549,86.951z M619.279,39.993v5.778v5.353
	v4.932v4.55l0.003,4.165v3.804v3.463l0.005,3.126v2.817V80.5v2.24v1.98v1.729v1.505v1.283v1.087v0.908v0.741v0.596v0.463v0.349v0.25
	v0.168v0.104v0.051v0.019v0.004l-0.115,2.979l-0.326,2.758l-0.532,2.549l-0.723,2.331l-0.905,2.126l-1.077,1.92l-1.235,1.717
	l-1.388,1.52l-1.529,1.328l-1.657,1.141l-1.767,0.95l-1.89,0.77l-1.966,0.592l-2.06,0.419l-2.132,0.247l-2.198,0.082l-2.191-0.082
	l-2.135-0.247l-2.053-0.419l-1.972-0.592l-1.877-0.764l-1.769-0.95l-1.646-1.135l-1.524-1.323l-1.377-1.52l-1.233-1.719
	l-1.066-1.915l-0.902-2.12l-0.72-2.332l-0.523-2.545l-0.326-2.764l-0.11-2.983v-5.78v-5.351v-4.942v-4.548v-4.168V65.4l-0.003-3.458
	v-3.133v-2.815v-2.519v-2.242l-0.003-1.98V47.52v-1.499v-1.289v-1.09v-0.906v-0.745v-0.592v-0.469v-0.346v-0.25v-0.168v-0.102
	v-0.054v-0.019h-5.493h-4.587h-3.75h-3.01h-2.335h-1.758h-1.261h-0.846h-0.514h-0.262h-0.096h-0.014v5.794v5.368v4.955v4.559v4.176
	v3.817v3.472v3.138v2.823v2.528v2.249v1.983v1.736v1.508v1.287v1.096v0.909v0.744v0.599v0.466v0.349v0.25v0.168v0.102v0.051v0.018
	v0.008l0.059,3.16l0.174,3.028l0.287,2.884l0.396,2.752l0.511,2.619l0.607,2.49l0.716,2.356l0.812,2.236l0.909,2.117l0.998,1.992
	l1.092,1.878l1.183,1.762l1.261,1.652l1.346,1.536l1.425,1.442l1.502,1.33l1.578,1.229l1.641,1.137l1.717,1.029l1.777,0.943
	l1.837,0.856l1.904,0.764l1.957,0.681l2.006,0.592l2.064,0.517l2.106,0.441l2.151,0.363l2.197,0.291l2.238,0.226l2.272,0.154
	l2.307,0.09l2.331,0.031l2.339-0.031l2.309-0.09l2.274-0.154l2.233-0.226l2.199-0.291l2.157-0.363l2.109-0.441l2.062-0.517
	l2.015-0.592l1.954-0.681l1.904-0.764l1.843-0.856l1.777-0.943l1.714-1.029l1.651-1.137l1.579-1.229l1.502-1.33l1.43-1.442
	l1.346-1.536l1.267-1.652l1.18-1.762l1.096-1.878l1-1.992l0.912-2.117l0.812-2.236l0.712-2.356l0.611-2.49l0.508-2.619l0.402-2.752
	l0.287-2.884l0.174-3.028l0.059-3.16v-5.797v-5.37l-0.003-4.952v-4.561v-4.178v-3.817v-3.463v-3.146v-2.826l-0.005-2.528v-2.245
	v-1.986l-0.003-1.732v-1.505v-1.292v-1.09v-0.913v-0.744v-0.599v-0.463v-0.349v-0.253V40.17v-0.104v-0.054v-0.019h-5.495h-4.58
	h-3.747h-3.011h-2.337h-1.758h-1.265h-0.839h-0.51h-0.267h-0.098H619.279z M703.261,77.413l-3.956-0.871l-3.572-0.809l-3.219-0.77
	l-2.857-0.738l-2.524-0.725l-2.196-0.728l-1.894-0.741l-1.59-0.77l-1.312-0.814l-1.042-0.871l-0.783-0.951l-0.545-1.035
	l-0.317-1.141l-0.101-1.255l0.207-1.542l0.61-1.385l0.994-1.224l1.362-1.057l1.718-0.896l2.046-0.735l2.362-0.57l2.656-0.41
	l2.933-0.242l3.202-0.081l1.986,0.047l2.024,0.149l2.053,0.241l2.067,0.326l2.078,0.406l2.078,0.472l2.06,0.537l2.039,0.603l2,0.649
	l1.957,0.693l1.896,0.734l1.828,0.774l1.753,0.792l1.659,0.81l1.565,0.828l1.449,0.832l2.047-5.292l1.641-4.246l1.274-3.304
	l0.962-2.483l0.685-1.778l0.464-1.194l0.278-0.722l0.143-0.371l0.054-0.136l0.009-0.019l-1.548-0.634l-1.578-0.634l-1.606-0.621
	l-1.638-0.611l-1.669-0.602l-1.708-0.586l-1.738-0.57l-1.777-0.548l-1.815-0.529l-1.853-0.507l-1.895-0.475l-1.929-0.45l-1.98-0.418
	l-2.017-0.386l-2.063-0.345l-2.112-0.311l-2.157-0.27l-2.205-0.225l-2.259-0.181l-2.303-0.13l-2.356-0.08l-2.407-0.028l-2.887,0.073
	l-2.784,0.206l-2.691,0.342l-2.592,0.472l-2.489,0.596l-2.383,0.713l-2.281,0.83l-2.172,0.941l-2.056,1.045l-1.946,1.147
	l-1.831,1.242l-1.703,1.337l-1.584,1.418l-1.463,1.505l-1.331,1.584l-1.207,1.657l-1.07,1.723l-0.938,1.786l-0.804,1.851l-0.656,1.9
	l-0.519,1.955l-0.375,1.999l-0.225,2.04l-0.076,2.075l0.07,2.132l0.202,2.034l0.343,1.93l0.475,1.834l0.621,1.742l0.744,1.654
	l0.884,1.568l1.026,1.485l1.159,1.407l1.293,1.333l1.429,1.257l1.567,1.195l1.702,1.127l1.834,1.067l1.966,1.009l2.11,0.955
	l2.246,0.904l2.365,0.857l2.514,0.811l2.644,0.773l2.782,0.735l2.913,0.702l3.045,0.672l4.042,0.881l3.583,0.837l3.151,0.81
	l2.736,0.792l2.354,0.792l1.994,0.806l1.646,0.826l1.334,0.868l1.036,0.925l0.767,0.985l0.518,1.07l0.292,1.165l0.096,1.274
	l-0.27,1.787l-0.779,1.533l-1.252,1.281l-1.685,1.056l-2.071,0.837l-2.427,0.627l-2.737,0.435l-3.012,0.25l-3.244,0.082l-2.05-0.039
	l-2.033-0.102l-2.026-0.171l-2.027-0.233l-2.016-0.292l-1.998-0.346l-1.997-0.401l-1.982-0.45l-1.973-0.497l-1.968-0.542
	l-1.955-0.583l-1.944-0.621l-1.933-0.649l-1.923-0.688l-1.916-0.715l-1.901-0.735l-1.888-0.761l-1.877-0.778l-1.867-0.792
	l-1.933,5.163l-1.545,4.134l-1.201,3.222l-0.908,2.421l-0.643,1.731l-0.441,1.162l-0.259,0.704l-0.14,0.363l-0.045,0.134
	l-0.009,0.016l1.764,0.812l1.768,0.795l1.78,0.776l1.783,0.76l1.797,0.738l1.809,0.716l1.818,0.69l1.831,0.669l1.843,0.64
	l1.859,0.611l1.87,0.58l1.894,0.548l1.907,0.517l1.929,0.475l1.941,0.444l1.967,0.398l1.987,0.36l2.015,0.32l2.027,0.272
	l2.059,0.228l2.082,0.182l2.109,0.133l2.132,0.075l2.166,0.028l3.274-0.06l3.124-0.18l2.978-0.292l2.833-0.412l2.68-0.517
	l2.539-0.613l2.398-0.721l2.256-0.813l2.12-0.904l1.985-0.991l1.849-1.076l1.719-1.154l1.587-1.235l1.456-1.301l1.327-1.368
	l1.208-1.436l1.079-1.494l0.96-1.553l0.843-1.604l0.716-1.646l0.607-1.698l0.494-1.733l0.374-1.77l0.272-1.807l0.159-1.828
	l0.057-1.856l-0.057-1.859l-0.171-1.817l-0.292-1.777l-0.412-1.739l-0.528-1.693l-0.649-1.654l-0.783-1.606l-0.905-1.564
	l-1.039-1.514l-1.172-1.464l-1.303-1.416l-1.44-1.365l-1.578-1.312l-1.72-1.261l-1.862-1.204l-2.005-1.146l-2.151-1.087
	l-2.306-1.035l-2.452-0.974l-2.606-0.908l-2.759-0.85l-2.924-0.785L703.261,77.413z M252.948,40.217l-48.509,95.997l28.806,0.006
	l7.249-15.435h33.085L263.301,99.76H250.23l12.291-26.256l30.999,62.724h28.876l-50.391-96.013L252.948,40.217z M447.829,72.141
	l-0.063-2.169l-0.19-2.129l-0.31-2.084l-0.438-2.041l-0.564-1.986l-0.69-1.922l-0.817-1.859l-0.944-1.8l-1.076-1.724l-1.204-1.646
	l-1.323-1.565l-1.455-1.479l-1.584-1.388l-1.71-1.289l-1.844-1.191l-1.974-1.086l-2.096-0.976l-2.23-0.858l-2.364-0.744
	l-2.489-0.615l-2.623-0.488l-2.752-0.355l-2.886-0.215l-3.016-0.076h-5.747h-5.277h-4.846h-4.423h-4.02h-3.64h-3.275h-2.93h-2.601
	h-2.303h-2.011h-1.742h-1.496h-1.267h-1.057h-0.862H363h-0.544h-0.399h-0.292h-0.197h-0.121h-0.056h-0.02h-0.006v8.724v8.179v7.649
	v7.145v6.646v6.177v5.713v5.277v4.856v4.451v4.067v3.693v3.342v3.012v2.693v2.391v2.114v1.849v1.604v1.374v1.163v0.969v0.795v0.635
	v0.494v0.373v0.267v0.181v0.106v0.059v0.018v0.008h5.743l4.7-0.008h3.766l2.934-0.003h2.205h1.576h1.059h0.646h0.326h0.123h0.017
	v-6.879l-0.003-6.451v-6.033v-5.632v-5.243v-4.871V96.85v-4.163v-3.829v-3.51l-0.003-3.202v-2.918v-2.635v-2.376l-0.005-2.123
	v-1.888V68.54v-1.46v-1.264v-1.084v-0.918v-0.767v-0.624V61.92v-0.39v-0.295v-0.208v-0.14v-0.085v-0.045v-0.016v-0.003h5.646h4.84
	h4.1h3.415h2.793h2.243h1.742h1.314h0.941h0.626h0.382h0.196h0.073h0.009l2.913,0.238l2.472,0.671l2.053,1.057l1.635,1.395
	l1.244,1.686l0.871,1.925l0.508,2.117l0.163,2.258l-0.171,2.252l-0.528,2.09l-0.896,1.894l-1.277,1.642l-1.669,1.354l-2.078,1.024
	l-2.489,0.646l-2.921,0.225h-5.369h-4.298h-3.349h-2.519h-1.802h-1.21h-0.729h-0.377h-0.14h-0.021l2.809,4.988l2.626,4.666
	l2.452,4.358l2.284,4.056l2.115,3.77l1.971,3.483l1.806,3.222l1.669,2.959l1.53,2.721l1.394,2.477l1.268,2.256l1.146,2.041
	l1.039,1.837l0.922,1.644l0.825,1.457l0.719,1.29l0.64,1.127l0.551,0.977l0.473,0.839l0.398,0.709l0.329,0.593l0.275,0.485
	l0.216,0.39l0.171,0.298l0.13,0.228l0.093,0.164l0.057,0.108l0.044,0.068l0.012,0.033l0.011,0.012h0.003h5.438h4.541h3.719h2.974
	h2.315h1.744h1.246h0.836h0.508h0.262h0.095h0.014l-0.148-0.253l-0.425-0.719l-0.668-1.141l-0.891-1.505l-1.075-1.818l-1.219-2.081
	l-1.349-2.289l-1.438-2.446l-1.502-2.547l-1.526-2.604l-1.527-2.604l-1.497-2.55l-1.433-2.447l-1.34-2.291l-1.221-2.079l-1.06-1.82
	l-0.876-1.505l-0.66-1.144l-0.41-0.725l-0.132-0.258l2.394-0.826l2.256-0.947l2.106-1.059l1.962-1.171l1.826-1.274l1.683-1.383
	l1.542-1.469l1.404-1.564l1.267-1.656l1.129-1.739l0.994-1.815l0.857-1.898l0.722-1.963l0.593-2.031l0.454-2.093l0.326-2.151
	l0.193-2.208L447.829,72.141z M327.341,136.265h23.882V40.262h-23.882V136.265z"/>
<g>
	<polygon fill-rule="evenodd" clip-rule="evenodd" fill="#FFFFFF" points="163.544,83.581 163.183,81.325 162.701,79.12 
		162.086,76.963 161.339,74.863 160.478,72.823 159.496,70.846 158.406,68.939 157.206,67.108 155.904,65.353 154.504,63.681 
		153.002,62.091 151.418,60.595 149.739,59.192 147.985,57.89 146.154,56.69 144.247,55.6 142.271,54.621 140.23,53.756 
		138.133,53.016 135.979,52.398 133.765,51.91 131.513,51.562 129.213,51.342 126.875,51.27 124.538,51.342 122.237,51.562 
		119.982,51.91 117.777,52.398 115.624,53.016 113.523,53.756 111.48,54.621 109.504,55.6 107.6,56.69 105.763,57.89 
		104.011,59.192 102.339,60.595 100.748,62.091 99.253,63.681 97.85,65.353 96.548,67.108 95.344,68.942 94.254,70.849 
		93.275,72.823 92.417,74.866 91.676,76.969 91.058,79.12 90.567,81.331 90.212,83.589 90.003,85.89 89.924,88.224 89.871,88.224 
		89.468,88.224 88.363,88.224 86.218,88.224 82.684,88.224 77.403,88.224 77.466,85.893 77.649,83.595 77.944,81.334 78.353,79.11 
		78.872,76.927 79.5,74.787 80.231,72.696 81.071,70.649 81.999,68.661 83.025,66.729 84.15,64.853 85.347,63.038 86.652,61.289 
		88.027,59.606 89.484,57.997 91.017,56.465 92.626,55.005 94.309,53.626 96.06,52.331 97.872,51.124 99.747,50.002 101.679,48.973 
		103.669,48.045 105.712,47.208 107.806,46.474 109.947,45.847 112.133,45.327 114.356,44.915 116.618,44.617 118.918,44.44 
		121.243,44.377 123.473,44.434 125.668,44.599 127.835,44.871 129.967,45.248 132.064,45.727 134.117,46.302 136.138,46.975 
		138.105,47.741 140.028,48.596 141.903,49.54 143.721,50.573 145.482,51.691 147.193,52.882 148.84,54.152 150.42,55.502 
		151.938,56.921 153.385,58.409 154.764,59.962 156.068,61.583 154.934,59.892 153.73,58.251 152.467,56.657 151.139,55.121 
		149.752,53.643 148.304,52.219 146.8,50.857 145.235,49.556 143.623,48.32 141.959,47.149 140.249,46.046 138.487,45.01 
		136.679,44.047 134.826,43.161 132.938,42.346 131.006,41.611 129.032,40.956 127.03,40.379 124.99,39.885 122.922,39.479 
		120.822,39.16 118.69,38.928 116.539,38.789 114.356,38.741 111.813,38.808 109.298,38.998 106.824,39.309 104.391,39.746 
		101.996,40.297 99.652,40.965 97.346,41.745 95.101,42.628 92.912,43.62 90.78,44.712 88.708,45.903 86.703,47.189 84.765,48.57 
		82.896,50.042 81.096,51.593 79.379,53.233 77.739,54.951 76.186,56.747 74.716,58.619 73.335,60.558 72.049,62.566 70.858,64.637 
		69.769,66.769 68.773,68.961 67.893,71.207 67.111,73.506 66.442,75.857 65.892,78.252 65.458,80.685 65.144,83.162 64.951,85.677 
		64.887,88.224 64.83,88.224 64.424,88.224 63.319,88.224 61.174,88.224 57.637,88.224 52.359,88.224 52.435,85.322 52.65,82.458 
		53.011,79.637 53.505,76.862 54.133,74.135 54.899,71.461 55.78,68.841 56.79,66.279 57.922,63.782 59.163,61.355 60.525,58.996 
		61.989,56.705 63.56,54.494 65.236,52.368 67.006,50.32 68.872,48.362 70.827,46.499 72.876,44.725 75.008,43.053 77.212,41.481 
		79.5,40.015 81.862,38.656 84.295,37.411 86.792,36.29 89.354,35.272 91.968,34.389 94.645,33.629 97.372,32.999 100.146,32.507 
		102.968,32.144 105.833,31.928 108.734,31.852 110.929,31.896 113.108,32.023 115.262,32.232 117.394,32.517 119.5,32.881 
		121.573,33.322 123.622,33.841 125.64,34.437 127.623,35.102 129.574,35.837 131.494,36.642 133.373,37.512 135.212,38.453 
		137.015,39.455 138.776,40.522 140.49,41.652 142.168,42.84 143.793,44.085 145.375,45.391 146.908,46.753 148.384,48.166 
		149.815,49.632 151.19,51.152 152.508,52.713 153.772,54.329 152.641,52.657 151.45,51.022 150.215,49.43 148.925,47.88 
		147.592,46.373 146.204,44.909 144.776,43.49 143.296,42.115 141.782,40.794 140.217,39.521 138.611,38.295 136.968,37.123 
		135.288,36.001 133.565,34.94 131.811,33.93 130.011,32.973 128.187,32.077 126.324,31.237 124.43,30.461 122.51,29.745 
		120.552,29.089 118.576,28.5 116.561,27.974 114.534,27.519 112.475,27.125 110.388,26.803 108.284,26.553 106.159,26.366 
		104.011,26.258 101.845,26.22 98.657,26.299 95.505,26.536 92.405,26.936 89.354,27.477 86.354,28.174 83.408,29.007 
		80.526,29.982 77.709,31.092 74.97,32.333 72.293,33.702 69.692,35.194 67.177,36.806 64.751,38.536 62.407,40.376 60.155,42.324 
		58.003,44.377 55.951,46.531 54.002,48.78 52.163,51.124 50.433,53.553 48.817,56.072 47.326,58.663 45.957,61.339 44.712,64.086 
		43.61,66.902 42.634,69.782 41.794,72.725 41.104,75.725 40.556,78.778 40.164,81.882 39.922,85.03 39.847,88.224 39.752,88.224 
		39.125,88.224 37.414,88.224 34.091,88.224 28.607,88.224 28.681,90.558 28.893,92.855 29.242,95.11 29.735,97.318 30.35,99.476 
		31.091,101.571 31.959,103.612 32.935,105.59 34.031,107.495 35.228,109.326 36.533,111.084 37.934,112.761 39.429,114.345 
		41.019,115.842 42.691,117.249 44.446,118.547 46.283,119.749 48.187,120.838 50.167,121.819 52.207,122.682 54.304,123.423 
		56.458,124.041 58.666,124.529 60.924,124.88 63.225,125.096 65.562,125.168 67.893,125.096 70.19,124.88 72.448,124.529 
		74.653,124.041 76.811,123.423 78.913,122.682 80.957,121.819 82.927,120.838 84.834,119.749 86.668,118.547 88.426,117.249 
		90.096,115.842 91.683,114.345 93.177,112.761 94.584,111.081 95.889,109.326 97.086,107.495 98.176,105.59 99.161,103.612 
		100.02,101.571 100.761,99.47 101.378,97.315 101.87,95.104 102.224,92.85 102.433,90.552 102.509,88.215 102.566,88.215 
		102.968,88.215 104.075,88.215 106.219,88.215 109.754,88.215 115.028,88.215 114.971,90.543 114.787,92.839 114.493,95.1 
		114.084,97.327 113.564,99.51 112.931,101.652 112.203,103.745 111.366,105.784 110.435,107.778 109.409,109.713 108.288,111.589 
		107.08,113.4 105.785,115.148 104.403,116.831 102.947,118.44 101.414,119.977 99.804,121.437 98.122,122.815 96.371,124.107 
		94.559,125.316 92.683,126.438 90.751,127.465 88.762,128.396 86.718,129.231 84.625,129.964 82.49,130.591 80.304,131.113 
		78.08,131.52 75.819,131.817 73.519,132.001 71.193,132.062 68.964,132.004 66.762,131.843 64.596,131.57 62.464,131.189 
		60.367,130.715 58.308,130.139 56.293,129.467 54.33,128.697 52.4,127.841 50.528,126.895 48.709,125.865 46.945,124.754 
		45.238,123.556 43.597,122.285 42.013,120.939 40.493,119.521 39.048,118.035 37.674,116.479 36.368,114.856 37.502,116.553 
		38.706,118.193 39.964,119.783 41.291,121.319 42.685,122.799 44.132,124.221 45.637,125.583 47.195,126.886 48.808,128.121 
		50.471,129.29 52.188,130.392 53.949,131.434 55.755,132.388 57.604,133.281 59.499,134.091 61.425,134.826 63.398,135.488 
		65.4,136.059 67.443,136.55 69.512,136.958 71.609,137.278 73.735,137.509 75.892,137.652 78.067,137.696 80.615,137.633 
		83.126,137.443 85.607,137.126 88.04,136.691 90.438,136.138 92.785,135.473 95.084,134.693 97.331,133.807 99.519,132.818 
		101.658,131.723 103.726,130.531 105.734,129.245 107.673,127.863 109.542,126.397 111.341,124.842 113.058,123.201 
		114.699,121.484 116.251,119.688 117.721,117.822 119.102,115.881 120.388,113.873 121.573,111.801 122.668,109.672 
		123.663,107.475 124.543,105.228 125.326,102.928 125.994,100.58 126.546,98.189 126.98,95.754 127.293,93.273 127.487,90.761 
		127.55,88.215 127.606,88.215 128.012,88.215 129.112,88.215 131.256,88.215 134.801,88.215 140.071,88.215 139.996,91.112 
		139.78,93.977 139.419,96.796 138.925,99.573 138.298,102.301 137.534,104.975 136.65,107.594 135.641,110.154 134.513,112.653 
		133.268,115.086 131.912,117.442 130.442,119.729 128.871,121.94 127.198,124.068 125.431,126.116 123.559,128.073 
		121.604,129.938 119.558,131.709 117.429,133.385 115.218,134.956 112.931,136.422 110.568,137.778 108.142,139.027 
		105.645,140.154 103.083,141.165 100.466,142.05 97.793,142.809 95.065,143.439 92.291,143.938 89.468,144.291 86.604,144.514 
		83.703,144.583 81.508,144.548 79.329,144.418 77.174,144.21 75.042,143.924 72.936,143.556 70.864,143.112 68.812,142.598 
		66.797,142.005 64.808,141.34 62.856,140.604 60.943,139.8 59.062,138.925 57.224,137.988 55.422,136.983 53.661,135.916 
		51.944,134.789 50.268,133.602 48.643,132.352 47.063,131.051 45.53,129.688 44.047,128.276 42.622,126.81 41.247,125.291 
		39.922,123.724 38.665,122.114 39.79,123.784 40.981,125.419 42.216,127.009 43.505,128.561 44.839,130.068 46.227,131.532 
		47.659,132.95 49.135,134.323 50.648,135.644 52.213,136.921 53.819,138.146 55.46,139.317 57.142,140.433 58.865,141.5 
		60.62,142.514 62.419,143.469 64.25,144.361 66.106,145.196 68.001,145.977 69.921,146.692 71.878,147.345 73.854,147.935 
		75.87,148.463 77.903,148.923 79.962,149.309 82.043,149.636 84.15,149.889 86.275,150.069 88.419,150.181 90.586,150.221 
		93.779,150.139 96.925,149.898 100.026,149.505 103.083,148.96 106.083,148.267 109.025,147.432 111.904,146.458 114.721,145.346 
		117.467,144.104 120.144,142.735 122.738,141.241 125.26,139.629 127.686,137.899 130.03,136.062 132.276,134.11 134.433,132.058 
		136.486,129.904 138.434,127.655 140.274,125.311 142.004,122.881 143.619,120.366 145.105,117.771 146.479,115.098 
		147.718,112.349 148.827,109.539 149.803,106.654 150.636,103.711 151.333,100.711 151.874,97.656 152.274,94.553 152.514,91.403 
		152.59,88.215 152.686,88.215 153.312,88.215 155.023,88.215 158.346,88.215 163.829,88.215 163.756,85.876 	"/>
	<path fill-rule="evenodd" clip-rule="evenodd" fill="#FFFFFF" d="M176.766,84.137l-0.295-3.909l-0.484-3.877l-0.671-3.836
		l-0.85-3.792l-1.032-3.738l-1.21-3.68l-1.381-3.617l-1.549-3.542l-1.716-3.468l-1.882-3.382l-2.047-3.292l-2.201-3.193
		l-2.357-3.088l-2.509-2.981l-2.654-2.86l-2.806-2.74l-2.946-2.61l-3.085-2.471l-3.228-2.332l-3.355-2.179l-3.491-2.021l-3.61-1.866
		l-3.748-1.692l-3.861-1.517l-3.934-1.321l-3.954-1.109l-3.972-0.896l-3.966-0.696l-3.976-0.485l-3.969-0.288L96.07,7.568
		L92.135,7.67l-3.906,0.297l-3.877,0.482l-3.835,0.671L76.725,9.97l-3.744,1.032l-3.675,1.21l-3.624,1.381l-3.539,1.549l-3.465,1.72
		l-3.38,1.882l-3.297,2.043l-3.193,2.201l-3.088,2.356l-2.977,2.509l-2.864,2.657l-2.744,2.804l-2.604,2.948l-2.478,3.085
		l-2.325,3.225l-2.182,3.361l-2.025,3.483l-1.862,3.618l-1.691,3.744l-1.521,3.862L19.13,64.58l-1.106,3.954L17.122,72.5
		l-0.691,3.972l-0.488,3.972l-0.284,3.969l-0.092,3.957l0.104,3.935l0.295,3.907l0.485,3.875l0.672,3.835l0.849,3.792l1.032,3.741
		l1.21,3.682l1.381,3.617l1.549,3.542l1.717,3.464l1.882,3.384l2.043,3.295l2.204,3.193l2.357,3.087l2.509,2.98l2.654,2.864
		l2.807,2.736l2.946,2.611l3.084,2.47l3.229,2.332l3.355,2.179l3.494,2.025l3.614,1.862l3.741,1.695l3.865,1.514l3.931,1.324
		l3.953,1.105l3.973,0.896l3.972,0.693l3.972,0.487l3.966,0.289l3.954,0.089l3.934-0.108l3.909-0.291l3.877-0.488l3.833-0.665
		l3.795-0.854l3.741-1.033l3.678-1.204l3.621-1.38l3.539-1.553l3.469-1.717l3.38-1.882l3.294-2.047l3.196-2.202l3.088-2.356
		l2.978-2.509l2.863-2.657l2.736-2.803l2.61-2.949l2.478-3.086l2.325-3.225l2.179-3.357l2.025-3.491l1.862-3.614l1.695-3.741
		l1.514-3.864l1.324-3.934l1.105-3.954l0.903-3.969l0.69-3.972l0.488-3.974l0.285-3.969l0.091-3.953L176.766,84.137z M165.02,91.76
		l-0.266,3.497l-0.438,3.449l-0.608,3.393l-0.766,3.332l-0.932,3.269l-1.083,3.202l-1.229,3.127l-1.381,3.055l-1.523,2.97
		l-1.657,2.884l-1.793,2.797l-1.92,2.702l-2.046,2.604l-2.167,2.498l-2.281,2.393l-2.392,2.281l-2.502,2.166l-2.6,2.047
		l-2.702,1.919l-2.794,1.794l-2.886,1.659l-2.971,1.521l-3.047,1.382l-3.133,1.23l-3.196,1.084l-3.275,0.929l-3.329,0.77
		l-3.393,0.607l-3.449,0.438l-3.494,0.267l-3.547,0.09l-3.548-0.09l-3.494-0.267l-3.45-0.438l-3.392-0.607l-3.336-0.77l-3.27-0.929
		l-3.195-1.084l-3.133-1.23l-3.047-1.382l-2.971-1.521l-2.886-1.659l-2.793-1.794l-2.702-1.919l-2.607-2.047l-2.497-2.163
		L47.5,136.93l-2.278-2.385l-2.164-2.506l-2.046-2.601l-1.92-2.702l-1.792-2.794l-1.657-2.885l-1.523-2.972l-1.381-3.051
		l-1.23-3.131l-1.083-3.199l-0.931-3.269l-0.767-3.329l-0.608-3.398l-0.437-3.446l-0.267-3.497l-0.088-3.542l0.088-3.547
		l0.267-3.497l0.437-3.446l0.608-3.396l0.767-3.333l0.931-3.269l1.083-3.196l1.23-3.132l1.381-3.053l1.523-2.969l1.653-2.882
		l1.796-2.797l1.92-2.699l2.043-2.604l2.167-2.503l2.278-2.395l2.392-2.281l2.502-2.164l2.6-2.043l2.703-1.922l2.793-1.792
		l2.886-1.657l2.971-1.523l3.047-1.381l3.133-1.232l3.199-1.083l3.266-0.928l3.335-0.77l3.393-0.608l3.449-0.438l3.494-0.266
		l3.547-0.088l3.548,0.088l3.493,0.266l3.45,0.438l3.393,0.608l3.335,0.767l3.269,0.932l3.203,1.083l3.126,1.232l3.054,1.381
		l2.971,1.521l2.886,1.656l2.794,1.793l2.702,1.922l2.6,2.043l2.502,2.167l2.392,2.281l2.281,2.395l2.167,2.5L151.424,47l1.92,2.699
		l1.793,2.796l1.657,2.887l1.523,2.972l1.381,3.047l1.229,3.132l1.083,3.196l0.932,3.27l0.766,3.332l0.608,3.396l0.438,3.448
		l0.266,3.5l0.088,3.542L165.02,91.76z"/>
</g>
</svg>
