<?xml version="1.0" encoding="utf-8"?>
<!-- Generator: Adobe Illustrator 16.0.0, SVG Export Plug-In . SVG Version: 6.00 Build 0)  -->
<!DOCTYPE svg PUBLIC "-//W3C//DTD SVG 1.1//EN" "http://www.w3.org/Graphics/SVG/1.1/DTD/svg11.dtd">
<svg version="1.1" id="Layer_1" xmlns="http://www.w3.org/2000/svg" xmlns:xlink="http://www.w3.org/1999/xlink" x="0px" y="0px"
	 width="223.7px" height="42.7px" viewBox="0 0 223.7 42.7" style="enable-background:new 0 0 223.7 42.7;" xml:space="preserve">
<style type="text/css">
<![CDATA[
	.st0{fill-rule:evenodd;clip-rule:evenodd;fill:#4D4D4D;}
	.st1{fill-rule:evenodd;clip-rule:evenodd;fill:#666666;}
	.st2{fill-rule:evenodd;clip-rule:evenodd;fill:#CCCCCC;}
]]>
</style>
<g>
	<path class="st1" d="M134.1,22c1.9,0.6,3.3,1.6,4.2,3.3c0.6,1.1,0.9,2.3,0.9,3.5c0.1,3.1,0.1,6.2,0.1,9.2c0,0,0,0.1-0.1,0.1
		c-2.6,0-5.3,0-8.1,0c0-0.2,0-0.4,0-0.6c0-2.2,0-4.4-0.1-6.6c0-0.7-0.2-1.5-0.4-2.2c-0.5-2-1.8-3.3-3.8-3.9
		c-1.8-0.6-3.7-0.7-5.6-0.7c-3.1,0-6.2,0-9.3,0c-0.1,0-0.2,0-0.3,0c0,4.7,0,9.3,0,13.9c-2.7,0-5.3,0-8,0c0-11.8,0-23.6,0-35.5
		c0.2,0,0.4,0,0.6,0c7.2,0,14.4,0,21.6,0c2.9,0,5.6,0.6,8.2,1.9c6.2,3.2,7.1,12.1,1.2,16.5C135,21.3,134.6,21.6,134.1,22z
		 M111.9,18.6c0.2,0,0.4,0,0.6,0c2.5,0,5,0,7.5,0c1.4,0,2.9,0,4.3-0.1c1.7-0.1,3.4-0.4,4.9-1.4c1.7-1.2,2.1-2.9,1.9-4.8
		c-0.2-1.9-1.4-3-3.2-3.4c-1.4-0.3-2.8-0.5-4.2-0.5c-3.7-0.1-7.5,0-11.2,0c-0.2,0-0.4,0-0.7,0C111.9,11.8,111.9,15.2,111.9,18.6z"/>
	<path class="st2" d="M173.5,16c0.3-4.1-2.3-7.4-6.3-8.2c-3.2-0.7-6.4-0.6-9.4,0.9c-1.9,0.9-3.9,1-6,0.4c-0.6-0.2-1.1-0.4-1.6-0.7
		c-1-0.7-1-1.6-0.1-2.4c1.4-1.1,2.9-1.8,4.6-2.4c3.7-1.2,7.5-1.5,11.3-1.3c2.6,0.1,5.1,0.5,7.6,1.5c3.1,1.2,5.5,3.1,6.8,6.2
		c0.8,1.8,0.9,3.7,0.9,5.6c0,4.7,0,9.4-0.5,14.1c-0.2,2.1-0.4,4.2-1.1,6.2c0,0.1,0,0.1-0.1,0.2c-0.3,0.9-0.8,1.5-1.9,1.6
		c-5.2,0.8-10.5,1.4-15.8,1.6c-2.6,0.1-5.3,0.1-7.9-0.5c-3.2-0.7-6-2.1-8.2-4.6c-3.4-4-3.2-10.2,0.5-13.7c1.7-1.6,3.8-2.5,6-3.2
		c3.1-0.9,6.3-1.2,9.5-1.2c3.8-0.1,7.6-0.1,11.3-0.2C173.3,16,173.4,16,173.5,16z M173.6,21.8c-0.3,0-0.5,0-0.7,0
		c-3.1,0.1-6.3,0.1-9.4,0.2c-2.4,0.1-4.8,0.2-7.1,0.8c-0.6,0.2-1.2,0.4-1.8,0.6c-3.6,1.5-3.5,5.1-2,7.2c1.5,2,3.6,2.9,5.9,3.2
		c2.2,0.3,4.5,0.2,6.7,0c1.6-0.1,3.2-0.4,4.7-1c1.9-0.8,3.1-2.1,3.3-4.2C173.5,26.4,173.5,24.1,173.6,21.8z"/>
	<path class="st0" d="M32,16c-0.1-1.7-0.4-3.3-1.2-4.7c-1.1-2-3-3.1-5.2-3.5c-3.2-0.7-6.3-0.6-9.4,0.8c-2.1,1-4.4,1.1-6.6,0.2
		c-0.4-0.1-0.7-0.4-1-0.6C7.8,7.5,7.7,6.6,8.6,6c0.9-0.7,1.9-1.3,2.9-1.8c2.4-1.1,4.9-1.6,7.5-1.9c3.7-0.3,7.4-0.2,11,0.7
		c2.4,0.6,4.5,1.6,6.3,3.3c1.9,1.7,3,3.9,3.2,6.5c0.2,2.9,0.2,5.8,0.1,8.6c-0.1,3.4-0.3,6.8-0.7,10.2c-0.2,1.6-0.7,3.3-1.1,4.9
		c-0.2,0.7-0.7,1.1-1.5,1.2C31,38.6,25.5,39.2,20,39.4c-3.3,0.1-6.6,0-9.7-1.2c-2.5-0.9-4.6-2.3-6.3-4.4c-3.1-4-3.1-12.1,4-15.3
		c2.4-1.1,4.9-1.7,7.4-1.9c3.1-0.3,6.3-0.4,9.4-0.5c2.3-0.1,4.6-0.1,6.8-0.1C31.8,16,31.9,16,32,16z M32.1,21.9c-0.3,0-0.4,0-0.5,0
		c-4.5,0.1-9.1,0.2-13.6,0.5c-1.7,0.1-3.4,0.4-5.1,1.1c-3.5,1.5-3.4,5-2,7c1.2,1.7,2.9,2.7,4.9,3.2c1.9,0.5,3.8,0.4,5.7,0.3
		c2.3-0.1,4.5-0.3,6.7-1.1c1.8-0.7,3.2-1.9,3.5-3.9C32,26.6,32,24.3,32.1,21.9z"/>
	<path class="st2" d="M193.9,38.1c-2.5,0-5,0-7.5,0c0-0.2,0-0.4,0-0.6c0-6.8,0-13.5,0-20.3c0-3.8,1.1-7.2,3.7-10
		c2-2.1,4.5-3.4,7.3-4.1c5.4-1.4,10.8-1.3,15.9,0.9c5.4,2.3,8.3,6.6,8.5,12.5c0.2,5.3,0.1,10.7,0.1,16c0,1.7,0,3.4,0,5.1
		c0,0.2,0,0.4,0,0.6c-2.5,0-5,0-7.5,0c0-0.2,0-0.5,0-0.7c0-6.8,0-13.5,0-20.3c0-3.4-1.3-6.1-4.4-7.7c-1.3-0.7-2.6-1-4.1-1.1
		c-2.3-0.2-4.6-0.1-6.8,0.8c-3,1.2-4.6,3.5-5,6.6c-0.1,0.6-0.1,1.3-0.1,1.9c0,6.6,0,13.2,0,19.8C193.9,37.6,193.9,37.9,193.9,38.1z"
		/>
	<path class="st1" d="M63.8,8.4c0-2,0-3.9,0-5.8c11.7,0,23.3,0,35,0c0,1.9,0,3.8,0,5.8c-0.2,0-0.4,0-0.7,0c-2.9,0-5.8,0-8.7,0
		c-0.7,0-1.5,0.1-2.2,0.2c-1.1,0.2-1.6,0.7-1.7,1.8c-0.1,0.7-0.1,1.3-0.1,2c0,8.3,0,16.7,0,25c0,0.2,0,0.5,0,0.7c-2.7,0-5.3,0-8,0
		c0-0.2,0-0.4,0-0.6c0-8.3,0-16.7,0-25c0-0.6,0-1.2-0.1-1.9c-0.1-1.3-0.7-1.8-2-2c-0.7-0.1-1.4-0.1-2.1-0.1c-2.9,0-5.8,0-8.7,0
		C64.2,8.4,64,8.4,63.8,8.4z"/>
	<path class="st0" d="M44.1,2.6c2.7,0,5.3,0,8,0c0,0.2,0,0.5,0,0.7c0,7.6,0,15.3,0,22.9c0,0.9,0,1.8,0.1,2.7c0.2,2.1,1,3,3.1,3.2
		c0.8,0.1,1.6,0.1,2.4,0.1c4.4,0,8.8,0,13.2,0c0.2,0,0.4,0,0.6,0c0,1.9,0,3.8,0,5.8c-0.2,0-0.4,0-0.6,0c-6.3,0-12.6,0-18.9,0
		c-2.7,0-5-0.9-6.7-3.1c-1-1.3-1.4-2.8-1.4-4.4c0-9.2,0-18.4,0-27.5C44,2.9,44.1,2.8,44.1,2.6z"/>
</g>
</svg>
