<?xml version="1.0" encoding="utf-8"?>
<!-- Generator: Adobe Illustrator 16.0.0, SVG Export Plug-In . SVG Version: 6.00 Build 0)  -->
<!DOCTYPE svg PUBLIC "-//W3C//DTD SVG 1.1//EN" "http://www.w3.org/Graphics/SVG/1.1/DTD/svg11.dtd">
<svg version="1.1" id="Layer_1" xmlns="http://www.w3.org/2000/svg" xmlns:xlink="http://www.w3.org/1999/xlink" x="0px" y="0px"
	 width="300px" height="89.333px" viewBox="0 0 300 89.333" enable-background="new 0 0 300 89.333" xml:space="preserve">
<g>
	<path fill-rule="evenodd" clip-rule="evenodd" fill="#FFFFFF" d="M124.934,69.54c-0.726,1.1-1.348,2.115-2.042,3.08
		c-3.634,5.04-8.475,8.394-14.382,10.263c-3.616,1.143-7.322,1.637-11.1,1.574c-7.236-0.122-13.655-2.515-19.239-7.107
		c-3.233-2.659-5.843-5.841-7.763-9.575c-0.115-0.225-0.286-0.421-0.516-0.752c-0.289,0.868-0.527,1.614-0.785,2.354
		c-2.544,7.267-7.729,11.667-14.987,13.831c-3.119,0.929-6.309,1.26-9.549,1.26C32.646,84.461,20.724,84.464,8.8,84.461
		c-0.399,0-0.806,0.005-1.196-0.069c-1.801-0.34-2.555-1.246-2.602-3.083c-0.004-0.16-0.001-0.321-0.001-0.481
		c0-24.862,0-49.724,0-74.585c0-2.261,1.236-3.507,3.517-3.507c12.271,0.003,24.543-0.106,36.81,0.077
		c5.569,0.083,10.845,1.583,15.255,5.272c3.208,2.683,5.085,6.182,6.062,10.191c0.59,2.421,0.746,4.893,0.663,7.384
		c-0.2,6.003-2.595,10.905-7.296,14.664c-0.146,0.116-0.297,0.226-0.44,0.344c-0.039,0.032-0.061,0.085-0.166,0.239
		c2.969,1.666,5.581,3.758,7.539,6.671c3.317-14.008,11.278-23.645,25.705-26.103c14.362-2.447,25.377,3.176,32.581,16.115
		c0.215-0.79,0.388-1.548,0.625-2.285c1.438-4.462,4.299-7.796,8.244-10.228c3.33-2.053,6.972-3.285,10.853-3.713
		c2.326-0.257,4.677-0.494,7.011-0.445c5.971,0.125,11.588,1.562,16.53,5.083c3.756,2.676,6.456,6.159,7.927,10.559
		c0.127,0.377,0.282,0.745,0.432,1.114c0.015,0.037,0.081,0.054,0.258,0.162c0-0.567,0-1.058,0-1.548c0-9.09,0-18.179,0.001-27.268
		c0-1.501,0.582-2.09,2.062-2.091c3.743-0.001,7.485-0.001,11.229,0c1.527,0.001,2.171,0.653,2.173,2.209
		c0.003,3.903,0.001,7.806,0.002,11.709c0,1.239,0.368,1.616,1.612,1.616c6.202,0.003,12.403,0,18.606,0.003
		c1.483,0,2.074,0.589,2.075,2.072c0.004,3.475,0.004,6.951,0,10.426c0,1.348-0.541,1.875-1.897,1.875
		c-6.203-0.001-12.404-0.002-18.606,0.001c-1.434,0-1.79,0.362-1.791,1.785c0,6.71,0.027,13.42-0.009,20.13
		c-0.027,5.263,3.146,10.128,9.13,10.964c4.107,0.573,7.957-0.182,10.796-3.616c1.558-1.884,2.366-4.091,2.472-6.524
		c0.068-1.602,0.014-3.207,0.021-4.812c0.007-1.184,0.631-1.824,1.818-1.828c3.957-0.008,7.913-0.007,11.87,0.004
		c1.029,0.003,1.719,0.646,1.753,1.671c0.153,4.579-0.071,9.106-1.724,13.46c-2.903,7.657-8.236,12.715-16.069,15.135
		c-4.063,1.254-8.226,1.56-12.415,1.07c-7.516-0.876-13.814-4.058-18.255-10.344c-1.186-1.678-1.975-3.637-2.94-5.47
		c-0.134-0.254-0.233-0.525-0.436-0.988c-0.137,0.411-0.229,0.639-0.289,0.873c-1.334,5.295-4.578,9.127-9.176,11.888
		c-3.731,2.239-7.819,3.401-12.123,3.935c-3.013,0.372-6.027,0.416-9.028,0.108c-6.17-0.631-11.944-2.411-16.811-6.451
		c-2.427-2.016-4.372-4.438-5.712-7.32C125.308,70.207,125.137,69.92,124.934,69.54z M128.388,49.902
		c0.056,1.25,0.151,2.281,0.132,3.309c-0.02,1.024,0.076,2.139-0.29,3.049c-0.742,1.853-2.389,2.413-4.298,2.411
		c-12.83-0.011-25.659-0.005-38.488-0.005c-0.268,0-0.536-0.013-0.802,0.006c-1.352,0.095-1.982,1.061-1.511,2.342
		c0.709,1.929,1.802,3.638,3.217,5.106c3.697,3.836,8.238,5.305,13.5,4.662c4.301-0.526,7.775-2.438,10.251-6.054
		c0.419-0.613,0.986-0.876,1.766-0.874c8.553,0.022,17.106,0.031,25.659-0.006c1.042-0.004,1.713,0.379,2.239,1.211
		c1.008,1.594,2.386,2.777,4.068,3.623c3.405,1.71,7.057,2.018,10.752,1.682c1.775-0.162,3.541-0.685,5.252-1.229
		c1.369-0.437,2.523-1.331,3.113-2.711c0.977-2.286-0.06-4.729-2.637-5.649c-2.361-0.841-4.829-1.424-7.286-1.951
		c-4.334-0.931-8.723-1.615-13.037-2.624c-3.275-0.764-6.355-2.126-9.077-4.166C130.105,51.428,129.366,50.732,128.388,49.902z
		 M32.613,49.043c-3.288,0-6.576-0.002-9.864,0c-1.802,0.002-2.284,0.479-2.284,2.269c-0.001,5.587,0,11.174,0,16.762
		c0,1.849,0.474,2.331,2.318,2.331c6.549,0.003,13.099,0.026,19.648-0.014c2.103-0.013,4.2-0.216,6.194-0.989
		c2.797-1.088,4.775-2.948,5.633-5.892c0.649-2.227,0.665-4.468,0.15-6.714c-0.666-2.907-2.362-5.011-5.027-6.348
		c-2.177-1.092-4.523-1.366-6.905-1.396C39.189,49.013,35.901,49.043,32.613,49.043z M33.024,16.717c0,0.002,0,0.004,0,0.006
		c-3.554,0-7.108,0.003-10.664-0.002c-1.342-0.001-1.9,0.535-1.901,1.882c-0.003,4.811-0.003,9.622,0.001,14.433
		c0.001,1.324,0.55,1.917,1.896,1.919c6.842,0.011,13.684,0.021,20.526-0.021c2.498-0.015,4.768-0.792,6.637-2.515
		c2.435-2.246,3.207-5.09,2.768-8.278c-0.313-2.27-1.351-4.183-3.236-5.576c-1.957-1.446-4.2-1.855-6.565-1.85
		C39.332,16.722,36.178,16.717,33.024,16.717z M177.038,39.331c-0.699,0.133-1.358,0.36-2.02,0.366
		c-4.036,0.033-8.073-0.017-12.108,0.04c-1.037,0.014-1.719-0.354-2.268-1.172c-0.987-1.471-2.379-2.416-4.026-3.012
		c-3.207-1.16-6.495-1.031-9.785-0.538c-1.889,0.283-3.67,0.895-5.06,2.316c-1.468,1.503-1.317,3.534,0.367,4.771
		c1.609,1.182,3.51,1.635,5.408,2.012c3.048,0.607,6.121,1.08,9.179,1.644c3.843,0.708,7.649,1.566,11.284,3.045
		c3.024,1.229,5.795,2.839,7.838,5.479c0.361,0.467,0.7,0.948,1.05,1.424c0.047-0.026,0.095-0.052,0.142-0.078
		C177.038,50.125,177.038,44.622,177.038,39.331z M97.865,46.181c0-0.012,0-0.022,0-0.033c4.461,0,8.923,0.004,13.385-0.003
		c1.377-0.002,1.697-0.491,1.204-1.806c-0.69-1.841-1.679-3.518-3.025-4.942c-3.749-3.966-8.411-5.498-13.765-4.812
		c-6.192,0.793-10.196,4.422-12.512,10.074c-0.416,1.014-0.006,1.524,1.09,1.523C88.782,46.18,93.324,46.181,97.865,46.181z"/>
	<path fill-rule="evenodd" clip-rule="evenodd" fill="#FFFFFF" d="M225.617,11.733c0.984,0,1.915,0,2.846,0
		c2.807,0.002,5.614-0.051,8.418,0.024c2.258,0.061,4.241,0.834,5.515,2.837c1.704,2.677,1.466,6.546-1.501,8.514
		c-0.152,0.101-0.284,0.23-0.546,0.446c2.271,0.84,3.359,2.542,3.759,4.819c0.168-0.088,0.304-0.117,0.373-0.2
		c1.287-1.537,3.053-2.066,4.934-2.317c1.791-0.239,3.59-0.419,5.383-0.651c0.335-0.043,0.668-0.178,0.978-0.321
		c0.729-0.336,1.335-0.797,1.384-1.693c0.051-0.923-0.403-1.588-1.15-2.053c-1.133-0.705-2.438-0.815-3.7-0.735
		c-1.006,0.064-2.027,0.372-2.975,0.744c-0.845,0.332-1.371,1.08-1.606,1.983c-0.109,0.42-0.335,0.591-0.794,0.564
		c-0.739-0.044-1.483-0.012-2.305-0.012c0.046-1.733,0.734-3.047,1.968-4.092c1.084-0.919,2.36-1.447,3.748-1.666
		c2.297-0.363,4.572-0.329,6.72,0.708c1.869,0.902,2.884,2.397,2.897,4.499c0.019,3.02-0.021,6.041,0.026,9.06
		c0.022,1.454,0.187,2.905,0.295,4.472c-0.699,0-1.545,0.066-2.365-0.043c-0.231-0.031-0.442-0.56-0.574-0.895
		c-0.119-0.302-0.118-0.651-0.197-1.153c-1.267,1.306-2.649,2.049-4.266,2.329c-2.628,0.455-5.202,0.367-7.386-1.342
		c-0.856-0.671-1.409-1.732-2.162-2.695c0.024-0.045-0.043,0.096-0.122,0.229c-1.372,2.309-3.505,3.453-6.089,3.54
		c-3.736,0.126-7.481,0.031-11.223,0.028c-0.076-0.001-0.151-0.034-0.281-0.065C225.617,28.351,225.617,20.107,225.617,11.733z
		 M228.547,33.877c0.325,0,0.611,0,0.896,0c2.271,0,4.541,0.011,6.812-0.008c0.555-0.004,1.119-0.056,1.661-0.17
		c2.027-0.425,3.439-2.339,3.341-4.476c-0.109-2.371-1.482-3.978-3.757-4.087c-2.797-0.134-5.603-0.075-8.405-0.119
		c-0.596-0.009-0.612,0.334-0.61,0.776c0.01,2.457,0.004,4.915,0.007,7.372C228.491,33.372,228.522,33.578,228.547,33.877z
		 M228.492,14.542c0,2.473,0.004,4.844-0.002,7.214c-0.002,0.528,0.363,0.518,0.713,0.514c2.613-0.025,5.229-0.014,7.841-0.102
		c1.912-0.064,3.323-1.552,3.445-3.332c0.204-2.969-1.374-4.16-3.157-4.254C234.435,14.431,231.523,14.542,228.492,14.542z
		 M257.14,26.72c-2.137,1.27-4.401,1.299-6.649,1.486c-0.829,0.069-1.67,0.34-2.442,0.667c-1.029,0.436-1.618,1.262-1.646,2.432
		c-0.027,1.126,0.449,1.928,1.44,2.467c1.58,0.858,3.257,0.669,4.917,0.447c1.148-0.154,2.185-0.643,3.048-1.459
		C257.59,31.076,257.115,28.926,257.14,26.72z"/>
	<path fill-rule="evenodd" clip-rule="evenodd" fill="#FFFFFF" d="M282.121,26.386c0.226-0.207,0.458-0.406,0.676-0.62
		c2.443-2.393,4.875-4.795,7.338-7.167c0.252-0.242,0.68-0.402,1.034-0.418c1.14-0.053,2.283-0.02,3.425-0.02
		c0.067,0.086,0.134,0.172,0.2,0.258c-0.439,0.363-0.903,0.7-1.313,1.092c-1.759,1.676-3.488,3.382-5.259,5.045
		c-0.42,0.394-0.452,0.673-0.129,1.146c2.328,3.412,4.632,6.842,6.94,10.268c0.13,0.192,0.247,0.393,0.436,0.695
		c-1.137,0-2.168,0.028-3.196-0.022c-0.224-0.012-0.495-0.267-0.641-0.479c-1.91-2.794-3.801-5.601-5.699-8.402
		c-0.101-0.15-0.229-0.283-0.431-0.529c-1.175,1.136-2.331,2.227-3.442,3.362c-0.164,0.167-0.149,0.548-0.151,0.83
		c-0.013,1.705-0.006,3.411-0.006,5.179c-1.003,0-1.917,0-2.882,0c0-8.854,0-17.687,0-26.644c0.85,0,1.694-0.03,2.532,0.031
		c0.132,0.01,0.328,0.429,0.334,0.663c0.03,1.416,0.016,2.833,0.016,4.249c0,3.501,0,7.002,0.001,10.503c0,0.29,0,0.579,0,0.868
		C281.976,26.31,282.049,26.347,282.121,26.386z"/>
	<path fill-rule="evenodd" clip-rule="evenodd" fill="#FFFFFF" d="M261.856,18.195c0.918,0,1.765,0,2.692,0
		c0.028,0.602,0.056,1.177,0.085,1.827c0.706-0.499,1.325-1.032,2.025-1.414c3.605-1.963,9.159-0.815,10.281,4.609
		c0.107,0.517,0.175,1.052,0.177,1.579c0.017,3.714,0.012,7.428,0.011,11.142c0,0.208-0.029,0.417-0.049,0.676
		c-0.899,0-1.768,0-2.756,0c0-0.291,0-0.573,0-0.855c0-3.473,0.058-6.948-0.038-10.419c-0.027-0.993-0.313-2.082-0.81-2.937
		c-1.155-1.991-3.118-2.297-5.167-1.857c-1.93,0.413-3.516,2.292-3.55,4.143c-0.067,3.658-0.084,7.317-0.069,10.976
		c0.003,0.798-0.202,1.12-1.032,1.017c-0.573-0.07-1.163-0.014-1.801-0.014C261.856,30.489,261.856,24.386,261.856,18.195z"/>
</g>
</svg>
