<?xml version="1.0" encoding="utf-8"?>
<!-- Generator: Adobe Illustrator 16.0.0, SVG Export Plug-In . SVG Version: 6.00 Build 0)  -->
<!DOCTYPE svg PUBLIC "-//W3C//DTD SVG 1.1//EN" "http://www.w3.org/Graphics/SVG/1.1/DTD/svg11.dtd">
<svg version="1.1" id="Layer_1" xmlns="http://www.w3.org/2000/svg" xmlns:xlink="http://www.w3.org/1999/xlink" x="0px" y="0px"
	 width="120px" height="120px" viewBox="0 0 120 120" enable-background="new 0 0 120 120" xml:space="preserve">
<rect fill-rule="evenodd" clip-rule="evenodd" fill="#676767" width="120" height="120"/>
<g>
	<path fill-rule="evenodd" clip-rule="evenodd" fill="#CCCCCC" d="M37.335,58.343c0.154,0.126,0.261,0.206,0.359,0.295
		c0.482,0.438,0.618,1.077,0.299,1.643c-0.697,1.242-1.386,2.49-2.139,3.697c-0.684,1.098-1.732,1.582-3.025,1.58
		c-6.382-0.005-12.765-0.002-19.148-0.002c-4.384,0-8.769,0.003-13.153,0.004c-0.167,0-0.333,0-0.528,0c0-0.807,0-1.573,0-2.4
		c0.193,0,0.373,0,0.554,0c5.004,0,10.008-0.004,15.013,0.008c0.37,0.002,0.577-0.105,0.764-0.434
		c2.146-3.747,4.312-7.482,6.463-11.226c0.155-0.269,0.314-0.392,0.645-0.391c5.778,0.012,11.558,0.007,17.336,0.009
		c0.982,0.001,1.619,0.637,1.499,1.516c-0.032,0.236-0.146,0.472-0.265,0.684c-0.522,0.932-1.089,1.839-1.584,2.784
		C39.772,57.356,38.833,58.175,37.335,58.343z M24.563,63.146c1.619,0,3.147,0.012,4.674-0.008c0.471-0.006,0.792-0.314,1.021-0.709
		c0.365-0.627,0.73-1.254,1.085-1.887c0.333-0.596,0.102-0.999-0.589-1.005c-1.268-0.01-2.536-0.009-3.803,0.006
		c-0.142,0.002-0.346,0.088-0.412,0.2C25.883,60.842,25.251,61.953,24.563,63.146z M28.041,57.114c1.62,0,3.153,0.037,4.681-0.03
		c0.332-0.014,0.74-0.334,0.951-0.629c0.45-0.625,0.803-1.321,1.176-1.999c0.289-0.526,0.053-0.932-0.55-0.938
		c-1.301-0.013-2.603-0.01-3.904,0.003c-0.129,0.001-0.316,0.083-0.377,0.186C29.363,54.808,28.728,55.921,28.041,57.114z"/>
	<path fill-rule="evenodd" clip-rule="evenodd" fill="#CCCCCC" d="M47.739,65.557c-2.603,0-5.205,0.002-7.809-0.001
		c-1.374-0.001-1.974-1.041-1.288-2.232c1.987-3.446,3.981-6.888,5.964-10.337c0.723-1.258,1.801-1.863,3.244-1.863
		c5.144,0.004,10.288,0.032,15.431-0.019c1.305-0.013,2.025,1.135,1.33,2.304c-2.018,3.392-3.967,6.824-5.934,10.246
		c-0.74,1.287-1.829,1.915-3.316,1.906C52.821,65.545,50.28,65.557,47.739,65.557z M49.154,63.157c0.935,0.194,1.579-0.3,2.05-1.229
		c0.517-1.02,1.129-1.989,1.702-2.98c0.85-1.473,1.704-2.943,2.549-4.419c0.344-0.6,0.118-0.998-0.564-1.014
		c-0.356-0.008-0.713,0.014-1.067-0.005c-0.731-0.039-1.215,0.282-1.576,0.917c-1.445,2.539-2.915,5.064-4.375,7.594
		c-0.054,0.095-0.116,0.185-0.159,0.283c-0.189,0.439,0.037,0.817,0.518,0.851C48.492,63.171,48.757,63.157,49.154,63.157z"/>
	<path fill-rule="evenodd" clip-rule="evenodd" fill="#CCCCCC" d="M77.617,55.321c0.188-0.334,0.342-0.598,0.485-0.867
		c0.282-0.528,0.062-0.908-0.542-0.94c-0.03-0.002-0.061-0.001-0.093-0.001c-2.181-0.012-2.024-0.101-3.056,1.72
		c-0.344,0.605-0.694,1.206-1.103,1.914c0.248,0,0.419,0,0.591,0c2.819,0,5.639-0.001,8.458,0.003c0.246,0,0.503-0.001,0.737,0.063
		c0.807,0.226,1.197,1.133,0.767,1.911c-0.921,1.665-1.854,3.326-2.857,4.942c-0.618,0.998-1.608,1.484-2.79,1.486
		c-5.268,0.008-10.533,0.007-15.801,0.001c-1.164-0.001-1.797-1.05-1.25-2.065c0.344-0.641,0.715-1.268,1.094-1.889
		c0.066-0.108,0.229-0.227,0.346-0.227c2.726-0.013,5.451-0.01,8.264-0.01c-0.181,0.314-0.338,0.572-0.48,0.838
		c-0.28,0.525-0.053,0.938,0.533,0.955c0.465,0.014,0.93,0.002,1.395,0c0.471-0.002,0.855-0.201,1.094-0.596
		c0.584-0.965,1.142-1.945,1.771-3.025c-0.263,0-0.436,0-0.608,0c-2.82,0-5.64,0.001-8.459-0.002
		c-0.231-0.001-0.471,0.004-0.691-0.052c-0.818-0.207-1.255-1.125-0.836-1.878c0.94-1.69,1.891-3.376,2.912-5.018
		c0.6-0.963,1.557-1.454,2.708-1.455c5.298-0.008,10.596-0.009,15.894-0.002c1.152,0.002,1.762,1.075,1.201,2.086
		c-0.346,0.623-0.7,1.241-1.072,1.847c-0.074,0.121-0.252,0.249-0.382,0.249C83.134,55.325,80.424,55.321,77.617,55.321z"/>
	<path fill-rule="evenodd" clip-rule="evenodd" fill="#CCCCCC" d="M120,51.146c0,0.807,0,1.561,0,2.367c-0.22,0-0.418,0-0.617,0
		c-6.94,0-13.882,0.004-20.823-0.01c-0.407,0-0.642,0.108-0.839,0.476c-0.488,0.914-1.025,1.802-1.543,2.701
		c-0.073,0.128-0.137,0.263-0.237,0.457c3.899,0,7.734,0,11.694,0c-0.248,0.436-0.498,0.768-0.635,1.142
		c-0.387,1.05-1.084,1.32-2.193,1.29c-3.268-0.089-6.537-0.025-9.807-0.041c-0.364-0.002-0.554,0.116-0.724,0.426
		c-0.506,0.923-1.046,1.827-1.57,2.739c-0.074,0.131-0.138,0.267-0.239,0.465c3.908,0,7.754,0,11.701,0
		c-0.469,0.813-0.878,1.551-1.326,2.264c-0.068,0.105-0.323,0.131-0.492,0.131c-4.57,0.008-9.141,0.006-13.712,0.006
		c-1.982,0-3.965,0-6.024,0c0.076-0.16,0.123-0.279,0.186-0.389c2.637-4.571,5.278-9.141,7.909-13.717
		c0.144-0.251,0.306-0.331,0.585-0.331c9.436,0.006,18.872,0.005,28.309,0.006C119.723,51.126,119.844,51.138,120,51.146z"/>
</g>
</svg>
