<?xml version="1.0" encoding="utf-8"?>
<!-- Generator: Adobe Illustrator 16.0.0, SVG Export Plug-In . SVG Version: 6.00 Build 0)  -->
<!DOCTYPE svg PUBLIC "-//W3C//DTD SVG 1.1//EN" "http://www.w3.org/Graphics/SVG/1.1/DTD/svg11.dtd">
<svg version="1.1" id="Layer_1" xmlns="http://www.w3.org/2000/svg" xmlns:xlink="http://www.w3.org/1999/xlink" x="0px" y="0px"
	 width="274.5px" height="42px" viewBox="0 0 274.5 42" enable-background="new 0 0 274.5 42" xml:space="preserve">
<g>
	<path fill-rule="evenodd" clip-rule="evenodd" fill="#FFFFFF" d="M49.714,7.44c8.359,0.088,14.774,6.716,14.66,15.146
		c-0.112,8.284-6.841,14.741-15.243,14.627c-8.1-0.11-14.516-6.857-14.455-15.201C34.736,13.802,41.393,7.352,49.714,7.44z
		 M56.905,22.537c0.083-4.235-2.993-7.515-7.145-7.618c-4.2-0.104-7.516,3.006-7.622,7.149c-0.105,4.14,3.11,7.59,7.143,7.665
		C53.429,29.81,56.825,26.604,56.905,22.537z"/>
	<path fill-rule="evenodd" clip-rule="evenodd" fill="#FFFFFF" d="M67.92,25.509c-0.001-1.721,0.099-3.45-0.018-5.163
		c-0.625-9.207,8.704-14.755,16.752-12.663c4.873,1.267,9.807,5.697,9.614,12.033c-0.132,4.332,0.021,8.671-0.066,13.005
		c-0.057,2.787-1.775,4.526-4.153,4.469c-2.374-0.057-4.02-1.917-4.046-4.633c-0.039-4.017-0.006-8.035-0.082-12.051
		c-0.057-3.038-1.738-4.524-4.92-4.513c-3.106,0.011-4.75,1.599-4.787,4.648c-0.049,4.08-0.037,8.162-0.143,12.241
		c-0.069,2.628-1.773,4.333-4.106,4.319c-2.287-0.014-3.952-1.778-4.028-4.424C67.866,30.356,67.921,27.933,67.92,25.509z"/>
	<path fill-rule="evenodd" clip-rule="evenodd" fill="#FFFFFF" d="M192.663,25.423c0-1.785-0.036-3.57,0.006-5.354
		c0.141-5.939,2.866-9.828,8.351-11.972c6.974-2.726,15.272,0.994,17.509,7.916c0.365,1.128,0.486,2.375,0.5,3.57
		c0.049,4.397,0.058,8.796-0.021,13.192c-0.048,2.633-1.747,4.381-4.049,4.412c-2.42,0.032-4.047-1.689-4.112-4.505
		c-0.093-4.015-0.077-8.031-0.156-12.046c-0.061-3.036-1.77-4.662-4.795-4.665c-3.159-0.003-4.867,1.63-4.908,4.749
		c-0.051,3.952-0.046,7.905-0.111,11.856c-0.046,2.763-1.68,4.589-4.038,4.622c-2.354,0.032-4.029-1.776-4.17-4.508
		c-0.023-0.446-0.041-0.892-0.043-1.338c-0.004-1.976-0.002-3.952-0.002-5.928C192.636,25.423,192.649,25.423,192.663,25.423z"/>
	<path fill-rule="evenodd" clip-rule="evenodd" fill="#FFFFFF" d="M136.167,25.557c0-1.785,0.087-3.575-0.015-5.353
		c-0.529-9.191,9.334-15.291,18.002-12.118c5.261,1.926,8.258,5.97,8.38,11.564c0.096,4.395,0.128,8.797,0.007,13.191
		c-0.095,3.476-3.345,5.396-6.128,3.791c-1.484-0.856-2.045-2.204-2.06-3.842c-0.035-3.951-0.022-7.903-0.11-11.854
		c-0.078-3.569-1.745-5.073-5.28-4.917c-2.842,0.125-4.357,1.561-4.428,4.397c-0.1,4.014-0.061,8.03-0.145,12.044
		c-0.061,2.904-1.7,4.746-4.109,4.765c-2.354,0.018-4.075-1.943-4.125-4.786c-0.041-2.294-0.008-4.589-0.008-6.883
		C136.154,25.557,136.161,25.557,136.167,25.557z"/>
	<path fill-rule="evenodd" clip-rule="evenodd" fill="#FFFFFF" d="M260.285,7.466c1.721,0,3.444-0.073,5.16,0.019
		c1.993,0.107,3.224,1.436,3.236,3.299c0.013,1.86-1.189,3.117-3.272,3.23c-2.607,0.142-5.223,0.166-7.833,0.253
		c-0.7,0.023-1.532-0.128-2.065,0.195c-0.838,0.508-1.475,1.35-2.196,2.051c0.725,0.699,1.367,1.858,2.19,2.007
		c2.05,0.37,4.183,0.289,6.282,0.37c1.21,0.047,2.424,0.011,3.631,0.097c1.926,0.137,3.267,1.518,3.291,3.3
		c0.023,1.706-1.184,3.15-3.076,3.287c-2.538,0.182-5.094,0.115-7.641,0.2c-0.95,0.031-2.002-0.035-2.813,0.352
		c-0.755,0.359-1.724,1.259-1.728,1.926c-0.005,0.675,0.938,1.621,1.687,1.967c0.874,0.403,1.986,0.347,2.999,0.38
		c2.356,0.077,4.718,0.044,7.072,0.14c2.106,0.085,3.467,1.428,3.484,3.292c0.018,1.9-1.303,3.31-3.406,3.34
		c-3.375,0.05-6.767,0.132-10.125-0.135c-6.146-0.488-11.324-6.873-7.421-13.71c0.302-0.529,0.324-1.531,0.021-2.045
		c-4.074-6.918,1.497-13.587,8.125-13.833c1.464-0.055,2.931-0.008,4.396-0.008C260.285,7.449,260.285,7.458,260.285,7.466z"/>
	<path fill-rule="evenodd" clip-rule="evenodd" fill="#FFFFFF" d="M180.178,7.413c1.528,0,3.06-0.04,4.588,0.009
		c2.385,0.077,3.832,1.364,3.855,3.347c0.021,1.925-1.301,3.168-3.668,3.292c-2.163,0.112-4.332,0.097-6.498,0.15
		c-0.892,0.022-1.906-0.179-2.642,0.18c-0.977,0.476-1.733,1.401-2.585,2.134c0.852,0.727,1.628,1.942,2.567,2.084
		c2.377,0.358,4.825,0.229,7.245,0.305c0.892,0.028,1.791,0.021,2.671,0.144c1.741,0.243,2.896,1.571,2.918,3.245
		c0.021,1.673-1.094,3.082-2.889,3.21c-2.856,0.205-5.729,0.176-8.593,0.282c-2.493,0.092-3.895,0.915-3.912,2.227
		c-0.018,1.344,1.332,2.219,3.83,2.327c2.61,0.114,5.226,0.09,7.836,0.185c2.227,0.081,3.691,1.409,3.728,3.273
		c0.037,1.907-1.331,3.306-3.622,3.356c-3.31,0.072-6.637,0.127-9.933-0.122c-6.174-0.467-11.363-7.006-7.425-13.699
		c0.324-0.552,0.251-1.611-0.059-2.221c-3.205-6.337,0.503-13.071,7.617-13.634c1.646-0.13,3.312-0.02,4.969-0.02
		C180.178,7.448,180.178,7.43,180.178,7.413z"/>
	<path fill-rule="evenodd" clip-rule="evenodd" fill="#FFFFFF" d="M19.944,37.208c-6.398-0.014-12.215-4.474-14.022-10.75
		C4.065,20.008,6.65,13.192,12.304,9.63c5.526-3.481,12.978-2.867,17.781,1.467c1.972,1.779,2.362,3.998,1.01,5.747
		c-1.417,1.833-3.731,2.025-5.918,0.334c-2.613-2.021-5.367-2.66-8.345-1.008c-3.545,1.966-4.7,6.432-2.626,9.755
		c2.19,3.508,6.562,4.459,10.007,2.168c0.583-0.388,1.114-0.858,1.714-1.216c1.794-1.069,3.797-0.778,5.017,0.689
		c1.275,1.533,1.219,3.625-0.142,5.25C28.657,35.377,24.107,37.217,19.944,37.208z"/>
	<path fill-rule="evenodd" clip-rule="evenodd" fill="#FFFFFF" d="M232.59,7.796c2.74,0,5.481-0.047,8.22,0.014
		c2.474,0.056,4.1,1.501,4.18,3.567c0.08,2.036-1.482,3.502-3.996,3.75c-4.287,0.422-4.284,0.422-4.32,4.751
		c-0.034,4.27-0.048,8.539-0.124,12.807c-0.048,2.773-1.565,4.476-3.891,4.507c-2.235,0.03-3.887-1.765-3.935-4.478
		c-0.091-5.097-0.162-10.196-0.098-15.292c0.021-1.703-0.586-2.273-2.201-2.204c-1.14,0.048-2.301-0.023-3.43-0.193
		c-1.935-0.292-3.286-1.902-3.227-3.679c0.06-1.731,1.358-3.3,3.272-3.396c3.176-0.159,6.365-0.043,9.549-0.043
		C232.59,7.871,232.59,7.834,232.59,7.796z"/>
	<path fill-rule="evenodd" clip-rule="evenodd" fill="#FFFFFF" d="M106.914,7.789c2.739,0,5.479-0.04,8.217,0.011
		c2.568,0.048,4.317,1.553,4.34,3.617c0.024,2.065-1.7,3.589-4.245,3.753c-4.052,0.261-4.051,0.261-4.083,4.414
		c-0.032,4.332-0.037,8.663-0.109,12.994c-0.047,2.8-1.701,4.665-3.998,4.646c-2.196-0.018-3.818-1.875-3.864-4.581
		c-0.087-5.159-0.148-10.319-0.139-15.478c0.002-1.364-0.383-2.02-1.838-1.922c-0.947,0.063-1.91-0.033-2.861-0.11
		c-2.54-0.206-4.096-1.612-4.092-3.659c0.004-2.104,1.743-3.653,4.265-3.694c2.802-0.044,5.605-0.01,8.408-0.01
		C106.914,7.775,106.914,7.782,106.914,7.789z"/>
	<path fill-rule="evenodd" clip-rule="evenodd" fill="#FFFFFF" d="M131.45,22.77c0,3.31,0.051,6.621-0.016,9.93
		c-0.056,2.832-1.796,4.501-4.551,4.54c-2.682,0.038-4.594-1.72-4.617-4.492c-0.056-6.619-0.054-13.24,0.01-19.859
		c0.028-2.927,1.712-4.561,4.46-4.604c2.91-0.046,4.592,1.518,4.67,4.557c0.084,3.308,0.019,6.619,0.019,9.929
		C131.434,22.77,131.442,22.77,131.45,22.77z"/>
</g>
</svg>
