<?xml version="1.0" encoding="utf-8"?>
<!-- Generator: Adobe Illustrator 16.0.0, SVG Export Plug-In . SVG Version: 6.00 Build 0)  -->
<!DOCTYPE svg PUBLIC "-//W3C//DTD SVG 1.1//EN" "http://www.w3.org/Graphics/SVG/1.1/DTD/svg11.dtd">
<svg version="1.1" id="Layer_1" xmlns="http://www.w3.org/2000/svg" xmlns:xlink="http://www.w3.org/1999/xlink" x="0px" y="0px"
	 width="300px" height="163.334px" viewBox="0 0 300 163.334" enable-background="new 0 0 300 163.334" xml:space="preserve">
<g>
	<path fill-rule="evenodd" clip-rule="evenodd" fill="#FFFFFF" d="M138.055,81.613c0,1.841,0,3.417,0,4.993
		c0.101,0.039,0.202,0.078,0.303,0.116c0.203-0.294,0.409-0.586,0.606-0.884c1.282-1.931,2.59-3.845,3.827-5.804
		c0.404-0.64,0.788-0.745,1.456-0.458c1.165,0.499,2.362,0.921,3.865,1.499c-0.791-1.733-1.414-3.213-2.137-4.643
		c-0.42-0.832-0.399-1.522,0.06-2.337c1.267-2.247,2.457-4.535,3.594-6.883c-3.347,4.448-7.161,8.386-12.082,11.522
		c0-0.863,0-1.535,0-2.207c-1.673,2.627-3.734,4.655-6.499,5.949c-2.45,1.147-5.032,1.633-7.697,1.317
		c-3.813-0.451-7.575-0.158-11.338,0.434c-1.091,0.172-2.188,0.314-3.596,0.515c0.481-1.278,0.792-2.377,1.292-3.382
		c2.724-5.458,6.993-9.576,11.685-13.314c0.75-0.597,1.498-1.229,2.337-1.672c1.601-0.847,2.485-2.19,3.006-3.845
		c1.287-4.09,2.99-7.985,5.279-11.625c0.658-1.046,1.409-1.919,2.543-2.434c4.356-1.978,8.735-3.911,13.055-5.966
		c1.302-0.62,2.636-1.395,3.624-2.418c4.246-4.397,8.367-8.917,12.543-13.382c0.621-0.664,1.252-1.503,2.33-0.956
		c1.146,0.582,2.506,0.998,2.693,2.596c0.056,0.469,0.109,0.939,0.177,1.512c-0.521,0.096-0.971,0.178-1.328,0.243
		c-0.354-0.803-0.539-1.603-1.011-2.161c-0.307-0.362-1.029-0.373-1.38-0.482c0.26,0.811,0.499,1.559,0.739,2.307
		c-0.743,0.084-1.486,0.168-2.448,0.277c-0.016,0.178-0.062,0.709-0.106,1.22c1.752,0.72,3.625,0.835,5.693-0.049
		c3.106,4.024,5.213,8.294,3.348,13.881c-0.768-2.588-1.424-4.869-2.128-7.134c-0.204-0.656-0.546-1.269-0.825-1.901
		c-0.171,0.007-0.342,0.014-0.513,0.021c-0.236,1.485-0.64,2.966-0.667,4.455c-0.037,1.972,0.036,3.922-1.014,5.692
		c-0.211,0.357-0.508,0.663-0.901,1.167c-0.148-1.121-0.265-1.995-0.381-2.869c-3.561,4.155-6.72,8.408-6.157,14.453
		c0.538-0.252,1.02-0.363,1.346-0.65c2.219-1.951,4.443-3.897,6.568-5.948c0.482-0.465,0.576-1.333,0.863-2.051
		c0.739,0.229,1.057,1.854,2.139,0.92c0.585-0.505,0.805-1.432,1.257-2.296c0.192,0.214,0.464,0.46,0.663,0.754
		c0.314,0.463,0.408,1.175,1.28,0.882c0.1-0.033,0.444,0.39,0.537,0.651c0.673,1.901,0.661,3.627-0.671,5.395
		c-3.148,4.18-6.037,8.556-9.193,12.731c-4.425,5.854-6.195,12.439-5.792,19.669c0.117,2.097,0.478,4.18,0.744,6.424
		c-2.586-1.162-5.21-2.34-8.01-3.599c-0.166,2.145-0.323,4.168-0.497,6.421c-2.644-1.994-5.026-3.792-7.51-5.667
		c-1.207,1.676-2.365,3.283-3.597,4.993c-0.741-0.7-1.424-1.344-2.106-1.99c-2.252-2.131-4.888-3.137-8.029-3.135
		C91.938,92.511,53.983,92.5,16.028,92.5c-0.875,0-1.749,0-2.623,0c-0.001-0.068-0.002-0.135-0.003-0.203
		c2.73-0.188,5.46-0.389,8.191-0.562c8.691-0.55,17.381-1.11,26.074-1.627c6.34-0.377,12.685-0.688,19.027-1.04
		c8.057-0.448,16.112-0.933,24.17-1.357c6.145-0.323,12.293-0.581,18.439-0.861c6.145-0.28,12.292-0.526,18.435-0.838
		c3.003-0.152,5.601-1.476,8.091-3.04C136.491,82.557,137.162,82.158,138.055,81.613z M125.458,74.692
		c0.795-2.068,1.517-3.944,2.336-6.073c-5.232,3.308-9.941,6.725-12.979,11.875c4.064,0,8.068,0,12.38,0
		c-0.998-0.713-1.711-1.224-2.603-1.861c2.106-0.549,3.95-1.03,5.989-1.561C128.757,76.224,127.175,75.489,125.458,74.692z
		 M149.524,84.379c0.093-0.078,0.186-0.157,0.278-0.235c2.25,2.423,4.5,4.847,6.75,7.271c-1.329-9.034,0.632-17.202,5.871-24.617
		c-5.793,5.379-8.682,11.92-8.053,20.015C152.619,85.933,151.072,85.156,149.524,84.379z M137.312,55.671
		c0.863-1.465,2.117-1.891,3.532-2.191c0.579-0.123,1.233-0.777,1.491-1.353c0.621-1.39,1.028-2.875,1.516-4.305
		c-2.82-0.168-5.563,0.877-6.648,2.641c0.162,0.397,0.273,0.803,0.186,1.162C137.086,52.88,136.448,54.104,137.312,55.671z
		 M148.657,93.715c0.151-1.184,0.283-2.101,0.374-3.022c0.016-0.166-0.086-0.428-0.217-0.509c-1.706-1.06-3.426-2.096-5.143-3.137
		c-0.042,0.062-0.084,0.124-0.126,0.185C145.188,89.315,146.831,91.399,148.657,93.715z M140.271,90.513
		c-0.888-0.477-1.605-0.863-2.527-1.358c0.311,1.255,0.562,2.266,0.862,3.476C139.213,91.857,139.694,91.245,140.271,90.513z"/>
	<path fill-rule="evenodd" clip-rule="evenodd" fill="#FFFFFF" d="M14.302,148.381c90.45,0,180.901,0,271.351,0
		c0.002,0.055,0.004,0.11,0.006,0.166c-2.648,0.113-5.298,0.226-7.946,0.344c-8.74,0.387-17.48,0.791-26.223,1.162
		s-17.486,0.718-26.229,1.059c-10.66,0.415-21.319,0.841-31.981,1.209c-8.147,0.28-16.296,0.531-24.445,0.697
		c-7.675,0.156-15.353,0.305-23.027,0.238c-9.752-0.084-19.503-0.354-29.253-0.606c-6.79-0.177-13.578-0.433-20.366-0.696
		c-11.059-0.431-22.115-0.898-33.173-1.348c-8.624-0.351-17.249-0.689-25.872-1.049c-7.346-0.307-14.69-0.635-22.035-0.955
		c-0.271-0.012-0.541-0.037-0.811-0.055C14.299,148.491,14.3,148.436,14.302,148.381z"/>
	<path fill-rule="evenodd" clip-rule="evenodd" fill="#FFFFFF" d="M17.328,140.179c0-13.529,0-26.95,0-40.458
		c9.461,0,18.873,0,28.448,0c-0.264,0.613-0.472,1.159-0.727,1.681c-0.929,1.901-1.916,3.775-2.792,5.7
		c-0.369,0.811-0.839,1.094-1.725,1.085c-4.473-0.042-8.946-0.02-13.42-0.02c-0.43,0-0.86,0-1.375,0c0,2.482,0,4.82,0,7.306
		c0.472,0.021,0.934,0.06,1.396,0.06c3.438,0.005,6.877,0.027,10.315-0.013c0.879-0.01,1.198,0.255,1.18,1.156
		c-0.049,2.429-0.017,4.861-0.017,7.436c-4.342,0-8.554,0-12.862,0c0,2.591,0,5.036,0,7.626c0.5,0,0.929,0,1.358,0
		c4.477,0,8.955,0.02,13.432-0.018c0.787-0.006,1.214,0.219,1.56,0.948c1.175,2.477,2.429,4.916,3.723,7.509
		C36.247,140.179,26.847,140.179,17.328,140.179z"/>
	<path fill-rule="evenodd" clip-rule="evenodd" fill="#FFFFFF" d="M63.409,140.269c-2.505,0-4.817,0.002-7.13-0.003
		c-0.311-0.001-0.622-0.041-1.004-0.067c0-12.592,0-25.128,0-37.776c0.47-0.026,0.897-0.07,1.325-0.071
		c4.92-0.005,9.84-0.038,14.759,0.017c1.591,0.018,3.209,0.12,4.762,0.438c4.572,0.938,7.231,3.844,8.103,8.384
		c0.574,2.994,0.342,5.978-0.448,8.904c-0.74,2.743-2.467,4.703-5.209,5.918c1.864,4.721,3.701,9.375,5.628,14.256
		c-2.008,0-3.823,0-5.638,0c-2.997,0-2.984-0.005-4.081-2.792c-2.147-5.457-4.312-10.907-6.467-16.361
		c-0.099-0.251-0.175-0.512-0.362-1.065c1.41,0,2.667,0.01,3.923-0.002c5.112-0.047,5.401-4.299,4.259-7.489
		c-0.38-1.061-1.305-1.587-2.387-1.786c-0.389-0.071-0.797-0.049-1.196-0.05c-2.909-0.003-5.817-0.001-8.835-0.001
		C63.409,120.592,63.409,130.334,63.409,140.269z"/>
	<path fill-rule="evenodd" clip-rule="evenodd" fill="#FFFFFF" d="M212.51,121.228c0,3.153,0.303,6.342-0.066,9.451
		c-0.684,5.763-4.373,9.087-10.258,9.451c-3.1,0.191-6.246,0.185-9.336-0.112c-5.803-0.559-9.547-4.583-9.703-10.414
		c-0.151-5.591-0.162-11.193,0.006-16.783c0.18-6.036,4.339-10.169,10.477-10.482c3.183-0.162,6.414-0.184,9.57,0.18
		c5.771,0.666,9.4,4.971,9.464,10.795c0.028,2.638,0.005,5.275,0.005,7.913C212.615,121.228,212.563,121.228,212.51,121.228z
		 M204.521,121.287c-0.001,0-0.002,0-0.003,0c0-2.598,0.029-5.196-0.011-7.793c-0.027-1.802-0.812-2.698-2.583-2.794
		c-2.311-0.124-4.63-0.142-6.944-0.121c-2.977,0.028-3.829,0.928-3.837,3.911c-0.009,2.997-0.011,5.995,0.002,8.992
		c0.009,1.876-0.057,3.762,0.104,5.626c0.175,2.024,1.019,2.71,3.052,2.737c2.397,0.033,4.796,0.034,7.193,0
		c2.139-0.031,3.004-0.937,3.021-3.124C204.537,126.243,204.521,123.765,204.521,121.287z"/>
	<path fill-rule="evenodd" clip-rule="evenodd" fill="#FFFFFF" d="M116.164,127.625c0.927,0.743,1.865,1.428,2.727,2.197
		c3.131,2.793,6.75,3.466,10.722,2.449c2.181-0.558,3.366-2.053,3.391-3.944c0.017-1.303-0.511-2.348-1.714-2.751
		c-1.536-0.516-3.149-0.805-4.739-1.148c-2.063-0.445-4.203-0.646-6.189-1.312c-4.097-1.374-6.806-4.137-7.319-8.598
		c-0.542-4.721,1.33-8.369,5.34-10.834c6.291-3.867,16.657-2.45,21.883,3c-1.659,2.329-3.336,4.683-5.056,7.097
		c-0.734-0.651-1.353-1.262-2.033-1.792c-2.716-2.119-5.785-2.542-9.059-1.748c-0.604,0.146-1.204,0.45-1.715,0.809
		c-1.761,1.241-1.614,3.399,0.402,4.106c1.632,0.572,3.415,0.722,5.136,1.028c1.688,0.301,3.416,0.432,5.066,0.866
		c6.123,1.611,8.785,6.759,8.258,12.373c-0.656,6.985-5.301,11.178-12.37,11.572c-5.06,0.282-9.803-0.554-13.946-3.638
		c-1.045-0.778-1.928-1.787-2.822-2.748c-0.21-0.226-0.349-0.817-0.207-1.025C113.386,131.45,114.917,129.36,116.164,127.625z"/>
	<path fill-rule="evenodd" clip-rule="evenodd" fill="#FFFFFF" d="M119.695,18.338c2.096-1.625,4.093-3.4,6.304-4.85
		c9.248-6.064,19.426-8.537,30.433-7.491c9.461,0.899,17.748,4.487,24.582,11.15c5.937,5.788,9.51,12.868,10.816,21.036
		c2.065,12.912-1.222,24.517-8.825,35.012c-0.126,0.174-0.288,0.323-0.581,0.386c0.18-0.33,0.35-0.667,0.542-0.99
		c3.874-6.515,5.898-13.599,5.546-21.137c-0.748-16.021-8.424-27.923-22.332-35.758c-7.123-4.013-14.904-5.659-23.053-5.243
		c-8.194,0.418-15.707,2.998-22.463,7.7c-0.242,0.168-0.492,0.327-0.738,0.489C119.848,18.541,119.771,18.439,119.695,18.338z"/>
	<path fill-rule="evenodd" clip-rule="evenodd" fill="#FFFFFF" d="M222.633,102.466c8.639,0,17.246,0,26.048,0
		c-1.315,2.651-2.544,5.187-3.851,7.682c-0.137,0.262-0.727,0.395-1.111,0.402c-3.836,0.064-7.674,0.09-11.512,0.125
		c-0.467,0.004-0.935,0-1.47,0c0,2.054,0,3.956,0,6.018c3.511,0,7.006,0,10.649,0c-0.129,0.433-0.168,0.695-0.281,0.921
		c-1.132,2.247-2.301,4.475-3.398,6.737c-0.293,0.604-0.65,0.796-1.292,0.783c-1.868-0.037-3.739-0.013-5.724-0.013
		c0,5.066,0,10.008,0,15.048c-2.729,0-5.344,0-8.059,0C222.633,127.679,222.633,115.18,222.633,102.466z"/>
	<path fill-rule="evenodd" clip-rule="evenodd" fill="#FFFFFF" d="M264.356,125.122c0,5.107,0,10.048,0,15.067
		c-2.696,0-5.277,0-7.983,0c0-12.503,0-25.025,0-37.694c8.578,0,17.18,0,25.945,0c-0.321,0.674-0.619,1.303-0.922,1.929
		c-0.539,1.112-1.074,2.227-1.625,3.333c-1.428,2.871-1.431,2.887-4.684,2.913c-3.078,0.024-6.156,0.006-9.234,0.007
		c-0.436,0-0.87,0-1.402,0c0,2.036,0,3.966,0,6.057c3.534,0,7.024,0,10.807,0c-0.768,1.5-1.405,2.763-2.057,4.018
		c-0.734,1.414-1.148,3.351-2.315,4.083c-1.159,0.728-3.081,0.246-4.669,0.286C265.66,125.133,265.104,125.122,264.356,125.122z"/>
	<path fill-rule="evenodd" clip-rule="evenodd" fill="#FFFFFF" d="M175.448,110.69c-3.588,0-6.887,0-10.347,0
		c0,9.918,0,19.685,0,29.514c-2.786,0-5.407,0-8.184,0c0-9.793,0-19.559,0-29.482c-3.49,0-6.827,0-10.289,0
		c0.074-0.429,0.085-0.694,0.166-0.937c0.718-2.156,1.474-4.3,2.161-6.466c0.204-0.643,0.511-0.874,1.188-0.872
		c7.195,0.021,14.392,0.019,21.587,0.002c0.646-0.001,0.988,0.158,1.203,0.836C173.692,105.668,174.535,108.024,175.448,110.69z"/>
	<path fill-rule="evenodd" clip-rule="evenodd" fill="#FFFFFF" d="M286.66,92.267c-0.697,0-1.394-0.001-2.09,0
		c-14.115,0.02-28.23,0.033-42.346,0.062c-25.551,0.052-51.101,0.105-76.65,0.201c-1.207,0.004-1.734-0.317-1.811-1.526
		c-0.059-0.937-0.283-1.863-0.463-2.981C204.541,88.906,245.627,89.608,286.66,92.267z"/>
	<path fill-rule="evenodd" clip-rule="evenodd" fill="#FFFFFF" d="M102.524,102.436c0,12.622,0,25.157,0,37.762
		c-2.677,0-5.291,0-7.972,0c0-12.604,0-25.139,0-37.762C97.229,102.436,99.841,102.436,102.524,102.436z"/>
	<path fill-rule="evenodd" clip-rule="evenodd" fill="#FFFFFF" d="M202.905,74.623c-0.655-1.326-0.261-2.139,1.635-2.385
		c0.735-0.095,1.517-0.068,2.246,0.069c1.215,0.229,1.576,1.035,1.194,2.232c-0.076,0.243-0.003,0.632,0.154,0.833
		c0.832,1.068,0.58,2.307-0.738,2.63c-1.055,0.259-2.222,0.306-3.294,0.147c-0.639-0.094-1.464-0.654-1.702-1.217
		C202.186,76.423,202.655,75.625,202.905,74.623z M207.477,76.506c-1.077-1.194-3.09-1.169-4.07-0.011
		C204.411,77.375,206.282,77.405,207.477,76.506z M203.832,73.865c0.941,0.866,2.337,0.835,3.124-0.069
		C206.024,73.04,204.676,73.07,203.832,73.865z"/>
	<path fill-rule="evenodd" clip-rule="evenodd" fill="#FFFFFF" d="M222.514,74.707c1.351,0,2.66-0.133,3.917,0.066
		c0.501,0.079,1.179,0.859,1.238,1.381c0.058,0.513-0.437,1.299-0.919,1.62c-1.256,0.835-2.665,0.737-4,0.098
		c-1.018-0.488-1.543-1.319-1.553-2.492c-0.01-1.421,0.684-2.345,1.926-2.892c1.379-0.608,2.739-0.466,3.983,0.349
		c0.177,0.116,0.071,0.666,0.104,1.106C224.244,72.926,223.214,73.144,222.514,74.707z M222.639,76.242
		c1.182,1.235,2.956,1.25,3.9,0.084C225.676,75.34,224.357,75.294,222.639,76.242z"/>
	<path fill-rule="evenodd" clip-rule="evenodd" fill="#FFFFFF" d="M218.446,75.256c0.001,1.943-1.258,3.062-3.447,3.064
		c-2.124,0.002-3.496-1.208-3.491-3.081c0.004-1.823,1.482-3.14,3.508-3.126C217.099,72.126,218.445,73.36,218.446,75.256z
		 M215.018,73.282c-1.408-0.003-2.359,0.797-2.346,1.974c0.014,1.154,0.902,1.904,2.271,1.918c1.415,0.014,2.432-0.774,2.451-1.901
		C217.414,74.163,216.365,73.285,215.018,73.282z"/>
	<path fill-rule="evenodd" clip-rule="evenodd" fill="#FFFFFF" d="M93.153,70.628c1.02,0,1.938-0.063,2.844,0.013
		c1.775,0.149,2.771,1.355,2.697,3.159c-0.067,1.655-1.237,2.796-2.934,2.837c-0.832,0.021-1.666,0.003-2.606,0.003
		C93.153,74.632,93.153,72.708,93.153,70.628z M94.113,75.633c1.282-0.077,2.662,0.417,3.261-1.004
		c0.264-0.625,0.24-1.654-0.114-2.2c-0.723-1.113-1.982-0.811-3.147-0.733C94.113,73.028,94.113,74.247,94.113,75.633z"/>
	<path fill-rule="evenodd" clip-rule="evenodd" fill="#FFFFFF" d="M81.759,71.657c-0.613,0.102-0.961,0.217-1.306,0.206
		c-0.736-0.024-1.475-0.18-2.205-0.141c-0.236,0.013-0.449,0.465-0.672,0.716c0.271,0.181,0.523,0.47,0.816,0.52
		c0.702,0.12,1.434,0.064,2.132,0.195c0.816,0.152,1.345,0.657,1.406,1.549c0.06,0.886-0.398,1.416-1.161,1.755
		c-1.449,0.645-3.375,0.264-4.82-1.231c0.688,0,1.067-0.035,1.437,0.007c0.924,0.105,1.843,0.309,2.767,0.331
		c0.239,0.006,0.684-0.513,0.68-0.784c-0.004-0.25-0.453-0.639-0.763-0.708c-0.574-0.125-1.191-0.036-1.787-0.083
		c-0.862-0.068-1.583-0.401-1.723-1.353c-0.135-0.924,0.385-1.493,1.204-1.836C78.97,70.295,80.303,70.508,81.759,71.657z"/>
	<path fill-rule="evenodd" clip-rule="evenodd" fill="#FFFFFF" d="M69.295,71.627c0,0.495,0,0.871,0,1.39
		c0.485,0,0.927-0.065,1.335,0.026c0.226,0.05,0.394,0.361,0.588,0.555c-0.197,0.143-0.379,0.372-0.594,0.409
		c-0.387,0.066-0.793,0.019-1.296,0.019c0,0.507,0,0.96,0,1.607c0.622,0,1.282,0,1.943,0c0.632,0,1.264,0,1.896,0
		c0.074,0.108,0.148,0.216,0.222,0.324c-0.227,0.226-0.446,0.638-0.683,0.647c-1.431,0.061-2.866,0.031-4.488,0.031
		c0-1.878-0.019-3.662,0.027-5.444c0.005-0.195,0.375-0.536,0.587-0.545c1.237-0.053,2.479-0.053,3.716-0.006
		c0.224,0.009,0.437,0.315,0.654,0.485c-0.25,0.167-0.493,0.466-0.751,0.48C71.424,71.66,70.392,71.627,69.295,71.627z"/>
	<path fill-rule="evenodd" clip-rule="evenodd" fill="#FFFFFF" d="M276.349,139.73c0.024,1.651-1.208,2.915-2.835,2.909
		c-1.586-0.005-2.814-1.207-2.842-2.781c-0.028-1.637,1.209-2.917,2.832-2.931C275.035,136.914,276.326,138.186,276.349,139.73z
		 M273.553,141.889c1.188-0.016,2.122-0.949,2.113-2.111c-0.008-1.127-1.016-2.14-2.135-2.145c-1.152-0.005-2.258,1.113-2.203,2.227
		C271.385,141.025,272.35,141.904,273.553,141.889z"/>
	<path fill-rule="evenodd" clip-rule="evenodd" fill="#FFFFFF" d="M87.713,71.628c0,1.426,0.03,2.773-0.023,4.118
		c-0.012,0.296-0.32,0.582-0.491,0.872c-0.167-0.303-0.466-0.6-0.479-0.909c-0.054-1.307-0.023-2.618-0.023-4.006
		c-0.699-0.048-1.279-0.087-1.88-0.128c-0.267-0.708-0.025-0.975,0.673-0.964c1.158,0.017,2.317-0.033,3.472,0.032
		c0.279,0.016,0.54,0.367,0.809,0.564c-0.276,0.141-0.54,0.345-0.833,0.406C88.597,71.683,88.23,71.628,87.713,71.628z"/>
	<path fill-rule="evenodd" clip-rule="evenodd" fill="#FFFFFF" d="M198.334,75.283c-0.002,0.76,0.029,1.521-0.021,2.278
		c-0.014,0.199-0.278,0.38-0.428,0.57c-0.2-0.183-0.568-0.36-0.574-0.548c-0.045-1.598-0.04-3.198-0.001-4.797
		c0.005-0.17,0.321-0.333,0.493-0.5c0.178,0.2,0.492,0.388,0.508,0.6C198.372,73.681,198.336,74.483,198.334,75.283z"/>
	<path fill-rule="evenodd" clip-rule="evenodd" fill="#FFFFFF" d="M274.341,141.466c-0.302-0.502-0.604-1.004-1.005-1.67
		c-0.192,0.638-0.305,1.013-0.418,1.388c-0.094-0.005-0.186-0.01-0.279-0.014c0-0.913,0-1.825,0-3.016
		c0.738,0.184,1.454,0.292,2.082,0.587c0.107,0.05-0.158,0.897-0.49,1.348c0.168,0.338,0.336,0.676,0.504,1.013
		C274.604,141.225,274.473,141.346,274.341,141.466z"/>
</g>
</svg>
