<?xml version="1.0" encoding="utf-8"?>
<!-- Generator: Adobe Illustrator 16.0.0, SVG Export Plug-In . SVG Version: 6.00 Build 0)  -->
<!DOCTYPE svg PUBLIC "-//W3C//DTD SVG 1.1//EN" "http://www.w3.org/Graphics/SVG/1.1/DTD/svg11.dtd">
<svg version="1.1" id="Layer_1" xmlns="http://www.w3.org/2000/svg" xmlns:xlink="http://www.w3.org/1999/xlink" x="0px" y="0px"
	 width="140px" height="145.3px" viewBox="0 0 140 145.3" style="enable-background:new 0 0 140 145.3;" xml:space="preserve">
<style type="text/css">

	.st0{fill-rule:evenodd;clip-rule:evenodd;fill:#666666;}
	.st1{fill-rule:evenodd;clip-rule:evenodd;fill:#CCCCCC;}

</style>
<g>
	<path class="st0" d="M3.7,3.3c0,45.6,0,91,0,137c44.6,0,89,0,134,0c0-46,0-91.4,0-137C92.7,3.3,48.3,3.3,3.7,3.3z"/>
	<g>
		<path class="st1" d="M62.4,61.3c0-6.1,0.1-12.2,0.1-18.3c0-3.3-1.1-6.4-3.3-9c-3.7-4.4-8.4-2.9-13.4-3.1c0,3.3,0,6.5,0,9.7
			c1,0,1.2,0,1.6,0c2.9,0,3.8,0.8,4,3.6c0.1,0.6,0.1,1.2,0.1,1.7c0,6,0,12,0.1,18c0.1,3.3,1.9,5.5,5,6.7c0.5,0.2,1.1,0.4,1.8,0.6
			c-4.6,1-6.6,3.3-6.8,7.9c-0.1,4.5,0,9.1-0.1,13.6c0,2.3,0,4.6-0.2,6.9c-0.1,1.9-1.1,2.7-3,2.8c-0.8,0.1-1.6,0-2.6,0
			c0,3.3,0,6.4,0,9.7c2,0,4.5,0,6.7,0c2.2,0,4.2-0.7,5.8-2.1c3-2.6,4.3-6,4.3-9.8c0-5.3,0-10.6,0-15.9c0-1.8,0-3.6,0.1-5.3
			c0.2-2.3,1.4-3.5,3.7-3.6c0.5,0,0.4-0.1,1.4-0.1c0-1.5,0-2.8,0-4.1c0-1.4,0-2.7,0-4.1C62.7,66.7,62.4,66.2,62.4,61.3z"/>
		<path class="st1" d="M93.3,102.7c-1.9-0.2-2.8-0.9-2.9-2.8c-0.1-2.3-0.1-4.6-0.1-6.9c0-4.5,0.1-9.1-0.1-13.6
			c-0.2-4.6-2.2-6.9-6.8-7.9c0.7-0.2,1.2-0.4,1.8-0.6c3.1-1.2,5-3.4,5-6.7c0.1-6,0.1-12,0.1-18c0-0.6,0-1.2,0-1.7
			c0.3-2.9,1.1-3.6,4-3.6c0.4,0,0.4,0,1.4,0c0-3.2,0-6.4,0-9.7c-5,0.2-9.6-1.3-13.3,3.1c-2.2,2.6-3.2,5.6-3.2,9
			c0,6.1-0.1,12.2-0.1,18.3c0,4.8-0.5,5.4-5.5,5.9c0,1.3,0,2.7,0,4.1c0,1.3,0,2.7,0,4.1c1,0,1.1,0.1,1.6,0.1
			c2.3,0.1,3.7,1.3,3.9,3.6c0.1,1.8,0.1,3.6,0.1,5.3c0,5.3,0,10.6,0,15.9c0,3.9,1.2,7.3,4.3,9.8c1.7,1.4,3.5,2.2,5.7,2.1
			c2.1,0,4.5,0,6.5,0c0-3.3,0-6.4,0-9.7C94.7,102.7,94.1,102.7,93.3,102.7z"/>
	</g>
</g>
</svg>
