<?xml version="1.0" encoding="utf-8"?>
<!-- Generator: Adobe Illustrator 16.0.0, SVG Export Plug-In . SVG Version: 6.00 Build 0)  -->
<!DOCTYPE svg PUBLIC "-//W3C//DTD SVG 1.1//EN" "http://www.w3.org/Graphics/SVG/1.1/DTD/svg11.dtd">
<svg version="1.1" id="Layer_1" xmlns="http://www.w3.org/2000/svg" xmlns:xlink="http://www.w3.org/1999/xlink" x="0px" y="0px"
	 width="151.667px" height="144px" viewBox="0 0 151.667 144" enable-background="new 0 0 151.667 144" xml:space="preserve">
<path fill-rule="evenodd" clip-rule="evenodd" fill="#FFFFFF" d="M139.109,136.851v-3.023c0.397-0.072,0.757-0.217,1.116-0.396
	c0.577-0.359,1.008-0.756,1.225-1.224c0.252-0.468,0.36-1.081,0.36-1.837v-0.972c-0.828,0.288-1.691,0.577-2.592,0.792l-0.109,0.035
	v-3.023c0.217-0.035,0.433-0.072,0.577-0.143c0.684-0.182,1.368-0.396,2.124-0.721c0-0.721-0.145-1.261-0.433-1.549
	c-0.323-0.288-0.864-0.468-1.656-0.468c-0.215,0-0.431,0.036-0.612,0.036v-3.636c1.729,0.036,3.134,0.107,4.214,0.323
	c1.115,0.182,2.015,0.613,2.771,1.261c0.504,0.468,0.899,1.079,1.223,1.908c0.289,0.827,0.433,1.583,0.433,2.341v6.982
	c0,0.756,0.037,1.333,0.145,1.766c0.107,0.395,0.288,0.936,0.612,1.619h-5.688c-0.217-0.432-0.36-0.721-0.433-0.936
	c-0.072-0.216-0.143-0.541-0.215-1.008c-0.793,0.756-1.584,1.295-2.377,1.619C139.578,136.707,139.326,136.778,139.109,136.851"/>
<path fill-rule="evenodd" clip-rule="evenodd" fill="#FFFFFF" d="M139.109,120.723v3.636c-0.684,0.072-1.224,0.216-1.618,0.469
	c-0.361,0.251-0.686,0.719-0.937,1.403l-5.76-0.612c0.216-1.008,0.504-1.836,0.936-2.412c0.396-0.576,1.007-1.08,1.764-1.512
	c0.576-0.288,1.332-0.539,2.305-0.721c0.973-0.144,2.016-0.251,3.167-0.251H139.109z"/>
<path fill-rule="evenodd" clip-rule="evenodd" fill="#FFFFFF" d="M139.109,127.202v3.023c-1.187,0.325-1.907,0.613-2.23,0.937
	c-0.324,0.325-0.505,0.685-0.505,1.117c0,0.468,0.181,0.864,0.505,1.188c0.323,0.287,0.827,0.432,1.476,0.432
	c0.252,0,0.504-0.036,0.755-0.072v3.023c-0.899,0.288-1.942,0.433-3.059,0.433c-1.873,0-3.313-0.468-4.284-1.333
	c-0.972-0.863-1.477-1.943-1.477-3.239c0-1.188,0.36-2.16,1.08-2.952c0.684-0.756,1.981-1.332,3.889-1.728
	C137.022,127.671,138.282,127.419,139.109,127.202z"/>
<path fill-rule="evenodd" clip-rule="evenodd" fill="#FFFFFF" d="M54.405,136.851v-3.023c0.396-0.072,0.792-0.217,1.152-0.396
	c0.575-0.359,0.972-0.756,1.224-1.224s0.359-1.081,0.359-1.837c0-1.727-1.224-0.539-2.591-0.18l-0.145,0.035v-3.023
	c0.252-0.035,0.433-0.072,0.611-0.143c0.648-0.182,1.368-0.396,2.124-0.721c0-0.721-0.144-1.261-0.468-1.549
	c-0.288-0.288-0.828-0.468-1.62-0.468c-0.215,0-0.432,0.036-0.647,0.036v-3.636c1.764,0.036,3.168,0.107,4.248,0.323
	c1.115,0.182,2.016,0.613,2.735,1.261c0.54,0.468,0.937,1.079,1.225,1.908c0.323,0.827,0.468,1.583,0.468,2.341v6.982
	c0,0.756,0.036,1.333,0.144,1.766c0.072,0.395,0.288,0.936,0.612,1.619h-5.688c-0.217-0.432-0.396-0.721-0.433-0.936
	c-0.071-0.216-0.144-0.541-0.216-1.008c-0.792,0.756-1.584,1.295-2.376,1.619C54.909,136.707,54.657,136.778,54.405,136.851z"/>
<path fill-rule="evenodd" clip-rule="evenodd" fill="#FFFFFF" d="M66.753,121.082h5.687v2.592c0.54-1.114,1.116-1.872,1.692-2.304
	c0.575-0.432,1.296-0.647,2.16-0.647c0.9,0,1.872,0.288,2.915,0.864l-1.871,4.32c-0.721-0.324-1.261-0.469-1.692-0.469
	c-0.792,0-1.404,0.324-1.836,0.973c-0.648,0.936-0.937,2.664-0.937,5.184v5.328h-6.118V121.082z"/>
<rect x="80.468" y="115.071" fill-rule="evenodd" clip-rule="evenodd" fill="#FFFFFF" width="6.012" height="4.14"/>
<rect x="80.468" y="121.082" fill-rule="evenodd" clip-rule="evenodd" fill="#FFFFFF" width="6.012" height="15.841"/>
<path fill-rule="evenodd" clip-rule="evenodd" fill="#FFFFFF" d="M90.369,121.082h5.65v2.592c0.829-1.044,1.692-1.799,2.557-2.268
	c0.864-0.433,1.908-0.684,3.169-0.684c1.654,0,2.987,0.505,3.923,1.512c0.936,1.009,1.404,2.521,1.404,4.608v10.08h-6.084v-8.712
	c0-0.972-0.181-1.692-0.541-2.088c-0.358-0.431-0.898-0.647-1.547-0.647c-0.72,0-1.332,0.287-1.801,0.863
	c-0.432,0.539-0.684,1.548-0.684,2.988v7.596h-6.047V121.082z"/>
<path fill-rule="evenodd" clip-rule="evenodd" fill="#FFFFFF" d="M110.708,115.071h6.047v8.063c0.828-0.864,1.656-1.476,2.448-1.837
	c0.827-0.396,1.8-0.575,2.916-0.575c1.656,0,2.952,0.505,3.887,1.512c0.936,1.009,1.404,2.556,1.404,4.608v10.08h-6.084v-8.712
	c0-0.972-0.18-1.692-0.54-2.088c-0.36-0.431-0.899-0.647-1.547-0.647c-0.721,0-1.333,0.287-1.801,0.863
	c-0.433,0.539-0.684,1.548-0.684,2.988v7.596h-6.047V115.071z"/>
<polygon fill-rule="evenodd" clip-rule="evenodd" fill="#FFFFFF" points="6.814,105.997 19.377,105.997 24.238,124.79 
	29.062,105.997 41.589,105.997 41.589,136.923 33.814,136.923 33.814,113.343 27.73,136.923 20.674,136.923 14.663,113.343 
	14.663,136.923 6.814,136.923 "/>
<path fill-rule="evenodd" clip-rule="evenodd" fill="#FFFFFF" d="M54.405,120.723v3.636c-0.648,0.072-1.188,0.216-1.584,0.469
	c-0.359,0.251-0.684,0.719-0.936,1.403l-5.796-0.612c0.216-1.008,0.54-1.836,0.972-2.412c0.396-0.576,0.973-1.08,1.765-1.512
	c0.539-0.288,1.331-0.539,2.304-0.721c0.972-0.144,2.016-0.251,3.131-0.251H54.405z"/>
<path fill-rule="evenodd" clip-rule="evenodd" fill="#FFFFFF" d="M54.405,127.202v3.023c-1.151,0.325-1.871,0.65-2.195,0.937
	c-0.36,0.325-0.504,0.685-0.504,1.117c0,0.468,0.144,0.864,0.504,1.188c0.324,0.287,0.792,0.432,1.439,0.432
	c0.288,0,0.54-0.036,0.756-0.072v3.023c-0.899,0.288-1.907,0.433-3.023,0.433c-1.872,0-3.312-0.468-4.284-1.333
	c-0.972-0.863-1.476-1.943-1.476-3.239c0-1.188,0.36-2.16,1.044-2.952c0.72-0.756,2.016-1.332,3.924-1.728
	C52.353,127.671,53.613,127.419,54.405,127.202"/>
<g>
	<path fill-rule="evenodd" clip-rule="evenodd" fill="#FFFFFF" d="M79.732,49.242c-6.346-0.608-13.538-1.298-21.567-2.18
		c1.398,6.189,2.025,11.862,2.025,17.091c0,22.12-11.174,36.287-22.206,48.032c4.863-1.596,9.547-3.057,14.05-4.383
		c41.226-12.143,67.354-13.02,77.774-2.593c0.227-6.31,0.377-11.847,0.377-16.708C130.185,54.077,122.601,53.351,79.732,49.242z
		 M124.474,87.001l-8.329-8.301c-3.521-1.147-8.197-1.844-13.031-2.151c-0.243,2.518-0.708,5.302-1.465,8.478l12.108,7.916
		l-3.692-0.482c-4.281-0.519-9.349-0.519-15.196,0c-4.006,0.355-7.415,0.849-10.287,1.314l-2.421,0.482l11.887-8.758
		c0.94-3.525,1.494-6.516,1.776-9.125c-6.239,0.097-11.887,0.827-14.667,2.068l-13.817,8.986c3.55-5.132,6.073-11.708,6.073-19.43
		c0-2.021-0.594-4.71-0.821-6.451l9.746,9.459c3.73-0.875,8.562-1.341,13.634-1.407c-0.212-2.894-0.762-5.297-1.307-7.661
		l-10.001-5.938c5.71,0.5,11.571,0.948,15.759,1.48c3.658,0.466,6.779,0.995,9.434,1.679c0.81,0.208,2.543,0.43,3.267,0.67
		l-10.801,3.174c0.444,2.189,0.786,4.391,0.932,6.777c4.267,0.267,8.412,0.811,11.934,1.643l5.127-6.566
		c3.223,4.004,4.163,10.178,4.163,20.14C124.477,85.339,124.476,86.651,124.474,87.001z"/>
	<path fill-rule="evenodd" clip-rule="evenodd" fill="#FFFFFF" d="M100.921,71.807c-0.002-3.858-0.485-6.521-1.077-9.372
		c-0.731-0.064-1.51-0.126-2.322-0.188c0.64,2.949,1.171,5.609,1.18,9.498c-6.309-0.106-12.007,0.327-16.723,1.296
		c-0.125,0.819-0.276,1.619-0.459,2.397c4.491-1.02,10.449-1.542,17.129-1.452c-0.157,3.32-0.708,7.192-1.831,11.855
		c0.792-0.057,1.566-0.104,2.325-0.145c0.005-0.016,0.014-0.033,0.019-0.049c1.042-4.505,1.555-8.313,1.707-11.61
		c5.673,0.192,10.403,0.832,15.085,1.989c-0.05-0.815-0.11-1.597-0.188-2.332C111.167,72.643,106.545,72.013,100.921,71.807z"/>
</g>
<g>
	<path fill-rule="evenodd" clip-rule="evenodd" fill="#FFFFFF" d="M90.913,26.789c-0.238-2.288-0.737-4.487-1.446-6.154
		c-0.571-0.112-1.149-0.207-1.733-0.287c0.77,1.378,1.366,3.666,1.668,6.133c-3.915-0.737-7.774-1.02-10.402-0.571
		c0.056,0.479,0.09,0.956,0.104,1.429c2.407-0.456,6.394-0.152,10.444,0.636c0.054,0.754,0.078,1.511,0.072,2.251
		c0.006,0.256,0.001,0.53-0.021,0.818c-0.065,1.531-0.281,2.95-0.675,4.071c0.489,0.039,0.978,0.088,1.463,0.157
		c0.588-1.908,0.781-4.439,0.645-6.988c3.896,0.869,7.67,2.153,9.964,3.603c0.017-0.51,0.006-1.086-0.06-1.699
		C98.422,28.834,94.718,27.615,90.913,26.789z"/>
	<path fill-rule="evenodd" clip-rule="evenodd" fill="#FFFFFF" d="M101.726,18.861C90.685,11.933,74.772,7.335,51.662,4.395
		c6.353,7.031,9.517,15.364,9.517,25.22c0,5.286-0.913,11.013-2.725,17.209c21.642-8.226,42.413-5.404,61.749,8.381
		c0.072-1.139,0.109-2.258,0.109-3.355C120.312,37.506,114.208,26.692,101.726,18.861z M106.576,39.355l-5.742-5.828
		c-1.731-1.321-4.903-2.503-8.346-3.383c-0.029,1.88-0.238,3.672-0.631,5.164c2.479,1.904,7.775,5.981,7.775,5.981l-2.896-0.964
		c-5.525-1.599-10.201-2.258-15.939-1.973H79.35c0,0,5.761-2.429,8.075-3.383c0.604-1.387,0.796-3.525,0.715-5.752
		c-3.854-0.665-7.44-0.87-9.174-0.391L71.014,36c1.216-4.56,1.898-11.788-0.857-18.488l8.79,6.948
		c2.382-0.377,5.468-0.239,8.684,0.245c-0.409-2.123-0.945-4.296-1.761-4.758l-6.788-5.172c5.869,0.709,11.707,2.348,16.881,5.081
		l-4.81,1.139c0.486,1.381,0.842,2.965,1.063,4.61c3.034,0.727,5.927,1.686,8.189,2.725l1.447-3.796
		c4.209,3.975,4.681,8.816,4.813,11.329C106.727,37.029,106.74,38.238,106.576,39.355z"/>
</g>
</svg>
