<?xml version="1.0" encoding="utf-8"?>
<!-- Generator: Adobe Illustrator 16.0.0, SVG Export Plug-In . SVG Version: 6.00 Build 0)  -->
<!DOCTYPE svg PUBLIC "-//W3C//DTD SVG 1.1//EN" "http://www.w3.org/Graphics/SVG/1.1/DTD/svg11.dtd">
<svg version="1.1" id="Layer_1" xmlns="http://www.w3.org/2000/svg" xmlns:xlink="http://www.w3.org/1999/xlink" x="0px" y="0px"
	 width="300px" height="66px" viewBox="0 0 300 66" enable-background="new 0 0 300 66" xml:space="preserve">
<g>
	<path fill-rule="evenodd" clip-rule="evenodd" fill="#FFFFFF" d="M38.981,3.218c-0.57-0.045-1.23,0.008-1.589,0.515
		C37.01,4.27,37.027,5.023,36.969,5.65c-0.202,2.154-0.539,4.294-0.837,6.436c-0.606,4.363-1.22,8.725-1.833,13.086
		c-0.492,3.503-0.983,7.006-1.473,10.509c-0.125-0.02-0.25-0.039-0.375-0.058c-1.943-3.941-3.717-7.971-5.554-11.962
		c-1.85-4.019-3.698-8.039-5.541-12.06c-0.921-2.011-1.842-4.023-2.76-6.035c-0.208-0.457-0.404-0.921-0.628-1.37
		c-0.14-0.282-0.314-0.563-0.581-0.743c-0.248-0.168-0.548-0.222-0.844-0.227c-0.541-0.009-1.085,0.035-1.625,0.045
		c-1.091,0.02-2.183,0.014-3.274-0.004c-0.51-0.008-1.022-0.033-1.532-0.029C9.802,3.24,9.473,3.292,9.228,3.495
		C9.013,3.672,8.9,3.938,8.837,4.203C8.716,4.713,8.673,5.25,8.595,5.768C8.431,6.861,8.262,7.954,8.091,9.047
		c-1.35,8.652-2.667,17.311-3.996,25.967c-0.515,3.355-1.03,6.71-1.545,10.066c1.099,0,2.198-0.021,3.297-0.022
		c0.523,0,1.046,0.004,1.569,0.017c0.45,0.011,0.925,0.08,1.371-0.006c0.588-0.112,0.841-0.566,0.932-1.121
		c0.16-0.981,0.197-1.991,0.323-2.979c0.556-4.345,1.204-8.681,1.813-13.019c0.703-5.005,1.414-10.008,2.143-15.009
		c0.782,0.518,1.097,1.27,1.487,2.089c0.475,0.995,0.949,1.991,1.424,2.986c0.95,1.99,1.9,3.98,2.849,5.971
		c1.899,3.981,3.795,7.963,5.683,11.95c0.943,1.993,1.885,3.988,2.823,5.983c0.609,1.295,1.134,3.116,2.831,3.208
		c0.437,0.023,0.876-0.047,1.313-0.073c0.551-0.033,1.103-0.045,1.655-0.039c0.509,0.005,1.019,0.026,1.526,0.062
		c0.396,0.027,0.795,0.079,1.19,0.01c0.553-0.096,0.912-0.456,1.092-0.978c0.3-0.867,0.33-1.859,0.461-2.762
		c1.26-8.684,2.642-17.35,4.006-26.017c0.634-4.027,1.272-8.055,1.906-12.082C42.407,3.249,40.685,3.353,38.981,3.218
		C37.45,3.096,40.685,3.353,38.981,3.218z"/>
	<path fill-rule="evenodd" clip-rule="evenodd" fill="#FFFFFF" d="M293.984,4.273c-2.086-0.551-4.213-0.923-6.346-1.234
		c-1.926-0.281-3.847-0.538-5.798-0.46c-3.6,0.145-7.054,1.333-9.964,3.46c-2.399,1.755-4.148,4.397-4.598,7.361
		c-0.226,1.487-0.098,3.022,0.426,4.437c0.616,1.663,1.744,2.997,3.051,4.167c2.894,2.591,6.438,4.213,9.534,6.514
		c1.39,1.032,3.086,2.357,3.511,4.125c0.403,1.677-0.577,3.351-1.698,4.528c-2.47,2.594-6.298,2.619-9.566,1.869
		c-1.925-0.441-3.766-1.176-5.565-1.978c-0.477-0.212-1.348-0.805-1.859-0.372c-0.263,0.223-0.363,0.59-0.476,0.901
		c-0.187,0.52-0.378,1.038-0.577,1.553c-0.305,0.793-0.625,1.58-0.965,2.359c-0.183,0.42-0.635,1.126-0.184,1.53
		c0.208,0.187,0.497,0.259,0.756,0.341c0.392,0.125,0.784,0.247,1.177,0.368c0.751,0.23,1.506,0.452,2.265,0.659
		c3.167,0.863,6.41,1.417,9.7,1.411c1.893,0.074,3.798-0.247,5.603-0.806c1.689-0.523,3.328-1.245,4.736-2.327
		c2.363-1.817,4.053-4.5,4.598-7.438c0.57-3.064-0.208-6.219-2.2-8.627c-2.331-2.819-5.813-4.233-8.815-6.179
		c-1.476-0.956-3.071-2.042-4.12-3.48c-0.94-1.29-1.054-2.895-0.383-4.337c1.171-2.515,4.256-3.694,6.881-3.698
		c1.638-0.002,3.326,0.321,4.904,0.735c0.859,0.225,1.705,0.5,2.53,0.827c0.414,0.164,0.824,0.341,1.229,0.531
		c0.291,0.137,0.612,0.327,0.946,0.297c0.56-0.049,0.683-0.872,0.81-1.288c0.275-0.903,0.551-1.807,0.852-2.703
		c0.15-0.447,0.307-0.893,0.473-1.334c0.096-0.251,0.186-0.522,0.183-0.794C295.025,4.619,294.459,4.398,293.984,4.273
		C291.261,3.554,295.077,4.561,293.984,4.273z"/>
	<path fill-rule="evenodd" clip-rule="evenodd" fill="#FFFFFF" d="M85.901,3.231c-4.412,0.027-8.825,0.038-13.237,0.032
		c-2.206-0.003-4.412-0.01-6.618-0.021c-0.529-0.003-1.059-0.006-1.589-0.009c-0.429-0.002-0.891-0.05-1.312,0.064
		c-0.595,0.162-0.755,0.721-0.838,1.269c-0.663,4.347-1.271,8.701-1.945,13.046c-0.668,4.308-1.346,8.613-2.026,12.918
		c-0.767,4.85-1.537,9.699-2.303,14.549c4.34,0,8.681,0,13.022-0.006c2.208-0.002,4.415-0.004,6.622,0
		c1.104,0.003,2.207,0.007,3.311,0.014c0.662,0.004,1.579,0.164,2.203-0.145c0.38-0.188,0.496-0.604,0.521-0.998
		c0.047-0.705,0.261-1.449,0.187-2.154c0.139-0.674,0.376-1.39,0.389-2.082c0.009-0.439-0.197-0.762-0.634-0.869
		c-0.686-0.167-1.489-0.043-2.188-0.036c-0.886,0.009-1.772,0.016-2.658,0.021c-3.5,0.022-6.999,0.021-10.498,0.035
		c-0.705-0.224-1.964,0.334-2.005-0.818c-0.015-0.422,0.102-0.846,0.179-1.257c0.104-0.556,0.207-1.113,0.308-1.67
		c0.193-1.071,0.379-2.144,0.553-3.218s0.334-2.15,0.478-3.229c0.077-0.577,0.076-1.439,0.698-1.729
		c0.254-0.118,0.549-0.133,0.824-0.134c0.56-0.002,1.12,0.011,1.679,0.015c1.105,0.007,2.21,0.008,3.315,0.007
		c2.209-0.001,4.419-0.008,6.629,0.013c0.53,0.005,1.266,0.068,1.541-0.504c0.15-0.312,0.137-0.667,0.159-1.003
		c0.036-0.553,0.128-1.1,0.234-1.643c0.148-0.753,0.487-1.637,0.366-2.415c-0.09-0.578-0.628-0.734-1.145-0.755
		c-1.063-0.042-2.141,0.036-3.206,0.037c-1.105,0.002-2.21-0.007-3.315-0.012c-1.104-0.005-2.209-0.007-3.314,0.009
		c-0.53,0.008-1.06,0.02-1.59,0.037c-0.325,0.01-0.676,0.009-0.982-0.112c-0.486-0.191-0.525-0.692-0.476-1.149
		c0.107-0.982,0.356-1.962,0.54-2.933c0.2-1.059,0.391-2.12,0.534-3.188c0.068-0.51,0.126-1.022,0.168-1.536
		c0.034-0.413,0.043-0.834,0.171-1.233c0.162-0.503,0.519-0.8,1.036-0.891c0.821-0.144,1.708-0.04,2.536-0.033
		c2.162,0.017,4.323,0.013,6.485,0.011c1.059-0.001,2.118-0.001,3.176,0.001c1.073,0.003,2.155,0.054,3.227,0.017
		c0.557-0.019,1.098-0.19,1.333-0.739c0.138-0.322,0.156-0.672,0.185-1.017c0.047-0.548,0.108-1.096,0.196-1.64
		c0.078-0.49,0.187-0.97,0.306-1.451c0.069-0.282,0.138-0.597,0.071-0.887C87.074,3.25,86.366,3.229,85.901,3.231
		C78.532,3.276,87.168,3.224,85.901,3.231z"/>
	<path fill-rule="evenodd" clip-rule="evenodd" fill="#FFFFFF" d="M204.848,3.221c-4.415,0.026-8.829,0.038-13.243,0.033
		c-2.207-0.002-4.414-0.009-6.621-0.021c-0.53-0.003-1.06-0.006-1.59-0.009c-0.435-0.003-0.898-0.05-1.323,0.07
		c-0.676,0.191-0.808,0.823-0.901,1.437c-1.33,8.695-2.733,17.379-4.04,26.078c-0.349,2.322-0.677,4.645-1.079,6.959
		c-0.404,2.326-0.807,4.662-0.893,7.025c0.193,0.135,0.264,0.256,0.515,0.257c0.266,0,0.531,0.001,0.797,0.001
		c0.576,0.001,1.152,0.002,1.728,0.003c1.107,0.002,2.215,0.003,3.322,0.005c2.215,0.003,4.43,0.005,6.645,0.007
		c2.216,0.002,4.431,0.005,6.646,0.009c1.107,0.002,2.215,0.004,3.322,0.007c0.519,0.001,1.047,0.031,1.564,0.001
		c0.349-0.021,0.655-0.177,0.813-0.497c0.154-0.312,0.164-0.683,0.203-1.021c0.059-0.513,0.107-1.027,0.155-1.541
		c0.047-0.515,0.092-1.029,0.142-1.543c0.035-0.358,0.119-0.745,0.043-1.104c-0.152-0.712-1.034-0.594-1.58-0.589
		c-1.058,0.01-2.114,0.018-3.172,0.024c-4.185,0.026-8.369,0.03-12.555,0.045c-0.849-0.08-0.539-0.862-0.439-1.451
		c0.182-1.078,0.366-2.155,0.546-3.234c0.179-1.078,0.352-2.157,0.509-3.239c0.146-1,0.193-2.048,0.418-3.033
		c0.125-0.548,0.424-0.943,0.994-1.052c0.359-0.068,0.73-0.045,1.094-0.041c0.571,0.008,1.143,0.013,1.714,0.016
		c2.198,0.012,4.396-0.005,6.595,0.001c0.98,0.003,1.964,0.044,2.944,0.023c0.539-0.011,1.065-0.152,1.284-0.695
		c0.141-0.349,0.148-0.738,0.19-1.107c0.057-0.491,0.121-0.98,0.19-1.47c0.144-1.008,0.304-2.013,0.446-3.021
		c-2.195,0-4.392-0.012-6.587-0.013c-1.088-0.001-2.176,0-3.263,0.007c-1.043,0.006-2.099,0.072-3.14,0.028
		c-0.497-0.021-1.033-0.152-1.129-0.713c-0.048-0.281-0.006-0.576,0.043-0.854c0.097-0.547,0.205-1.092,0.303-1.64
		c0.378-2.114,0.626-4.241,0.96-6.361c0.081-0.519,0.241-1.081,0.746-1.335c0.711-0.358,1.694-0.176,2.454-0.165
		c2.217,0.031,4.435,0.036,6.651,0.031c2.218-0.004,4.435-0.018,6.651-0.024c0.48,0,1.117,0.158,1.363-0.391
		c0.178-0.395,0.158-0.902,0.217-1.326c0.076-0.554,0.166-1.105,0.26-1.656c0.079-0.467,0.162-0.933,0.242-1.399
		c0.05-0.292,0.106-0.601,0.042-0.896C205.922,3.3,205.327,3.218,204.848,3.221C197.476,3.264,205.966,3.214,204.848,3.221z"/>
	<path fill-rule="evenodd" clip-rule="evenodd" fill="#FFFFFF" d="M159.312,3.249c-0.995,0-1.992,0.051-2.986-0.014
		c-0.663-0.043-1.06,0.24-1.166,0.899c-0.168,1.034-0.228,2.092-0.369,3.131c-0.147,1.092-0.315,2.181-0.48,3.271
		c-0.665,4.38-1.326,8.762-1.993,13.143c-0.666,4.38-1.336,8.76-2.019,13.138c-0.514,3.294-0.961,6.596-2.296,9.681
		c-1.117,2.583-2.8,4.896-5.048,6.605c-1.212,0.923-2.558,1.659-3.97,2.227c-0.714,0.287-1.451,0.511-2.169,0.785
		c-0.414,0.158-0.879,0.326-1.204,0.64c-0.629,0.609-0.035,1.655,0.254,2.283c0.312,0.679,0.632,1.357,0.973,2.021
		c0.21,0.41,0.435,0.861,0.787,1.171c0.698,0.615,1.802,0.128,2.549-0.124c1.503-0.508,2.972-1.099,4.374-1.844
		c2.567-1.366,4.871-3.206,6.709-5.463c1.828-2.243,3.166-4.849,4.064-7.593c0.487-1.486,0.843-3.009,1.108-4.549
		c0.374-2.169,0.738-4.34,1.096-6.513c0.714-4.345,1.398-8.694,2.076-13.045s1.349-8.703,2.033-13.052
		c0.172-1.087,0.344-2.175,0.518-3.262c0.13-0.812,0.481-1.583,0.541-2.407c0.134-1.872-2.141-1.069-3.229-1.12
		C159.413,3.259,159.362,3.255,159.312,3.249C158.208,3.249,160.3,3.367,159.312,3.249z"/>
	<path fill-rule="evenodd" clip-rule="evenodd" fill="#FFFFFF" d="M253.905,3.243c-4.933,0.032-9.865,0.014-14.799,0.014
		c0-0.002,0-0.004,0-0.006c-4.434,0-8.868,0-13.302,0c-0.582,0-1.181-0.026-1.758,0.064c-0.33,0.052-0.648,0.167-0.847,0.451
		c-0.244,0.349-0.313,0.814-0.384,1.223c-0.146,0.835-0.195,1.687-0.353,2.518c-0.093,0.488-0.598,1.426-0.071,1.834
		c0.453,0.35,1.307,0.202,1.827,0.195c2.21-0.026,4.419-0.015,6.629-0.013c0.997,0.001,2.019-0.069,3.015,0.002
		c0.651,0.046,0.666,0.537,0.578,1.09c-0.35,2.183-0.694,4.366-1.036,6.549c-1.369,8.735-2.697,17.476-4.101,26.205
		c-0.066,0.416-0.396,1.434,0.187,1.653c0.231,0.087,0.5,0.07,0.742,0.064c0.552-0.013,1.104-0.037,1.657-0.053
		c0.509-0.015,1.018-0.021,1.526-0.004c0.506,0.018,1.009,0.106,1.513,0.116c0.578,0.011,1.101-0.186,1.377-0.718
		c0.353-0.681,0.375-1.547,0.489-2.289c0.168-1.091,0.336-2.183,0.504-3.274c0.337-2.183,0.675-4.365,1.013-6.548
		c0.676-4.365,1.35-8.73,2.014-13.096c0.332-2.184,0.661-4.367,0.986-6.551c0.078-0.524,0.156-1.049,0.233-1.573
		c0.054-0.366,0.092-0.76,0.272-1.09c0.307-0.561,1-0.504,1.549-0.497c1.9,0.025,3.801,0.012,5.701,0.01
		c0.973,0,1.944,0.002,2.916,0.015c0.635,0.008,1.452,0.153,2.021-0.217c0.425-0.276,0.547-0.803,0.591-1.275
		c0.084-0.906,0.144-1.818,0.326-2.711c0.099-0.483,0.519-1.308,0.199-1.785C254.883,3.191,254.274,3.241,253.905,3.243
		C248.973,3.275,254.939,3.236,253.905,3.243z"/>
	<path fill-rule="evenodd" clip-rule="evenodd" fill="#FFFFFF" d="M136.467,8.068c0.123-1.026,0.16-2.067,0.402-3.075
		c0.106-0.444,0.494-1.312-0.069-1.616c-0.22-0.119-0.493-0.131-0.738-0.139c-0.523-0.015-1.049,0.004-1.573,0.007
		c-1.101,0.006-2.202,0.01-3.304,0.012c-4.411,0.008-8.822-0.005-13.233-0.005c-2.217,0-4.434,0-6.651,0c-1.108,0-2.217,0-3.325,0
		c-0.637,0-1.287-0.028-1.92,0.048c-0.333,0.04-0.683,0.125-0.911,0.39c-0.257,0.299-0.338,0.729-0.411,1.104
		c-0.15,0.781-0.22,1.569-0.327,2.356c-0.062,0.457-0.225,0.866-0.333,1.309c-0.061,0.249-0.107,0.564,0.057,0.786
		c0.288,0.39,1.006,0.298,1.422,0.293c1.105-0.012,2.209-0.016,3.314-0.017c2.191-0.002,4.382,0,6.573-0.002
		c0.54,0,0.939,0.082,0.912,0.71c-0.021,0.473-0.133,0.95-0.208,1.417c-0.09,0.567-0.18,1.135-0.27,1.703
		c-0.346,2.183-0.688,4.367-1.028,6.552c-0.68,4.369-1.354,8.739-2.032,13.108c-0.34,2.185-0.681,4.369-1.025,6.553
		c-0.172,1.092-0.345,2.184-0.519,3.275c-0.074,0.464-0.175,0.932-0.211,1.4c-0.018,0.223-0.028,0.51,0.145,0.681
		c0.149,0.149,0.39,0.167,0.589,0.174c0.482,0.017,0.971-0.025,1.454-0.042c1.057-0.037,2.12-0.06,3.172,0.066
		c0.592,0.071,1.259,0.022,1.642-0.494c0.424-0.571,0.45-1.398,0.553-2.072c0.667-4.366,1.343-8.73,2.015-13.095
		c0.673-4.365,1.342-8.73,1.997-13.098c0.164-1.092,0.327-2.184,0.489-3.276c0.078-0.524,0.155-1.049,0.232-1.573
		c0.064-0.437,0.093-0.903,0.259-1.316c0.214-0.531,0.673-0.669,1.206-0.683c1.026-0.028,2.057,0.015,3.083,0.014
		c1.894-0.002,3.788-0.02,5.681,0.007c0.685,0.01,1.565,0.18,2.199-0.161C136.253,9.114,136.407,8.57,136.467,8.068
		C136.604,6.919,136.345,9.089,136.467,8.068z"/>
</g>
</svg>
