<?xml version="1.0" encoding="utf-8"?>
<!-- Generator: Adobe Illustrator 16.0.0, SVG Export Plug-In . SVG Version: 6.00 Build 0)  -->
<!DOCTYPE svg PUBLIC "-//W3C//DTD SVG 1.1//EN" "http://www.w3.org/Graphics/SVG/1.1/DTD/svg11.dtd">
<svg version="1.1" id="Layer_1" xmlns="http://www.w3.org/2000/svg" xmlns:xlink="http://www.w3.org/1999/xlink" x="0px" y="0px"
	 width="307px" height="170px" viewBox="0 0 307 170" enable-background="new 0 0 307 170" xml:space="preserve">
<g>
	<path fill-rule="evenodd" clip-rule="evenodd" fill="#FFFFFF" d="M54.358,96.278c0.056-0.802,0.17-1.604,0.157-2.404
		c-0.042-2.595-0.186-5.189-0.191-7.784c-0.022-11.828,0.018-23.656-0.043-35.483c-0.008-1.562,0.479-1.991,1.992-1.952
		c3.71,0.097,7.425,0.065,11.137,0.012c1.158-0.017,1.581,0.342,1.579,1.542c-0.027,22.86-0.026,45.72,0,68.581
		c0.001,1.175-0.374,1.581-1.557,1.564c-3.871-0.056-7.745,0.032-11.614-0.068c-0.723-0.019-1.683-0.468-2.106-1.037
		c-10.747-14.46-21.436-28.965-32.14-43.458c-0.749-1.014-1.54-1.996-2.311-2.993c-0.165,0.079-0.329,0.157-0.493,0.236
		c-0.031,0.657-0.09,1.315-0.088,1.972c0.027,14.373,0.063,28.746,0.093,43.119c0.004,2.205-0.005,2.207-2.177,2.209
		c-3.606,0.002-7.215-0.061-10.819,0.031c-1.443,0.036-1.778-0.486-1.776-1.843C4.035,95.821,4.033,73.12,4.003,50.419
		c-0.001-1.279,0.333-1.787,1.694-1.759c3.817,0.078,7.639-0.025,11.455,0.074c0.726,0.019,1.695,0.449,2.117,1.014
		c10.196,13.684,20.333,27.411,30.477,41.134c1.039,1.406,2.032,2.846,3.069,4.253c0.329,0.445,0.732,0.835,1.102,1.25
		C54.063,96.35,54.211,96.314,54.358,96.278z"/>
	<path fill-rule="evenodd" clip-rule="evenodd" fill="#FFFFFF" d="M300.313,67.52c-5.547-3.146-11.123-5.258-17.102-6.197
		c-2.992-0.47-6.002-0.668-8.986,0.139c-3.104,0.838-4.838,2.797-5.195,5.888c-0.326,2.82,0.996,5.501,3.836,6.693
		c3.311,1.39,6.771,2.433,10.191,3.545c4.806,1.561,9.549,3.259,13.618,6.355c4.408,3.354,6.919,7.763,7.265,13.374
		c0.416,6.751-1.255,12.762-6.291,17.482c-4.214,3.953-9.427,5.847-15.09,6.451c-8.114,0.867-15.931-0.545-23.521-3.406
		c-0.396-0.15-0.771-0.359-1.175-0.486c-1.576-0.498-2.162-1.457-2.102-3.193c0.146-4.176,0.047-8.359,0.047-12.697
		c2.586,1.213,4.966,2.463,7.448,3.463c5.099,2.054,10.381,3.512,15.923,3.203c2.101-0.117,4.282-0.764,6.206-1.646
		c4.12-1.891,4.865-10.082-0.416-12.464c-2.883-1.3-5.928-2.266-8.947-3.232c-5.46-1.747-10.972-3.359-15.563-7.007
		c-5.258-4.177-7.225-9.748-6.748-16.303c0.384-5.288,2.334-9.877,6.289-13.493c3.723-3.403,8.218-5.239,13.143-5.909
		c8.774-1.193,17.194,0.301,25.342,3.653c1.421,0.585,2.004,1.379,1.949,2.973c-0.123,3.655-0.036,7.317-0.041,10.977
		C300.391,66.195,300.35,66.708,300.313,67.52z"/>
	<path fill-rule="evenodd" clip-rule="evenodd" fill="#FFFFFF" d="M88.981,87.311c-1.538,0-3.076-0.029-4.612,0.01
		c-1.012,0.026-1.382-0.375-1.422-1.404c-0.174-4.472-0.2-4.523,4.186-4.435c8.743,0.177,17.485,0.416,26.227,0.641
		c0.58,0.015,1.213,0.01,1.718,0.24c0.418,0.19,0.686,0.713,1.014,1.094c0.026,0.031,0.002,0.103,0.005,0.156
		c0.156,2.961,0.154,2.908-2.798,2.977c-8.106,0.188-16.211,0.425-24.317,0.642C88.981,87.258,88.981,87.284,88.981,87.311z"/>
	<path fill-rule="evenodd" clip-rule="evenodd" fill="#FFFFFF" d="M237.302,87.212c-8.524-0.212-17.048-0.441-25.573-0.616
		c-1.117-0.023-1.553-0.415-1.449-1.502c0.045-0.473,0.037-0.956,0.002-1.43c-0.072-0.951,0.358-1.338,1.295-1.357
		c2.964-0.062,5.928-0.163,8.891-0.248c7.041-0.201,14.082-0.375,21.12-0.623c1.333-0.047,1.883,0.25,1.865,1.727
		c-0.052,4.13,0.014,4.129-4.083,4.071c-0.689-0.01-1.379-0.001-2.067-0.001C237.302,87.226,237.302,87.219,237.302,87.212z"/>
	<path fill-rule="evenodd" clip-rule="evenodd" fill="#FFFFFF" d="M166.08,10.497c-0.222,8.472-0.457,16.945-0.646,25.418
		c-0.023,1.063-0.449,1.428-1.443,1.347c-0.474-0.039-0.955-0.039-1.43-0.001c-1.045,0.085-1.386-0.411-1.404-1.41
		c-0.063-3.442-0.188-6.882-0.289-10.323c-0.189-6.512-0.344-13.024-0.593-19.534c-0.056-1.472,0.407-1.921,1.879-1.898
		c4.173,0.065,4.168,0.005,3.969,4.176c-0.035,0.74-0.005,1.483-0.005,2.225C166.104,10.496,166.092,10.496,166.08,10.497z"/>
	<path fill-rule="evenodd" clip-rule="evenodd" fill="#FFFFFF" d="M160.3,160.822c0.296-9.494,0.597-18.707,0.853-27.923
		c0.031-1.105,0.436-1.56,1.521-1.458c0.421,0.039,0.852,0.043,1.271,0c1.104-0.113,1.474,0.356,1.491,1.461
		c0.096,5.882,0.241,11.764,0.402,17.645c0.116,4.29,0.256,8.58,0.45,12.867c0.04,0.867-0.24,1.162-1.045,1.152
		c-1.22-0.014-2.441-0.037-3.659,0.008c-0.972,0.037-1.341-0.381-1.295-1.326C160.334,162.348,160.3,161.445,160.3,160.822z"/>
	<path fill-rule="evenodd" clip-rule="evenodd" fill="#FFFFFF" d="M151.778,4.978c0.201,0.372,0.599,0.812,0.678,1.304
		c0.604,3.76,1.152,7.528,1.704,11.296c0.912,6.227,1.785,12.459,2.748,18.678c0.188,1.217-0.148,1.689-1.341,1.657
		c-0.312-0.009-0.643,0.048-0.938,0.152c-1.238,0.437-1.718-0.134-1.945-1.292c-0.796-4.05-1.638-8.092-2.471-12.135
		c-1.153-5.598-2.272-11.203-3.502-16.784c-0.325-1.476-0.062-2.173,1.536-2.266C149.295,5.525,150.33,5.237,151.778,4.978z"/>
	<path fill-rule="evenodd" clip-rule="evenodd" fill="#FFFFFF" d="M115.691,90.434c0.351,0.489,0.77,0.945,1.032,1.478
		c0.204,0.414,0.196,0.928,0.311,1.39c0.243,0.972-0.077,1.386-1.116,1.594c-8.204,1.642-16.395,3.351-24.59,5.037
		c-1.763,0.362-3.541,0.667-5.287,1.099c-0.903,0.223-1.305-0.063-1.447-0.908c-0.018-0.104-0.03-0.209-0.042-0.314
		c-0.171-1.404-0.937-3.211-0.339-4.096c0.565-0.838,2.552-0.783,3.933-0.993c8.842-1.346,17.69-2.657,26.536-3.978
		c0.209-0.031,0.422-0.034,0.633-0.051C115.44,90.605,115.565,90.52,115.691,90.434z"/>
	<path fill-rule="evenodd" clip-rule="evenodd" fill="#FFFFFF" d="M210.072,78.232c-0.246-1.156-0.611-2.178-0.609-3.2
		c0.001-0.392,0.785-1.024,1.301-1.137c5.173-1.133,10.364-2.183,15.551-3.25c4.41-0.908,8.82-1.812,13.232-2.707
		c0.662-0.134,1.334-0.212,2.166-0.341c0.336,1.992,0.646,3.843,0.981,5.829C231.741,75.039,220.973,76.626,210.072,78.232z"/>
	<path fill-rule="evenodd" clip-rule="evenodd" fill="#FFFFFF" d="M117.188,74.164c-0.182,1.184-0.218,2.209-0.543,3.133
		c-0.126,0.36-0.938,0.741-1.385,0.686c-3.83-0.476-7.651-1.035-11.47-1.599c-6.173-0.91-12.339-1.873-18.519-2.739
		c-1.218-0.171-1.542-0.62-1.223-1.762c0.227-0.812,0.432-1.663,0.432-2.497c-0.001-1.647,0.756-1.891,2.197-1.578
		c5.792,1.256,11.6,2.441,17.402,3.646C108.375,72.347,112.673,73.231,117.188,74.164z"/>
	<path fill-rule="evenodd" clip-rule="evenodd" fill="#FFFFFF" d="M174.895,163.771c-0.234-0.312-0.784-0.714-0.855-1.187
		c-1.518-9.988-2.975-19.986-4.466-29.977c-0.171-1.139,0.216-1.721,1.37-1.797c0.367-0.024,0.746-0.061,1.096-0.17
		c1.09-0.344,1.504,0.098,1.72,1.167c1.547,7.679,3.144,15.348,4.726,23.019c0.46,2.229,0.893,4.464,1.4,6.682
		c0.207,0.908,0.077,1.395-0.962,1.52C177.718,163.173,176.529,163.461,174.895,163.771z"/>
	<path fill-rule="evenodd" clip-rule="evenodd" fill="#FFFFFF" d="M241.675,101.243c-3.349-0.685-6.552-1.333-9.752-1.993
		c-7.001-1.445-13.986-2.975-21.011-4.296c-1.885-0.354-1.412-1.354-1.279-2.496c0.142-1.211,0.494-1.971,1.976-1.747
		c9.996,1.508,20,2.962,29.993,4.489c0.365,0.055,0.947,0.717,0.913,1.04C242.34,97.855,241.994,99.453,241.675,101.243z"/>
	<path fill-rule="evenodd" clip-rule="evenodd" fill="#FFFFFF" d="M172.928,38.259c-1.156-0.197-1.993-0.146-2.579-0.504
		c-0.428-0.261-0.796-1.099-0.726-1.618c0.677-5.032,1.451-10.05,2.198-15.073c0.716-4.814,1.483-9.621,2.116-14.446
		c0.179-1.359,0.715-1.701,1.973-1.479c4.284,0.757,4.272,0.736,3.379,5.02c-1.848,8.859-3.666,17.724-5.538,26.578
		C173.627,37.323,173.163,37.838,172.928,38.259z"/>
	<path fill-rule="evenodd" clip-rule="evenodd" fill="#FFFFFF" d="M157.096,131.215c-1.594,10.861-3.167,21.588-4.781,32.588
		c-1.802-0.301-3.513-0.52-5.177-0.93c-0.263-0.064-0.523-1.035-0.43-1.516c1.025-5.253,2.119-10.492,3.199-15.734
		c0.898-4.359,1.806-8.717,2.703-13.076c0.429-2.086,0.424-2.098,2.517-1.763C155.74,130.883,156.341,131.048,157.096,131.215z"/>
	<path fill-rule="evenodd" clip-rule="evenodd" fill="#FFFFFF" d="M193.468,158.648c-1.946,0.715-3.667,1.348-5.628,2.068
		c-3.49-10.488-6.939-20.857-10.425-31.332c1.315-0.494,2.397-0.898,3.852-1.445C185.318,138.135,189.359,148.309,193.468,158.648z"
		/>
	<path fill-rule="evenodd" clip-rule="evenodd" fill="#FFFFFF" d="M138.662,8.056c3.506,10.534,6.948,20.872,10.424,31.318
		c-1.141,0.428-2.102,0.934-3.117,1.094c-0.375,0.059-1.096-0.605-1.292-1.089c-2.477-6.086-4.889-12.198-7.31-18.307
		c-1.25-3.153-2.424-6.338-3.752-9.457c-0.514-1.208-0.239-1.737,0.938-2.1C135.863,9.111,137.141,8.602,138.662,8.056z"/>
	<path fill-rule="evenodd" clip-rule="evenodd" fill="#FFFFFF" d="M239.594,59.755c-2.002,0.678-3.797,1.295-5.598,1.895
		c-7.835,2.609-15.672,5.214-23.509,7.819c-2.284,0.76-2.287,0.76-3.071-1.495c-0.17-0.49-0.313-0.989-0.512-1.627
		c3.793-1.524,7.511-3.03,11.238-4.51c5.953-2.365,11.926-4.682,17.859-7.095c1.188-0.483,1.746-0.26,2.119,0.919
		C238.533,56.966,239.043,58.239,239.594,59.755z"/>
	<path fill-rule="evenodd" clip-rule="evenodd" fill="#FFFFFF" d="M86.972,109.029c0.796-0.302,1.374-0.545,1.967-0.74
		c9.242-3.057,18.486-6.107,27.73-9.156c1.677-0.553,1.605-0.518,2.64,2.141c0.556,1.429-0.452,1.475-1.248,1.791
		c-9.147,3.629-18.307,7.227-27.433,10.908c-1.294,0.521-1.907,0.385-2.281-0.994C88.005,111.713,87.491,110.494,86.972,109.029z"/>
	<path fill-rule="evenodd" clip-rule="evenodd" fill="#FFFFFF" d="M138.642,160.691c-1.732-0.627-3.302-1.109-4.771-1.805
		c-0.29-0.137-0.418-1.184-0.234-1.662c2.001-5.191,4.083-10.352,6.137-15.522c1.526-3.841,3.043-7.685,4.568-11.526
		c0.27-0.68,0.559-1.353,0.91-2.197c1.088,0.402,2.164,0.623,3.001,1.191c0.354,0.24,0.434,1.291,0.253,1.848
		c-2.261,6.957-4.591,13.889-6.905,20.827C140.644,154.705,139.687,157.564,138.642,160.691z"/>
	<path fill-rule="evenodd" clip-rule="evenodd" fill="#FFFFFF" d="M181.315,40.799c-1.358-0.503-2.524-0.936-3.795-1.407
		c0.343-1.104,0.624-2.06,0.936-3.005c2.938-8.897,5.909-17.783,8.792-26.697c0.443-1.37,1.037-1.647,2.287-1.096
		c1.2,0.53,2.448,0.953,3.923,1.517C189.422,20.313,185.422,30.422,181.315,40.799z"/>
	<path fill-rule="evenodd" clip-rule="evenodd" fill="#FFFFFF" d="M207.061,102.448c-0.029-0.263-0.051-0.318-0.039-0.366
		c0.896-3.63,0.896-3.631,4.392-2.469c8.853,2.943,17.694,5.919,26.565,8.803c1.383,0.449,1.691,1.041,1.01,2.25
		c-0.052,0.092-0.085,0.195-0.123,0.294c-1.392,3.647-1.382,3.624-4.952,2.206c-8.47-3.364-16.949-6.703-25.423-10.057
		C208.004,102.916,207.539,102.671,207.061,102.448z"/>
	<path fill-rule="evenodd" clip-rule="evenodd" fill="#FFFFFF" d="M88.974,54.18c5.256,2.067,10.285,4.032,15.303,6.021
		c4.63,1.835,9.233,3.741,13.885,5.519c1.263,0.483,1.577,1.07,0.925,2.221c-0.128,0.227-0.214,0.49-0.267,0.747
		c-0.253,1.246-0.899,1.421-2.072,1.023c-7.681-2.605-15.382-5.148-23.078-7.708c-1.811-0.603-3.614-1.232-5.444-1.77
		c-0.885-0.26-1.291-0.607-0.909-1.571C87.881,57.244,88.379,55.801,88.974,54.18z"/>
	<path fill-rule="evenodd" clip-rule="evenodd" fill="#FFFFFF" d="M137.932,44.55c-2.267-3.647-4.453-7.142-6.617-10.651
		c-3.281-5.32-6.515-10.67-9.843-15.961c-0.725-1.152-0.602-1.772,0.6-2.34c0.907-0.428,1.792-0.929,2.615-1.501
		c0.856-0.596,1.271-0.323,1.714,0.506c2.893,5.42,5.822,10.822,8.739,16.23c1.861,3.45,3.674,6.927,5.607,10.336
		c0.636,1.122,0.485,1.716-0.665,2.206C139.409,43.661,138.79,44.074,137.932,44.55z"/>
	<path fill-rule="evenodd" clip-rule="evenodd" fill="#FFFFFF" d="M234.111,46.892c-4.227,2.298-8.268,4.501-12.314,6.694
		c-5.027,2.726-10.059,5.446-15.093,8.163c-0.823,0.445-1.569,1.097-2.31-0.293c-1.307-2.455-1.381-2.407,0.09-3.313
		c8.163-5.025,16.323-10.056,24.486-15.082c2.225-1.369,2.223-1.361,3.481,0.926C232.96,44.909,233.496,45.816,234.111,46.892z"/>
	<path fill-rule="evenodd" clip-rule="evenodd" fill="#FFFFFF" d="M185.109,42.542c0.955-1.828,1.836-3.564,2.762-5.276
		c4.005-7.412,8.055-14.8,12.006-22.242c0.672-1.264,1.255-1.5,2.412-0.701c1.082,0.747,2.244,1.378,3.588,2.192
		c-5.759,9.348-11.467,18.612-17.265,28.024C187.396,43.846,186.316,43.229,185.109,42.542z"/>
	<path fill-rule="evenodd" clip-rule="evenodd" fill="#FFFFFF" d="M92.37,46.893c1.078-1.865,1.971-3.412,2.967-5.134
		c2.938,1.798,5.769,3.521,8.59,5.258c6.044,3.723,12.066,7.483,18.142,11.154c1.129,0.683,1.438,1.23,0.568,2.315
		c-0.453,0.565-0.724,1.276-1.182,2.112C111.778,57.374,102.164,52.182,92.37,46.893z"/>
	<path fill-rule="evenodd" clip-rule="evenodd" fill="#FFFFFF" d="M123.396,109.748c-9.336,5.749-18.604,11.457-28.052,17.275
		c-0.99-1.732-1.916-3.354-2.937-5.141c3.006-1.639,5.87-3.209,8.742-4.764c6.004-3.252,12.027-6.471,18.013-9.756
		c2.29-1.257,2.254-1.322,3.508,1C122.892,108.773,123.103,109.188,123.396,109.748z"/>
	<path fill-rule="evenodd" clip-rule="evenodd" fill="#FFFFFF" d="M234.076,122.012c-0.991,1.691-1.916,3.269-2.924,4.99
		c-2.258-1.383-4.373-2.67-6.481-3.969c-6.812-4.194-13.614-8.402-20.437-12.577c-0.826-0.505-1.295-1.042-0.512-1.848
		c0.701-0.723,0.459-2.866,2.416-1.815c9.1,4.89,18.182,9.811,27.268,14.725C233.587,121.615,233.742,121.762,234.076,122.012z"/>
	<path fill-rule="evenodd" clip-rule="evenodd" fill="#FFFFFF" d="M137.888,124.385c0.129-0.019,0.19-0.048,0.231-0.031
		c3.573,1.562,3.521,1.533,1.671,4.926c-4.434,8.138-8.833,16.295-13.194,24.471c-0.601,1.127-1.134,1.563-2.271,0.701
		c-1.113-0.842-2.956-1.424-3.233-2.455c-0.25-0.93,1.164-2.326,1.882-3.493c4.852-7.896,9.713-15.786,14.574-23.676
		C137.656,124.654,137.797,124.502,137.888,124.385z"/>
	<path fill-rule="evenodd" clip-rule="evenodd" fill="#FFFFFF" d="M185.053,126.221c1.039-0.6,1.887-1.12,2.763-1.586
		c1.038-0.551,1.289,0.41,1.643,0.978c2.491,3.995,4.944,8.014,7.415,12.021c2.638,4.278,5.283,8.552,7.917,12.833
		c0.33,0.535,0.61,1.102,1.028,1.863c-1.676,0.967-3.295,1.9-5.077,2.928C195.487,145.534,190.298,135.928,185.053,126.221z"/>
	<path fill-rule="evenodd" clip-rule="evenodd" fill="#FFFFFF" d="M192.063,46.922c2.59-3.282,5.105-6.473,7.625-9.661
		c3.84-4.858,7.69-9.708,11.52-14.576c1.227-1.56,1.303-1.584,2.789-0.313c0.92,0.788,1.861,1.55,2.99,2.487
		c-1.17,1.368-2.266,2.693-3.408,3.977c-4.678,5.258-9.371,10.502-14.059,15.752c-1.128,1.263-2.338,2.463-3.357,3.809
		c-0.777,1.026-1.398,1.133-2.271,0.205C193.387,48.067,192.809,47.603,192.063,46.922z"/>
	<path fill-rule="evenodd" clip-rule="evenodd" fill="#FFFFFF" d="M128.339,52.546c-2.439,3.125-2.46,3.152-5.019,1.13
		c-7.428-5.87-14.837-11.764-22.253-17.65c-0.285-0.227-0.554-0.475-1.033-0.888c1.091-1.326,2.104-2.653,3.249-3.855
		c0.193-0.204,1.091-0.039,1.425,0.241c2.392,2.002,4.737,4.059,7.068,6.132c5.412,4.815,10.808,9.648,16.208,14.477
		C128.098,52.234,128.186,52.365,128.339,52.546z"/>
	<path fill-rule="evenodd" clip-rule="evenodd" fill="#FFFFFF" d="M128.48,116.188c-3.248,2.909-6.311,5.664-9.388,8.404
		c-4.424,3.939-8.881,7.844-13.279,11.813c-1.97,1.777-2.152,1.814-3.78-0.293c-1.959-2.535-1.982-2.564,0.504-4.54
		c7.25-5.759,14.54-11.469,21.762-17.263c1.224-0.982,2.005-1.104,2.817,0.361C127.412,115.203,127.944,115.604,128.48,116.188z"/>
	<path fill-rule="evenodd" clip-rule="evenodd" fill="#FFFFFF" d="M109.508,143.839c2.052-2.329,3.999-4.552,5.959-6.761
		c4.846-5.464,9.689-10.93,14.563-16.366c0.455-0.507,1.389-1.283,1.655-1.135c0.936,0.522,1.705,1.368,2.46,2.163
		c0.106,0.111-0.146,0.691-0.355,0.957c-6.328,8.018-12.662,16.031-19.049,24.002c-0.25,0.311-1.226,0.452-1.542,0.225
		C111.922,146.01,110.771,144.92,109.508,143.839z"/>
	<path fill-rule="evenodd" clip-rule="evenodd" fill="#FFFFFF" d="M134.354,47.018c-0.847,0.72-1.614,1.507-2.525,2.06
		c-0.255,0.155-1.066-0.259-1.393-0.619c-3.831-4.235-7.624-8.504-11.414-12.775c-2.842-3.203-5.617-6.467-8.523-9.611
		c-0.926-1.002-0.712-1.536,0.197-2.277c3.305-2.694,3.31-2.722,6.003,0.668c5.625,7.081,11.231,14.176,16.838,21.27
		C133.797,46.059,133.989,46.436,134.354,47.018z"/>
	<path fill-rule="evenodd" clip-rule="evenodd" fill="#FFFFFF" d="M222.696,30.636c1.153,1.32,2.275,2.512,3.259,3.809
		c0.193,0.255,0.024,1.125-0.264,1.356c-4.574,3.688-9.197,7.315-13.805,10.961c-3.072,2.43-6.127,4.882-9.209,7.297
		c-2.075,1.625-2.068,1.584-3.768-0.436c-0.637-0.758-0.688-1.321,0.101-2.003c2.163-1.868,4.286-3.783,6.425-5.678
		c4.318-3.826,8.637-7.649,12.954-11.476C219.807,33.21,221.221,31.949,222.696,30.636z"/>
	<path fill-rule="evenodd" clip-rule="evenodd" fill="#FFFFFF" d="M226.41,133.762c-1.211,1.438-2.395,2.842-3.667,4.354
		c-2.068-1.806-4.063-3.523-6.034-5.27c-5.548-4.92-11.086-9.85-16.628-14.775c-0.159-0.142-0.321-0.279-0.477-0.422
		c-1.385-1.273-0.922-3.531,0.897-4.131c0.305-0.101,0.822,0.131,1.119,0.365c8.193,6.464,16.369,12.948,24.545,19.434
		C226.24,133.377,226.268,133.497,226.41,133.762z"/>
	<path fill-rule="evenodd" clip-rule="evenodd" fill="#FFFFFF" d="M192.024,121.819c1.067-0.901,1.981-1.673,3.088-2.608
		c7.327,8.238,14.56,16.369,21.908,24.632c-1.565,1.315-2.999,2.521-4.545,3.821C205.633,139.018,198.877,130.48,192.024,121.819z"
		/>
</g>
</svg>
