<?xml version="1.0" encoding="utf-8"?>
<!-- Generator: Adobe Illustrator 16.0.0, SVG Export Plug-In . SVG Version: 6.00 Build 0)  -->
<!DOCTYPE svg PUBLIC "-//W3C//DTD SVG 1.1//EN" "http://www.w3.org/Graphics/SVG/1.1/DTD/svg11.dtd">
<svg version="1.1" id="Layer_2" xmlns="http://www.w3.org/2000/svg" xmlns:xlink="http://www.w3.org/1999/xlink" x="0px" y="0px"
	 width="609.333px" height="338.075px" viewBox="0 0 609.333 338.075" enable-background="new 0 0 609.333 338.075"
	 xml:space="preserve">
<path fill="#787878" d="M451.561,86.973c0-0.827,0.267-1.718,0.662-2.452c0.469-0.767,0.986-1.772,0.986-2.746
	c0-0.396-0.085-0.79-0.298-1.162c-0.791-1.353-2.615-1.287-3.941-1.245l-0.797,0.007c-0.365-0.071-1.282-0.441-2.172-0.809
	c-1.604-0.646-3.423-1.381-4.682-1.54c-1.049-0.131-2.325,0.204-3.807,0.587c-1.555,0.406-3.326,0.87-4.723,0.696
	c-1.285-0.153-3.048-0.872-4.605-1.509c-4.313-1.659-8.269-0.759-11.007,0.291c-3.964,1.612-6.969,4.254-8.807,7.828
	c-3.631,7.021-2.097,16.103,0.854,21.568c1.215,2.242,5.525,9.526,7.794,12.633c0.064,0.093,0.149,0.169,0.237,0.23
	c-0.047,0.018-0.079,0.029-0.079,0.029c-3.238,1.316-3.727,5.153-3.727,7.334c0,0.755,0.061,1.313,0.084,1.496
	c0.141,1.211,0.542,1.959,1.201,2.236c0.441,0.187,0.937,0.123,1.332-0.171c0.015-0.014,1.938-1.426,4.614-1.183
	c2.205,0.206,6.383,1.786,6.383,6.283c0,4.22-3.487,8.941-8.131,8.941c-4.005,0-6.359-1.924-6.942-4.095
	c-0.365-4.281-1.76-7.935-2.415-8.956c-0.299-0.461-0.668-0.814-1.063-1.193c-1.277-1.241-3.23-3.116-3.698-11.341
	c-0.513-9.068-4.202-17.699-6.893-23.351c0.565,0.133,1.174,0.187,1.81,0.105c3.033-0.367,3.145-3.772,3.256-7.068l0.053-1.623
	c0.123-2.517,0.931-2.707,2.269-3.016l0.797-0.213c1.728-0.531,2.082-1.331,2.082-2.689c0-0.418-0.035-0.893-0.076-1.425
	l-0.044-0.799c-0.009-0.089-0.015-0.169-0.015-0.241c0-1.299,0.743-1.713,2.076-2.005l0.26-0.06
	c0.814-0.205,1.225-0.426,2.029-0.866l0.366-0.204c0.939-0.512,1.218-1.302,1.218-2.096c0-0.77-0.258-1.54-0.439-2.087l-0.053-0.159
	c-0.104-0.301-0.172-0.52-0.172-0.741c0-0.441,0.289-0.864,1.268-1.885c1.15-1.21,1.481-2.253,1.481-3.074
	c0-0.915-0.407-1.562-0.604-1.877l-0.053-0.078c-0.24-0.406-0.526-0.999-0.608-1.981c0.097-0.45,1.355-1.525,1.968-2.048
	l1.306-1.196c0.611-0.67,0.89-1.545,0.89-2.324c0-0.598-0.164-1.135-0.451-1.491c-0.447-0.548-1.168-0.679-1.759-0.326l0.087-0.05
	c-2.491,1.215-5.422-1.113-7.706-3.273c-0.919-0.877-1.862-3.128-2.702-5.112c-0.741-1.775-1.385-3.317-2.114-4.229
	c-0.63-0.801-1.423-1.584-2.193-2.335c-1.071-1.032-2.166-2.103-2.831-3.238c-0.574-0.953-0.863-2.528-1.13-3.922
	c-0.275-1.453-0.542-2.82-1.107-3.73c-0.541-0.865-1.247-1.094-1.744-1.138c-1.348-0.115-2.451,1.042-2.665,1.277
	c-1.64,1.644-7.422,3.583-9,3.583l-2.841-0.053c-2.151-0.051-4.594-0.112-5.809-0.045c-1.235,0.065-2.46,0.688-3.643,1.289
	c-0.819,0.416-1.66,0.839-2.278,0.947c-0.605,0.098-1.402,0.053-2.313,0c-1.338-0.07-3.01-0.161-4.772,0.2
	c-1.241,0.257-2.103,0.812-2.551,1.653c-0.711,1.316-0.111,2.807,0.173,3.522c0.003,0.023,0.305,0.667,0.305,0.667
	c0.489,1.023,0.718,1.671,0.41,1.934c-1.604,1.354-0.958,3.548-0.738,4.271c0.226,0.776,0.642,1.865,1.596,2.349
	c0.612,0.311,1.309,0.316,2.094,0.034l-0.097,0.029c1.455-0.399,4.611-0.259,5.771,0.661c0.313,0.244,0.348,0.441,0.342,0.624
	c-0.053,1.209-0.196,1.265-2.131,1.645l-1.76,0.385c-2.217,0.569-3.051,1.662-3.364,2.48c-0.275,0.731-0.237,1.53,0.1,2.038
	l0.512,0.621c0.495,0.57,1.336,1.514,2.313,2.891c1.016,1.422,2.062,1.707,2.752,1.699c0.882-0.018,1.569-0.498,2-1.011
	c2.261-1.673,4.723-2.035,6.38-2.149c1.396-0.1,4.635-0.895,6.72-1.527c0.006,0.229,0.018,0.451,0.018,0.686
	c0,0.824-0.064,1.632-0.237,2.126l-0.088,0.269c-2.137,6.415-7.047,9.951-14.607,10.51l-4.731,0.292
	c-9.413,0.509-15.699,0.853-15.699,10.525c0,0,0,0.003,0,0.009c-1.518,0.117-2.929-0.045-4.185-0.359l-0.094,0.068
	c-0.39-0.553-0.781-1.101-1.18-1.63c-3.297-4.293-7.007-7.916-11.035-10.813c-2.574-5.646-1.438-12.502,1.335-14.677
	c0.644,0.41,1.402,0.653,2.216,0.653c2.275,0,4.126-1.853,4.126-4.13c0-0.561-0.111-1.09-0.316-1.576
	c0.416,0.115,0.85,0.186,1.3,0.186c2.656,0,4.808-2.163,4.808-4.813c0-0.863-0.23-1.675-0.626-2.375
	c0.325,0.063,0.655,0.092,1.004,0.092c3.18,0,5.763-2.58,5.763-5.763c0-2.226-1.28-4.16-3.139-5.121
	c2.374-0.721,4.09-2.918,4.09-5.513c0-3.177-2.582-5.763-5.762-5.763c-0.923,0-1.801,0.221-2.571,0.617
	c0.229-0.653,0.36-1.349,0.36-2.083c0-3.441-2.799-6.238-6.245-6.238c-2.337,0-4.381,1.297-5.452,3.219
	c-0.548-2.048-2.418-3.558-4.635-3.558c-2.48,0-4.526,1.888-4.784,4.3c-0.753-0.876-1.874-1.438-3.124-1.438
	c-1.707,0-3.18,1.042-3.801,2.521h-1.092c-2.357,0-2.841-1.913-2.841-2.425c0-1.518-1.385-2.578-3.361-2.578h-2.497h-2.491
	c-1.98,0-3.367,1.061-3.367,2.578c0,0.512-0.484,2.425-2.837,2.425h-0.936c-0.625-1.479-2.092-2.521-3.802-2.521
	c-1.246,0-2.372,0.562-3.124,1.438c-0.257-2.412-2.305-4.3-4.783-4.3c-2.224,0-4.083,1.51-4.635,3.558
	c-1.071-1.922-3.109-3.219-5.459-3.219c-3.437,0-6.238,2.797-6.238,6.238c0,0.733,0.133,1.43,0.361,2.083
	c-0.778-0.396-1.644-0.617-2.576-0.617c-3.177,0-5.767,2.586-5.767,5.763c0,2.595,1.729,4.792,4.093,5.513
	c-1.858,0.961-3.133,2.895-3.133,5.121c0,3.183,2.587,5.763,5.76,5.763c0.346,0,0.678-0.029,1.012-0.092
	c-0.397,0.7-0.631,1.512-0.631,2.375c0,2.649,2.147,4.813,4.803,4.813c0.451,0,0.885-0.07,1.299-0.186
	c-0.199,0.485-0.313,1.015-0.313,1.576c0,2.277,1.851,4.13,4.127,4.13c0.9,0,1.73-0.296,2.41-0.784
	c2.911,2.189,3.438,9.313,1.048,14.679c-4.097,2.918-7.876,6.583-11.214,10.942c-4.146,5.415-7.435,11.681-9.753,18.361
	c0.506-4.122,0.114-7.757-1.192-10.864c-4.184-9.937-13.041-13.691-18.945-16.643l-3.06-1.598c-4.777-2.728-7.084-5.787-8.605-7.807
	l-1.065-1.358c-0.054-0.063-0.091-0.106-0.133-0.159c0.115,0.031,0.243,0.076,0.362,0.096c1.713,0.275,4.312,1.192,5.686,2.248
	l1.841,1.547c1.568,1.357,2.64,2.27,3.229,2.6c1.643,0.922,4.381,0.729,5.525-0.236c0.499-0.424,0.656-1.017,0.656-1.598
	c0-0.773-0.277-1.531-0.406-1.88c-0.101-0.28-0.162-0.491-0.221-0.68c0.085,0.038,0.156,0.069,0.22,0.1l0.988,0.406
	c1.73,0.493,3.344-0.665,4.178-2.032c0.99-1.615,0.805-4.41-1.933-6.723c-1.394-1.177-5.395-5.112-8.613-8.28
	c-2.545-2.511-4.56-4.492-5.197-5.04c-0.588-0.499-1.539-1.588-1.948-2.159c0.339-0.882,0.588-1.924,0.003-2.682
	c-0.612-0.802-1.627-0.67-2.173-0.601c0,0-0.288,0.027-0.317,0.034c-0.053-0.017-0.132-0.034-0.132-0.034
	c-0.085-0.02-0.187-0.043-0.292-0.061l-0.092,0.032c-0.035-0.008-0.095-0.018-0.166-0.032c0.645-1.458,1.383-3.594,2.113-6.506
	c0.819-3.229,0.355-6.096-1.263-7.853c-1.152-1.255-2.853-1.812-4.659-1.52c-2.906,0.47-5.231,2.713-6.755,4.582l-0.585-1.817
	l-1.165,0.377l-5.53,1.782l0.638,1.968c-2.353-0.667-5.69-1.213-8.424,0.151c-1.642,0.819-2.695,2.262-2.898,3.956
	c-0.278,2.375,1.022,4.966,3.563,7.111c0.947,0.794,1.776,1.441,2.515,1.978c-0.148,0.106-0.291,0.213-0.399,0.293
	c-0.781,0.661-1.504,1.412-2.148,2.088l-0.858,0.908c-3.838,3.418-8.832,5.836-13.641,6.454c-0.63,0.053-1.158,0.53-1.264,1.182
	c-0.194,1.171,1.051,2.548,3.089,3.424c2.039,0.875,2.479,3.565,1.456,9l-0.044,0.211c-0.098,0.479-0.263,1.288,0.369,1.883
	c0.68,0.636,1.7,0.508,3.466,0.019l0.329-0.089c0.247-0.071,0.478-0.136,0.706-0.194c-0.076,0.288-0.155,0.685-0.236,0.971
	l-0.114,0.535l-0.1,0.531c-0.229,1.246-0.52,2.781-0.52,4.193c0,0.82,0.093,1.594,0.358,2.247c0.688,1.721,2.373,4.46,3.344,5.431
	c0.595,0.59,1.228,0.879,1.883,0.854c0.956-0.051,1.633-0.734,2.067-1.253c0,0,0.024-0.036,0.042-0.06
	c0.12,0.271,0.271,0.618,0.469,1.173l0.034,0.106c0.661,1.897,2.045,5.841,7.38,7.445c0.969,0.284,2.077,0.55,3.057-0.01
	c0.702-0.396,1.183-1.137,1.462-2.266c0.141-0.559,0.193-1.166,0.254-1.759c0.01-0.137,0.023-0.296,0.038-0.459
	c0.1,0.106,0.199,0.217,0.326,0.363c1.936,2.624,4.839,8.445,4.839,14.846c0,1.647-0.19,3.333-0.639,5.013
	c-0.727,2.681-1.612,4.687-2.4,6.457c-0.57,1.283-0.981,2.519-1.438,3.707c-1.624,1.696-5.517,3.85-8.094,5.28l-1.569,0.88
	c-2.484,1.414-9.864,8.666-10.396,18.24c-0.009,0.17-0.023,0.34-0.029,0.516c-4.36,1.489-7.24,1.268-8.797-0.663
	c-3.319-4.097-0.812-8.184,2.813-13.099l1.131-1.563l1.132-1.523c0,0,0.988-1.23,1.067-1.359c0.052,0.258,0.1,0.51,0.155,0.813
	l0.443,1.939l0.396,1.537c0.285,1.348,1.165,1.612,1.524,1.665c0.506,0.07,1.353,0.947,3.606-3.253
	c0.476-0.891,1.393-2.426,2.417-4.024l1.694-2.677c1.786-2.913,1.366-4.89-1.435-6.819c-1.104-0.753-1.027-1.147-0.059-3.008
	l0.284-0.569c0.889-1.765,4.51-13.208-0.75-21.321c-3.67-5.671-8.849-10.921-15.866-9.318c-4.01,0.912-6.663,2.429-9.224,3.904
	c-2.526,1.447-4.895,2.832-8.366,3.335c-2.208,0.324-7.576,2.098-7.803,2.172c-0.713,0.234-1.686,0.564-1.736,1.602
	c-0.009,0.028-0.009,0.053-0.009,0.081c0,1.119,1.216,1.671,2.752,2.373c1.784,0.806,2.558,1.459,2.941,1.916
	c-0.836,1.343-4.229,5.048-4.937,5.542c-0.66,0.391-1.044,1.025-1.044,1.702c0,0.11,0.013,0.221,0.032,0.335
	c0.211,1.13,1.384,1.875,3.479,2.228c0.006,0,0.021,0.007,0.035,0.007l-0.035,0.36c-0.227,2.347-0.57,5.898,0.958,8.261l0.318,0.485
	c1.251,1.933,3.855,5.938,3.961,7.345c0.039,0.465-0.122,1.083-0.274,1.683c-0.259,1.023-0.526,2.083,0.018,2.97
	c0.204,0.341,0.617,0.782,1.405,0.96c2.433,0.558,3.34-1.394,4.068-2.959l0.406-0.843c0.988-1.98,2.354-4.695,3.997-7.449
	l1.074-1.645c1.917-2.855,4.503-7.792,3.931-11.813c0.4,0.009,0.72,0.027,0.818,0.035c0.46,0.068,0.944,0.129,1.421,0.01
	l0.452-0.093c0.837-0.158,1.982-0.378,2.248-1.461c0.255-1.069-0.66-1.945-1.581-2.665c-1.164-0.903-2.452-4.677-1.798-7.106
	c0.484-1.766,1.323-2.719,2.566-2.937c2.526-0.424,6.471,2.273,8.321,4.978c1.598,2.32,2.292,5.143,2.292,7.502
	c0,0.828-0.076,1.594-0.224,2.248c-0.577,2.587-1.077,2.843-1.091,2.849c-0.103,0.026-0.456-0.085-0.665-0.149l-0.839-0.222
	c-1.811-0.325-3.957,0.15-5.341,1.187l-0.449,0.317c-1.075,0.724-2.541,1.708-2.344,3.195c0.179,1.347,1.621,1.994,2.687,2.36
	c0.826,0.286,1.047,0.754,1.14,1.087c0.496,1.72-1.19,4.878-2.484,6.462l-0.659,0.8l-1.587,2.118
	c-6.376,8.184-8.441,16.091-5.684,21.703c1.667,3.387,5.828,7.405,16.192,7.432c-0.431,2.258-1.04,3.733-1.974,5.225
	c-2.533,4.042-6.824,4.458-9.134,4.683l-0.747,0.083l-0.579,0.041c-0.687,0.039-1.627,0.082-2.337,0.887
	c-0.899,1.014-1.149,2.953-0.888,6.9c0.349,5.24-0.262,8.109-0.709,10.211c-0.17,0.821-0.363,1.712-0.416,2.436
	c-0.031,0.459-0.195,1.219-0.336,1.833c-0.194,0.807-0.398,1.68-0.398,2.501c0,0.649,0.133,1.277,0.501,1.809
	c0.453,0.651,1.149,1.041,2.091,1.164l2.37,0.143c0.495,0.016,1.131,0.026,1.525,0.08c-0.008,0.041-0.03,0.084-0.03,0.084
	c-0.064,0.171-0.129,0.348-0.191,0.521h-26.42c0,0,7.819,13.55,8.391,14.536c-0.517,1.014-7.765,15.104-7.765,15.104h71.2
	l4.024,13.714c22.034-8.043,48.277-12.648,72.099-12.648h0.126c23.833,0,50.114,4.582,72.159,12.631l4.006-13.696h70.086
	c0,0-7.241-14.09-7.759-15.104c0.559-0.986,8.389-14.536,8.389-14.536h-1.95h-26.744h-1.607c0.325-2.241,0.434-4.568,0.331-5.56
	c-0.076-0.83-0.366-2.3-0.668-3.854c-0.305-1.553-0.682-3.488-0.682-4.027c0-1.532,0.038-6.31,0.161-7.35
	c0.374-3.158-3.011-5.683-4.639-6.891l-0.532-0.41c-1.479-1.196-2.905-2.732-4.199-4.289c4.076,1.404,11.516,2.783,17.878-4.842
	c1.713-2.092,2.896-4.863,3.61-6.521l0.114-0.274c0.645-1.49,2.249-3.961,2.734-4.39c1.521-1.354,7.927-9.756,5.897-13.154
	c-1.385-2.303-5.065-0.961-6.277-0.523c-0.674,0.25-1.02-0.219-1.484-1.985c-0.393-1.464-1.242-5.212-1.31-5.764l-0.006-0.124
	c-0.073-0.685-0.207-2.1-1.338-2.664c-0.705-0.35-1.528-0.237-2.444,0.321c-0.448,0.278-0.82,0.371-1.116,0.278
	c-0.365-0.119-0.655-0.525-0.808-0.873c-0.316-0.74-0.855-2.559-1.183-3.641l-0.255-0.843l-0.141-0.564
	c-0.17-0.769-0.407-1.81-1.423-2.08c-0.987-0.249-1.815,0.5-2.504,1.271c-0.547,0.609-1.036,1.198-1.476,1.78
	c-6.544-5.843-5.791-11.277-5.341-14.578c0.662-4.03,2.305-6.7,4.896-7.97c3.804-1.867,8.521-0.213,9.104,0.1l0.551,0.282
	c0.251,0.129,0.726,0.358,0.978,0.553c-0.07,0.075-0.164,0.169-0.346,0.293l-0.105,0.072l-0.088,0.094
	c-1.634,1.805-2.283,3.689-2.283,5.564c0,4.579,3.87,9.079,6.787,12.168c0,0.018-0.006,0.033-0.006,0.054
	c0,4.162,1.013,10.552,3.867,13.138c1.112,1.009,2.551,1.474,3.988,1.332c2.471-0.239,5.929-2.353,6.529-2.621
	c0.603-0.271,2.351-2.013-0.472-2.749c-2.819-0.736-2.088-3.288-1.947-4.566c0.173-1.665,0.981-3.765,2.229-6.483
	c0.384-0.847,0.539-1.794,0.539-2.764c0-1.782-0.524-3.617-1.034-4.959c0.463-0.047,0.955-0.141,1.479-0.329
	c1.473-0.52,2.445-1.408,2.741-2.496c0.062-0.236,0.094-0.476,0.094-0.713c0-0.709-0.281-1.434-0.823-2.086
	C451.719,88.19,451.561,87.599,451.561,86.973z M213.204,34.006c0,0-0.006,0-0.013,0c-0.976,0.047-1.662,0.335-2.105,0.987
	c-0.06,0.083-0.104,0.171-0.15,0.265c-0.924-0.58-2.332-1.569-4.276-3.201c-0.683-0.576-1.051-1.063-1.259-1.422
	c0.834-0.141,2.408-0.064,5.38,1.012l0.076,0.022l0.071,0.018c0.644,0.148,1.247,0.247,1.827,0.306l0.646,2.012
	C213.33,34.006,213.269,34.006,213.204,34.006z M364.466,124.199c0.129-1.412,0.571-1.583,1.534-1.959l0.806-0.345l1.256-0.61
	c1.815-0.889-0.278,0.09,1.962-1.077c0.012,0.012,0.015,0.025,0.023,0.036c1.974,2.189,6.45,3.396,8.941,3.92
	c2.173,0.459,4.226,1.313,5.795,2.151c0.223,0.743,0.308,1.636,0.281,2.535c-2.311,0.624-10.266,2.515-15.981,0.554l-0.471-0.205
	c-0.976-0.43-2.293-1.02-3.769-0.432c-1.253,0.489-2.299,1.738-3.177,3.813c-2.223,5.206-2.044,10.478,0.48,14.104
	c0.96,1.4,2.052,2.56,3.024,3.584c1.317,1.399,2.453,2.604,2.819,3.9c0.146,0.535,0.012,0.793-0.117,0.969
	c-0.532,0.7-2.21,1.159-4.26,1.159l-1.801-0.054c-2.313-0.087-5.37-0.204-8.348,0.289c-1.481-1.799-2.989-3.236-4.277-4.455
	l-0.642-0.617c3.443-6.889,5.762-14.732,6.676-23.073c0.331-0.031,0.658-0.102,0.937-0.22c0.144,0.171,0.261,0.354,0.261,0.354
	c0.888,1.053,2.604,2.037,4.196,1.879C362.653,130.198,364.199,127.021,364.466,124.199z M351.891,97.645h-0.015l9.782,0.614
	c0.029,1.945,0.398,4.317,1.3,7.254c-1.021,0.54-2.184,1.041-3.168,1.346c-1.215,0.378-3.361,0.879-5.153,1.966
	c-0.655-3.802-1.634-7.548-2.896-11.171L351.891,97.645z M310.346,47.508l2.966-15.938c2.539-1.675,9.021-5.901,15.179-5.099
	c2.407,0.316,4.237,1.439,5.165,3.159c1.396,2.604,0.694,6.151-1.927,9.731c-4.784,6.552-8.389,9.452-9.595,10.16l-0.044,0.076
	c-3.839-1.082-7.765-1.778-11.765-2.073L310.346,47.508z M305.528,23.259c1.031,0,1.869,0.845,1.869,1.876
	c0,1.034-0.838,1.875-1.869,1.875c-1.032,0-1.872-0.842-1.872-1.875C303.656,24.104,304.496,23.259,305.528,23.259z M279.903,39.362
	c-2.625-3.58-3.322-7.128-1.928-9.731c0.926-1.72,2.761-2.843,5.164-3.159c6.158-0.802,12.642,3.424,15.182,5.099l2.96,15.938
	l0.011,0.017c-3.989,0.291-7.896,0.979-11.721,2.049l-0.063-0.055C288.296,48.805,284.68,45.903,279.903,39.362z M220.844,34.167
	l-1.408-4.396c0.368-0.359,0.741-0.759,1.104-1.206l0.035-0.04l0.026-0.043c1.783-2.601,3.011-3.598,3.777-3.969
	c0.012,0.106,0.029,0.187,0.029,0.328c0,0.389-0.053,0.908-0.22,1.561c-1.214,4.825-2.233,6.46-2.242,6.477l-0.048,0.078
	l-0.052,0.098C221.69,33.423,221.335,33.802,220.844,34.167z M236.675,189.039l-6.345-4.76h-0.379h-29.87h-2.456
	c0-0.063,0-0.122,0-0.174c0-4.042-1.531-5.321-2.647-6.266l-0.321-0.273l-2.144-1.818c-1.197-1.01-2.557-2.147-2.963-2.553
	c-0.33-0.387-0.836-2.398-0.836-4.112c0-0.298,0.011-0.583,0.046-0.848c0.159-1.28,0.435-2.46,0.629-3.325
	c0,0,0.123-0.557,0.176-0.833c0.31-0.243,1.588-0.694,3.236-0.513c2.631,0.293,5.159,0.488,7.178-0.323
	c2.176-0.866,3.732-2.588,4.162-4.52c3.168,0.241,6.96-2.204,8.407-3.937c0.779-0.934,1.438-2.398,2.186-4.228l0.229,0.099
	c2.475,1.104,5.038,2.242,8.958,1.588c0.347-0.054,0.624-0.086,0.858-0.104c-0.693,0.44-1.594,1.386-3.732,4.163
	c-0.965,1.253-1.444,2.465-1.444,3.612c0,0.288,0.027,0.57,0.09,0.847c0.505,2.354,2.951,3.644,4.73,4.59l0.248,0.13
	c1.589,0.854,3.495,1.537,5.346,2.206l2.879,1.097c1.005,0.429,1.773,1.1,2.672,1.87c0.918,0.8,1.966,1.71,3.442,2.488
	c2.718,1.44,4.232,2.011,6.014,1.563c0,0,0.111-0.021,0.202-0.045c0.086,0.394,0.162,0.977,0.194,1.218
	c0.391,2.939,3.513,3.336,5.569,3.606l0.9,0.124l1.021,0.229c0.433,1.218,0.999,2.357,1.744,3.241
	c0.006,0.01,0.746,0.593,1.303,1.029C249.388,185.508,242.934,187.151,236.675,189.039z M262.342,152.078
	c-3.17,2.991-7.699,7.299-9.742,15.146c-0.499-0.239-1.069-0.593-1.752-1.159c-2.211-1.847-4.658-2.999-7.08-3.347
	c-2.396-0.343-5.618-1.7-8.172-2.841c-0.848-0.389-1.383-0.825-1.497-1.242c-0.135-0.448,0.162-1.025,0.517-1.501
	c0.396-0.54,2.327-1.489,4.62-2.718c2.334-1.247,9.063-7,8.483-10.592c-0.167-1.065-1.006-2.558-2.358-4.906l-1.063-1.854
	c-1.317-2.375-3.804-3.353-6.807-2.672c-2.843,0.643-9.623,1.42-13.763,0.95c2.798-2.31,6.147-3.633,10.034-3.937
	c4.578-0.359,8.61-2.902,11.919-5.743c1.97-1.685,6.055-6.848,7.798-10.183c0.085-0.159,0.163-0.318,0.245-0.471
	c-0.009,0.25-0.022,0.523-0.054,0.823l-0.039,0.659c-0.096,1.641,0.471,5.418-0.229,6.701c-0.89,1.633-1.119,2.08-2.488,2.574
	c-0.545,0.196-0.769,0.125-1.221-0.023c-0.557-0.188-1.325-0.436-2.478-0.018c-3.225,1.173-3.115,2.877-2.963,5.238l0.079,1.545
	c0.032,1.085,0.271,1.883,0.586,2.471c0.146,0.255,0.532,0.769,1.094,1.195c1.175,0.749,2.612,0.543,3.557,0.094
	c0.349-0.164,1.442-0.539,2.592-0.934c1.547-0.53,3.335-1.142,4.785-1.729c1.189,6.431,3.206,12.495,5.939,17.942L262.342,152.078z
	 M281.798,180.016c-0.264-0.265-0.534-0.538-0.577-0.573l-0.197-0.184c-1.073-1.014-3.944-3.716-7.815-3.498
	c-0.881,0.053-1.932,0.217-3.048,0.398c-2.338,0.371-5.53,0.883-6.62-0.018c-0.161-0.14-0.383-0.387-0.406-1.059
	c-0.463-6.582,3.594-11.295,5.912-13.686c6.553,8.516,15.125,14.746,24.787,17.594l0.989-0.006
	C290.51,179.208,286.156,179.557,281.798,180.016z M305.813,165.448c-20.325-0.002-36.859-20.077-36.859-44.746
	c0-24.674,16.534-44.752,36.859-44.758c20.329,0.006,36.862,20.084,36.862,44.758C342.676,145.371,326.143,165.446,305.813,165.448z
	 M348.392,175.083c-0.021,0.672-0.24,0.919-0.407,1.059c-1.086,0.9-4.283,0.389-6.623,0.018c-1.104-0.182-2.154-0.346-3.042-0.398
	c-3.874-0.218-6.737,2.484-7.817,3.498c-0.252,0.222-0.527,0.495-0.759,0.732c-4.327-0.452-8.643-0.796-12.921-1.008h0.765
	c9.686-2.857,18.271-9.117,24.814-17.661C344.708,163.693,348.863,168.431,348.392,175.083z M381.296,184.279l-6.052,4.81
	c-6.33-1.913-12.865-3.58-19.512-4.986c0.415-0.317,0.869-0.698,1.139-1.021c1.971-2.332,2.743-6.38,2.91-9.128
	c0.023-0.033,0.053-0.053,0.088-0.088l1.358-1.941c1.326-1.969,3.133-4.669,4.74-5.357c2.489-1.066,6.972-2.366,8.658-2.366h0.478
	c2.512,0.022,7.747,0.075,9.044-3.167c1.052-2.629-0.324-4.021-1.153-4.852c-0.264-0.265-0.507-0.512-0.612-0.718l-0.301-0.538
	c-0.858-1.482-2.231-3.83,0.359-6.564c0.073-0.036,0.135-0.063,0.202-0.106c0.146-0.104,0.261-0.245,0.343-0.388
	c1.382,3.432,4.076,8.515,8.137,11.625c6.099,4.684,10.711,5.396,11.981,5.502c2.082,0.172,5.01,0.684,5.853,0.965
	c0.516,0.17,1.818,1.784,1.959,3.443c0.229,2.864-0.554,4.852-2.34,5.904c-3.092,1.814-6.526,5.814-6.512,8.463
	c0,0.187,0.029,0.336,0.041,0.51H381.296z"/>
<path fill="#FFFFFF" d="M305.813,75.029c20.744,0.007,37.618,20.494,37.618,45.673c0,25.174-16.874,45.658-37.618,45.66
	c-20.742-0.002-37.612-20.486-37.612-45.66C268.201,95.523,285.071,75.036,305.813,75.029z"/>
<path fill="#787878" d="M297.992,144.135c-0.438,0.653-0.628,0.989-0.448,1.155c0.129,0.123,0.34,0.151,1.615-0.807
	c5.274-3.564,7.409-10.498,9.125-16.067l0.888-2.808c0,0,0.064-0.133,0.097-0.192c0.038,0.063,0.114,0.211,0.243,0.623
	c0.108,0.353,0.813,3.089,1.631,6.261c1.165,4.534,2.617,10.164,2.875,10.988c0.27,0.853,0.316,0.988,0.495,0.978
	c0.151-0.001,0.189-0.158,0.263-0.495l0.117-0.487c0.088-0.308,0.457-2.018,0.976-4.384c1.104-5.072,2.764-12.732,3.361-14.684
	c0-0.002,0.041-0.078,0.047-0.1c0.023,0.021,0.146,0.141,0.196,0.68c0.108,1.194,3.782,16.37,10.979,21.165
	c-0.018-0.018,0.05,0.059,0.05,0.059c0.29,0.293,0.56,0.56,0.758,0.437c0.149-0.089,0.19-0.301-0.07-1.096
	c-6.532-20.421-5.744-47.143-4.939-52.881l0.059-0.318c0.114-0.529,0.17-0.865-0.044-0.953c-0.187-0.08-0.418,0.064-1.118,1.059
	c-2.032,2.871-7.29,16.404-9.056,22.736c-0.041,0.105-0.126,0.335-0.188,0.415c-0.026-0.039-0.076-0.118-0.152-0.409
	c-0.041-0.159-4.998-16.968-8.453-22.041l-0.158-0.258c-0.343-0.594-0.501-0.831-0.694-0.76c-0.16,0.061-0.175,0.275-0.055,0.882
	C308.56,104.048,305.302,129.429,297.992,144.135z"/>
<path fill="#787878" d="M291.231,88.458c-1.519,0-4.286,1.064-5.238,3.923c-0.492,0.983-1.579,1.352-2.631,1.695l-0.103,0.034
	c-1.094,0.418-1.622,0.701-1.622,2.418c0,0.363,0.025,0.781,0.07,1.281c0.208,2.218,0.336,6.662,0.336,12.004
	c0,12.365-0.682,29.553-2.609,35.199c-0.042,0.117-0.156,0.41-0.156,0.682c0,0.153,0.032,0.301,0.146,0.396
	c0.193,0.162,0.505,0.1,0.948-0.183c1.613-1.024,6.972-5.427,8.538-19.136l0.021-0.221c0.076-0.773,0.164-1.648,1.164-2.036
	l0.235-0.079c7.303-2.563,11.331-9.11,11.331-18.443C301.662,91.432,293.428,88.458,291.231,88.458z M295.221,106.142
	c-0.764,12.144-1.218,14.154-3.479,15.336c-1.075,0.565-2.1,1.036-2.762,0.607c-0.619-0.388-0.848-1.472-0.742-3.508
	c0.208-4.194,0.431-22.225,0.431-24.36c0-1.753,0.135-3.637,1.83-3.755l0.004-0.004h0.005c0.636,0,1.328,0.37,1.959,1.035
	C293.505,92.597,295.846,96.24,295.221,106.142z"/>
<path fill="none" d="M224.403,24.839c0-0.135-0.016-0.222-0.03-0.328c-0.764,0.377-1.997,1.375-3.772,3.969l-0.031,0.043
	l-0.032,0.04c-0.367,0.447-0.739,0.847-1.109,1.206l1.409,4.402c0.491-0.367,0.847-0.75,1.007-1.12l0.045-0.098l0.053-0.076
	c0.005-0.019,1.029-1.653,2.247-6.479C224.35,25.748,224.403,25.234,224.403,24.839z"/>
<g>
	<g>
		<path fill="#FFFFFF" d="M243.951,217.012l-1.954,0.577l-2.75-9.302l1.945-0.577L243.951,217.012z"/>
		<path fill="#FFFFFF" d="M245.336,206.51l2.054-0.519l5.319,5.587l-1.646-6.521l1.826-0.46l2.386,9.408l-1.962,0.491l-5.449-5.681
			l1.684,6.635l-1.828,0.46L245.336,206.51z"/>
		<path fill="#FFFFFF" d="M264.174,202.245l0.33,1.654l-2.845,0.567l1.576,7.856l-1.993,0.4l-1.58-7.853l-2.843,0.567l-0.332-1.654
			L264.174,202.245z"/>
		<path fill="#FFFFFF" d="M275.107,202.274l-4.978,0.752l0.299,2.012l4.565-0.688l0.243,1.672l-4.562,0.686l0.372,2.474l5.224-0.787
			l0.266,1.719l-7.19,1.086l-1.445-9.595l6.942-1.048L275.107,202.274z"/>
		<path fill="#FFFFFF" d="M285.309,199.665c0.364,0.114,0.69,0.313,0.961,0.583c0.231,0.226,0.418,0.483,0.57,0.764
			c0.145,0.284,0.238,0.621,0.277,0.999c0.049,0.463-0.024,0.925-0.215,1.388c-0.183,0.468-0.539,0.822-1.057,1.057
			c0.467,0.135,0.808,0.357,1.026,0.671c0.215,0.313,0.355,0.805,0.427,1.484l0.059,0.641c0.046,0.442,0.091,0.744,0.144,0.894
			c0.076,0.243,0.219,0.413,0.423,0.513l0.02,0.246l-2.215,0.213c-0.085-0.211-0.143-0.371-0.184-0.5
			c-0.077-0.27-0.131-0.542-0.163-0.823l-0.102-0.893c-0.067-0.615-0.217-1.014-0.439-1.2c-0.226-0.182-0.617-0.25-1.181-0.197
			l-1.965,0.197l0.373,3.779l-1.974,0.19l-0.954-9.65l4.62-0.454C284.418,199.512,284.934,199.542,285.309,199.665z M281.284,201.5
			l0.254,2.598l2.172-0.217c0.426-0.041,0.743-0.123,0.948-0.255c0.36-0.217,0.517-0.598,0.461-1.14
			c-0.056-0.588-0.278-0.96-0.666-1.121c-0.22-0.097-0.531-0.123-0.945-0.088L281.284,201.5z"/>
		<path fill="#FFFFFF" d="M291.176,198.948l2.115-0.098l4.089,6.547l-0.306-6.722l1.887-0.082l0.438,9.691l-2.02,0.091l-4.188-6.658
			l0.313,6.834l-1.886,0.091L291.176,198.948z"/>
		<path fill="#FFFFFF" d="M306.074,198.526l2.313,0.015l3.37,9.721l-2.195-0.012l-0.627-1.991l-3.571-0.021l-0.666,1.979
			l-2.146-0.012L306.074,198.526z M305.922,204.554l2.485,0.015l-1.2-3.82L305.922,204.554z"/>
		<path fill="#FFFFFF" d="M321.472,199.024l-0.085,1.689l-2.898-0.152l-0.404,8.008l-2.034-0.105l0.406-8.006l-2.898-0.146
			l0.085-1.684L321.472,199.024z"/>
		<path fill="#FFFFFF" d="M325.99,209.145l-2.023-0.172l0.834-9.672l2.032,0.176L325.99,209.145z"/>
		<path fill="#FFFFFF" d="M337.356,209.573c-0.817,0.653-1.915,0.893-3.282,0.715c-1.376-0.176-2.375-0.683-3.007-1.525
			c-0.855-1.04-1.175-2.425-0.952-4.149c0.229-1.763,0.888-3.016,1.974-3.774c0.816-0.655,1.912-0.896,3.285-0.72
			c1.37,0.176,2.374,0.685,3.004,1.528c0.855,1.007,1.171,2.387,0.94,4.148C339.104,207.517,338.445,208.78,337.356,209.573z
			 M336.29,207.933c0.536-0.526,0.873-1.32,1.014-2.397c0.138-1.069,0.012-1.927-0.378-2.574c-0.396-0.641-0.975-1.013-1.766-1.118
			c-0.784-0.1-1.452,0.114-2,0.636c-0.547,0.523-0.887,1.316-1.024,2.395c-0.135,1.074-0.006,1.933,0.384,2.576
			c0.4,0.642,0.986,1.014,1.777,1.113C335.084,208.668,335.755,208.455,336.29,207.933z"/>
		<path fill="#FFFFFF" d="M343.921,201.65l2.075,0.39l2.507,7.299l1.224-6.611l1.854,0.34l-1.763,9.542l-1.982-0.368l-2.579-7.432
			l-1.241,6.726l-1.856-0.337L343.921,201.65z"/>
		<path fill="#FFFFFF" d="M358.602,204.639l2.251,0.539l1.061,10.232l-2.132-0.512l-0.158-2.076l-3.476-0.838l-1.098,1.775
			l-2.085-0.495L358.602,204.639z M357.082,210.477l2.412,0.58l-0.299-3.996L357.082,210.477z"/>
		<path fill="#FFFFFF" d="M367.707,206.964l1.953,0.57l-2.246,7.643l4.639,1.364l-0.489,1.666l-6.591-1.941L367.707,206.964z"/>
	</g>
	<g>
		<path fill="#FFFFFF" d="M243.627,199.547c-0.406,0.618-1.111,1.068-2.115,1.367l-1.921,0.563l0.974,3.335l-1.95,0.573
			l-2.724-9.313l3.98-1.165c0.915-0.272,1.721-0.247,2.409,0.076c0.684,0.322,1.179,0.982,1.473,1.995
			C244.075,198.077,244.031,198.936,243.627,199.547z M241.139,196.628c-0.303-0.135-0.672-0.141-1.106-0.012l-1.715,0.502
			l0.801,2.736l1.718-0.504c0.434-0.129,0.743-0.333,0.915-0.632c0.172-0.29,0.196-0.678,0.049-1.164
			C241.663,197.071,241.441,196.76,241.139,196.628z"/>
		<path fill="#FFFFFF" d="M250.323,202.092l-2.2-9.446l1.981-0.459l0.838,3.594l3.627-0.84l-0.839-3.602l1.978-0.465l2.206,9.449
			l-1.98,0.462l-0.979-4.204l-3.624,0.848l0.976,4.203L250.323,202.092z"/>
		<path fill="#FFFFFF" d="M264.975,198.956l-2.001,0.375l-1.772-9.537l1.996-0.37L264.975,198.956z"/>
		<path fill="#FFFFFF" d="M268.777,188.462l2.01-0.292l1.132,7.884l4.784-0.688l0.25,1.723l-6.806,0.977L268.777,188.462z"/>
		<path fill="#FFFFFF" d="M283.553,196.378l-2.026,0.203l-0.977-9.652l2.02-0.206L283.553,196.378z"/>
		<path fill="#FFFFFF" d="M295.063,191.341c-0.536,0.51-1.328,0.792-2.371,0.854l-1.994,0.117l0.199,3.465l-2.031,0.124
			l-0.563-9.686l4.141-0.241c0.96-0.06,1.73,0.148,2.332,0.617c0.599,0.467,0.93,1.227,0.986,2.271
			C295.827,190.009,295.594,190.835,295.063,191.341z M293.291,187.935c-0.262-0.202-0.622-0.284-1.074-0.259l-1.786,0.1
			l0.165,2.852l1.786-0.105c0.455-0.021,0.804-0.159,1.035-0.41c0.239-0.243,0.341-0.617,0.312-1.12
			C293.702,188.489,293.555,188.134,293.291,187.935z"/>
		<path fill="#FFFFFF" d="M314.731,185.769l2.905,0.083l-0.287,9.696l-1.886-0.053l0.196-6.563c0.006-0.186,0.015-0.451,0.029-0.789
			c0.015-0.341,0.029-0.6,0.029-0.791l-2.067,8.089l-1.965-0.061l-1.572-8.189c-0.006,0.185-0.012,0.443-0.018,0.784
			c-0.006,0.34-0.009,0.61-0.018,0.795l-0.193,6.558l-1.882-0.059l0.283-9.694l2.94,0.088l1.528,7.672L314.731,185.769z"/>
		<path fill="#FFFFFF" d="M329.989,195.681c-0.793,0.683-1.88,0.962-3.259,0.837c-1.376-0.128-2.397-0.6-3.057-1.417
			c-0.884-1.008-1.256-2.383-1.101-4.113c0.164-1.764,0.772-3.044,1.836-3.837c0.793-0.683,1.882-0.963,3.259-0.84
			c1.373,0.13,2.395,0.601,3.051,1.419c0.896,0.974,1.262,2.34,1.095,4.105C331.658,193.571,331.05,194.851,329.989,195.681z
			 M328.859,194.083c0.521-0.544,0.831-1.35,0.928-2.433c0.1-1.071-0.056-1.924-0.468-2.554c-0.407-0.633-1.014-0.98-1.801-1.057
			c-0.794-0.07-1.452,0.165-1.979,0.707c-0.527,0.545-0.838,1.351-0.935,2.434c-0.096,1.07,0.059,1.931,0.475,2.559
			c0.419,0.625,1.025,0.973,1.821,1.043C327.691,194.86,328.344,194.625,328.859,194.083z"/>
		<path fill="#FFFFFF" d="M343.73,188.888c0.325,0.203,0.591,0.475,0.787,0.81c0.173,0.273,0.29,0.565,0.366,0.877
			c0.07,0.313,0.076,0.661,0.026,1.037c-0.073,0.453-0.261,0.887-0.548,1.293c-0.298,0.405-0.726,0.661-1.285,0.765
			c0.416,0.247,0.688,0.541,0.826,0.9c0.129,0.353,0.146,0.872,0.053,1.537l-0.103,0.645c-0.07,0.438-0.097,0.739-0.082,0.897
			c0.012,0.258,0.105,0.452,0.278,0.6l-0.035,0.239l-2.205-0.333c-0.023-0.219-0.041-0.396-0.047-0.529
			c-0.012-0.277,0-0.555,0.041-0.838l0.117-0.895c0.088-0.61,0.044-1.03-0.129-1.269c-0.17-0.231-0.533-0.391-1.089-0.477
			l-1.956-0.294l-0.568,3.752l-1.962-0.299l1.45-9.593l4.582,0.697C342.904,188.523,343.399,188.686,343.73,188.888z
			 M339.376,189.683l-0.383,2.574l2.151,0.325c0.419,0.065,0.744,0.063,0.979-0.008c0.407-0.129,0.646-0.457,0.729-0.994
			c0.091-0.582-0.035-1.001-0.365-1.258c-0.19-0.141-0.489-0.243-0.902-0.305L339.376,189.683z"/>
		<path fill="#FFFFFF" d="M357.056,191.44c0.322,0.225,0.57,0.507,0.755,0.853c0.144,0.282,0.249,0.584,0.311,0.901
			c0.044,0.316,0.038,0.663-0.041,1.034c-0.097,0.455-0.305,0.87-0.626,1.261c-0.319,0.387-0.762,0.617-1.318,0.689
			c0.398,0.265,0.65,0.58,0.765,0.945c0.12,0.361,0.1,0.878-0.032,1.543l-0.141,0.632c-0.085,0.437-0.138,0.732-0.132,0.894
			c0,0.254,0.085,0.457,0.246,0.611l-0.056,0.243l-2.173-0.466c-0.018-0.219-0.026-0.397-0.018-0.532
			c0-0.272,0.023-0.554,0.091-0.835l0.173-0.877c0.114-0.607,0.097-1.036-0.059-1.277c-0.164-0.246-0.519-0.422-1.068-0.541
			l-1.936-0.405l-0.782,3.71l-1.94-0.41l2.005-9.485l4.53,0.955C356.256,191.03,356.742,191.218,357.056,191.44z M352.669,191.982
			l-0.538,2.553l2.131,0.448c0.425,0.089,0.744,0.106,0.984,0.046c0.407-0.104,0.676-0.422,0.793-0.952
			c0.111-0.572,0.009-0.995-0.307-1.271c-0.179-0.153-0.478-0.276-0.873-0.36L352.669,191.982z"/>
		<path fill="#FFFFFF" d="M363.559,202.75l-1.965-0.506l2.425-9.397l1.964,0.506L363.559,202.75z"/>
		<path fill="#FFFFFF" d="M370.898,201.676c-0.067,0.441-0.053,0.793,0.056,1.051c0.202,0.483,0.68,0.838,1.449,1.068
			c0.454,0.139,0.844,0.203,1.154,0.186c0.605-0.027,0.98-0.299,1.145-0.823c0.094-0.308,0.032-0.583-0.185-0.837
			c-0.217-0.24-0.597-0.516-1.139-0.814l-0.917-0.521c-0.898-0.518-1.499-0.96-1.794-1.329c-0.513-0.62-0.624-1.39-0.343-2.303
			c0.252-0.83,0.77-1.426,1.543-1.793c0.778-0.365,1.754-0.365,2.931-0.008c0.986,0.3,1.751,0.817,2.29,1.543
			c0.535,0.739,0.667,1.598,0.403,2.599l-1.874-0.57c0.141-0.571,0.015-1.041-0.374-1.418c-0.258-0.247-0.618-0.441-1.072-0.582
			c-0.497-0.154-0.931-0.178-1.294-0.064c-0.363,0.106-0.6,0.347-0.711,0.705c-0.1,0.336-0.026,0.625,0.213,0.882
			c0.164,0.167,0.527,0.419,1.11,0.761l1.487,0.87c0.655,0.384,1.121,0.77,1.385,1.159c0.425,0.609,0.507,1.323,0.258,2.155
			c-0.264,0.846-0.806,1.449-1.628,1.812c-0.82,0.367-1.821,0.367-3.013,0.004c-1.21-0.369-2.085-0.94-2.612-1.704
			c-0.523-0.768-0.638-1.628-0.343-2.601L370.898,201.676z"/>
	</g>
</g>
<g>
	<path fill="#FFFFFF" d="M305.805,167.713L305.805,167.713c0.006,0,0.006,0,0.009,0c0.006,0,0.009,0,0.015,0l0,0
		c21.564-0.014,39.108-21.101,39.108-47.012c0-25.919-17.544-47.001-39.108-47.02c-0.006,0-0.009,0-0.015,0
		c-0.003,0-0.003,0-0.009,0c-21.571,0.019-39.109,21.101-39.109,47.02C266.695,146.613,284.233,167.7,305.805,167.713z
		 M305.813,75.944c20.329,0.006,36.862,20.084,36.862,44.758c0,24.669-16.533,44.744-36.862,44.746
		c-20.325-0.002-36.859-20.077-36.859-44.746C268.954,96.028,285.488,75.95,305.813,75.944z"/>
	<path fill="#FFFFFF" d="M309.655,25.135c0-2.272-1.851-4.125-4.127-4.125c-2.271,0-4.124,1.854-4.124,4.125
		c0,2.278,1.854,4.125,4.124,4.125C307.805,29.26,309.655,27.414,309.655,25.135z M303.656,25.135c0-1.031,0.84-1.876,1.872-1.876
		c1.031,0,1.869,0.845,1.869,1.876c0,1.034-0.838,1.875-1.869,1.875C304.496,27.011,303.656,26.169,303.656,25.135z"/>
	<path fill="#FFFFFF" d="M451.561,86.973c0-0.827,0.267-1.718,0.662-2.452c0.469-0.767,0.986-1.772,0.986-2.746
		c0-0.396-0.085-0.79-0.298-1.162c-0.791-1.353-2.615-1.287-3.941-1.245l-0.797,0.007c-0.365-0.071-1.282-0.441-2.172-0.809
		c-1.604-0.646-3.423-1.381-4.682-1.54c-1.049-0.131-2.325,0.204-3.807,0.587c-1.555,0.406-3.326,0.87-4.723,0.696
		c-1.285-0.153-3.048-0.872-4.605-1.509c-4.313-1.659-8.269-0.759-11.007,0.291c-3.964,1.612-6.969,4.254-8.807,7.828
		c-3.631,7.021-2.097,16.103,0.854,21.568c1.215,2.242,5.525,9.526,7.794,12.633c0.064,0.093,0.149,0.169,0.237,0.23
		c-0.047,0.018-0.079,0.029-0.079,0.029c-3.238,1.316-3.727,5.153-3.727,7.334c0,0.755,0.061,1.313,0.084,1.496
		c0.141,1.211,0.542,1.959,1.201,2.236c0.441,0.187,0.937,0.123,1.332-0.171c0.015-0.014,1.938-1.426,4.614-1.183
		c2.205,0.206,6.383,1.786,6.383,6.283c0,4.22-3.487,8.941-8.131,8.941c-4.005,0-6.359-1.924-6.942-4.095
		c-0.365-4.281-1.76-7.935-2.415-8.956c-0.299-0.461-0.668-0.814-1.063-1.193c-1.277-1.241-3.23-3.116-3.698-11.341
		c-0.513-9.068-4.202-17.699-6.893-23.351c0.565,0.133,1.174,0.187,1.81,0.105c3.033-0.367,3.145-3.772,3.256-7.068l0.053-1.623
		c0.123-2.517,0.931-2.707,2.269-3.016l0.797-0.213c1.728-0.531,2.082-1.331,2.082-2.689c0-0.418-0.035-0.893-0.076-1.425
		l-0.044-0.799c-0.009-0.089-0.015-0.169-0.015-0.241c0-1.299,0.743-1.713,2.076-2.005l0.26-0.06
		c0.814-0.205,1.225-0.426,2.029-0.866l0.366-0.204c0.939-0.512,1.218-1.302,1.218-2.096c0-0.77-0.258-1.54-0.439-2.087
		l-0.053-0.159c-0.104-0.301-0.172-0.52-0.172-0.741c0-0.441,0.289-0.864,1.268-1.885c1.15-1.21,1.481-2.253,1.481-3.074
		c0-0.915-0.407-1.562-0.604-1.877l-0.053-0.078c-0.24-0.406-0.526-0.999-0.608-1.981c0.097-0.45,1.355-1.525,1.968-2.048
		l1.306-1.196c0.611-0.67,0.89-1.545,0.89-2.324c0-0.598-0.164-1.135-0.451-1.491c-0.447-0.548-1.168-0.679-1.759-0.326l0.087-0.05
		c-2.491,1.215-5.422-1.113-7.706-3.273c-0.919-0.877-1.862-3.128-2.702-5.112c-0.741-1.775-1.385-3.317-2.114-4.229
		c-0.63-0.801-1.423-1.584-2.193-2.335c-1.071-1.032-2.166-2.103-2.831-3.238c-0.574-0.953-0.863-2.528-1.13-3.922
		c-0.275-1.453-0.542-2.82-1.107-3.73c-0.541-0.865-1.247-1.094-1.744-1.138c-1.348-0.115-2.451,1.042-2.665,1.277
		c-1.64,1.644-7.422,3.583-9,3.583l-2.841-0.053c-2.151-0.051-4.594-0.112-5.809-0.045c-1.235,0.065-2.46,0.688-3.643,1.289
		c-0.819,0.416-1.66,0.839-2.278,0.947c-0.605,0.098-1.402,0.053-2.313,0c-1.338-0.07-3.01-0.161-4.772,0.2
		c-1.241,0.257-2.103,0.812-2.551,1.653c-0.711,1.316-0.111,2.807,0.173,3.522c0.003,0.023,0.305,0.667,0.305,0.667
		c0.489,1.023,0.718,1.671,0.41,1.934c-1.604,1.354-0.958,3.548-0.738,4.271c0.226,0.776,0.642,1.865,1.596,2.349
		c0.612,0.311,1.309,0.316,2.094,0.034l-0.097,0.029c1.455-0.399,4.611-0.259,5.771,0.661c0.313,0.244,0.348,0.441,0.342,0.624
		c-0.053,1.209-0.196,1.265-2.131,1.645l-1.76,0.385c-2.217,0.569-3.051,1.662-3.364,2.48c-0.275,0.731-0.237,1.53,0.1,2.038
		l0.512,0.621c0.495,0.57,1.336,1.514,2.313,2.891c1.016,1.422,2.062,1.707,2.752,1.699c0.882-0.018,1.569-0.498,2-1.011
		c2.261-1.673,4.723-2.035,6.38-2.149c1.396-0.1,4.635-0.895,6.72-1.527c0.006,0.229,0.018,0.451,0.018,0.686
		c0,0.824-0.064,1.632-0.237,2.126l-0.088,0.269c-2.137,6.415-7.047,9.951-14.607,10.51l-4.731,0.292
		c-9.413,0.509-15.699,0.853-15.699,10.525c0,0,0,0.003,0,0.009c-1.518,0.117-2.929-0.045-4.185-0.359l-0.164-0.043
		c-0.36-0.513-0.734-1.019-1.109-1.519c-3.297-4.293-7.007-7.916-11.035-10.813c-2.574-5.646-1.438-12.502,1.335-14.677
		c0.644,0.41,1.402,0.653,2.216,0.653c2.275,0,4.126-1.853,4.126-4.13c0-0.561-0.111-1.09-0.316-1.576
		c0.416,0.115,0.85,0.186,1.3,0.186c2.656,0,4.808-2.163,4.808-4.813c0-0.863-0.23-1.675-0.626-2.375
		c0.325,0.063,0.655,0.092,1.004,0.092c3.18,0,5.763-2.58,5.763-5.763c0-2.226-1.28-4.16-3.139-5.121
		c2.374-0.721,4.09-2.918,4.09-5.513c0-3.177-2.582-5.763-5.762-5.763c-0.923,0-1.801,0.221-2.571,0.617
		c0.229-0.653,0.36-1.349,0.36-2.083c0-3.441-2.799-6.238-6.245-6.238c-2.337,0-4.381,1.297-5.452,3.219
		c-0.548-2.048-2.418-3.558-4.635-3.558c-2.48,0-4.526,1.888-4.784,4.3c-0.753-0.876-1.874-1.438-3.124-1.438
		c-1.707,0-3.18,1.042-3.801,2.521h-1.092c-2.357,0-2.841-1.913-2.841-2.425c0-1.518-1.385-2.578-3.361-2.578h-2.497h-2.491
		c-1.98,0-3.367,1.061-3.367,2.578c0,0.512-0.484,2.425-2.837,2.425h-0.936c-0.625-1.479-2.092-2.521-3.802-2.521
		c-1.246,0-2.372,0.562-3.124,1.438c-0.257-2.412-2.305-4.3-4.783-4.3c-2.224,0-4.083,1.51-4.635,3.558
		c-1.071-1.922-3.109-3.219-5.459-3.219c-3.437,0-6.238,2.797-6.238,6.238c0,0.733,0.133,1.43,0.361,2.083
		c-0.778-0.396-1.644-0.617-2.576-0.617c-3.177,0-5.767,2.586-5.767,5.763c0,2.595,1.729,4.792,4.093,5.513
		c-1.858,0.961-3.133,2.895-3.133,5.121c0,3.183,2.587,5.763,5.76,5.763c0.346,0,0.678-0.029,1.012-0.092
		c-0.397,0.7-0.631,1.512-0.631,2.375c0,2.649,2.147,4.813,4.803,4.813c0.451,0,0.885-0.07,1.299-0.186
		c-0.199,0.485-0.313,1.015-0.313,1.576c0,2.277,1.851,4.13,4.127,4.13c0.9,0,1.73-0.296,2.41-0.784
		c2.911,2.189,3.438,9.313,1.048,14.679c-4.097,2.918-7.876,6.583-11.214,10.942c-4.15,5.425-7.438,11.71-9.753,18.399
		c0.506-4.143,0.114-7.786-1.192-10.902c-4.184-9.937-13.041-13.691-18.945-16.643l-3.06-1.598
		c-4.777-2.728-7.084-5.787-8.605-7.807l-1.065-1.358c-0.054-0.063-0.091-0.106-0.133-0.159c0.115,0.031,0.243,0.076,0.362,0.096
		c1.713,0.275,4.312,1.192,5.686,2.248l1.841,1.547c1.568,1.357,2.64,2.27,3.229,2.6c1.643,0.922,4.381,0.729,5.525-0.236
		c0.499-0.424,0.656-1.017,0.656-1.598c0-0.773-0.277-1.531-0.406-1.88c-0.101-0.28-0.162-0.491-0.221-0.68
		c0.085,0.038,0.156,0.069,0.22,0.1l0.988,0.406c1.73,0.493,3.344-0.665,4.178-2.032c0.99-1.615,0.805-4.41-1.933-6.723
		c-1.394-1.177-5.395-5.112-8.613-8.28c-2.545-2.511-4.56-4.492-5.197-5.04c-0.588-0.499-1.539-1.588-1.948-2.159
		c0.339-0.882,0.588-1.924,0.003-2.682c-0.612-0.802-1.627-0.67-2.173-0.601c0,0-0.288,0.027-0.317,0.034
		c-0.053-0.017-0.132-0.034-0.132-0.034c-0.085-0.02-0.187-0.043-0.292-0.061l-0.092,0.032c-0.035-0.008-0.095-0.018-0.166-0.032
		c0.645-1.458,1.383-3.594,2.113-6.506c0.819-3.229,0.355-6.096-1.263-7.853c-1.152-1.255-2.853-1.812-4.659-1.52
		c-2.906,0.47-5.231,2.713-6.755,4.582l-0.585-1.817l-1.165,0.377l-5.53,1.782l0.638,1.968c-2.353-0.667-5.69-1.213-8.424,0.151
		c-1.642,0.819-2.695,2.262-2.898,3.956c-0.278,2.375,1.022,4.966,3.563,7.111c0.947,0.794,1.776,1.441,2.515,1.978
		c-0.148,0.106-0.291,0.213-0.399,0.293c-0.781,0.661-1.504,1.412-2.148,2.088l-0.858,0.908c-3.838,3.418-8.832,5.836-13.641,6.454
		c-0.63,0.053-1.158,0.53-1.264,1.182c-0.194,1.171,1.051,2.548,3.089,3.424c2.039,0.875,2.479,3.565,1.456,9l-0.044,0.211
		c-0.098,0.479-0.263,1.288,0.369,1.883c0.68,0.636,1.7,0.508,3.466,0.019l0.329-0.089c0.247-0.071,0.478-0.136,0.706-0.194
		c-0.076,0.288-0.155,0.685-0.236,0.971l-0.114,0.535l-0.1,0.531c-0.229,1.246-0.52,2.781-0.52,4.193
		c0,0.82,0.093,1.594,0.358,2.247c0.688,1.721,2.373,4.46,3.344,5.431c0.595,0.59,1.228,0.879,1.883,0.854
		c0.956-0.051,1.633-0.734,2.067-1.253c0,0,0.024-0.036,0.042-0.06c0.12,0.271,0.271,0.618,0.469,1.173l0.034,0.106
		c0.661,1.897,2.045,5.841,7.38,7.445c0.969,0.284,2.077,0.55,3.057-0.01c0.702-0.396,1.183-1.137,1.462-2.266
		c0.141-0.559,0.193-1.166,0.254-1.759c0.01-0.137,0.023-0.296,0.038-0.459c0.1,0.106,0.199,0.217,0.326,0.363
		c1.936,2.624,4.839,8.445,4.839,14.846c0,1.647-0.19,3.333-0.639,5.013c-0.727,2.681-1.612,4.687-2.4,6.457
		c-0.57,1.283-0.981,2.519-1.438,3.707c-1.624,1.696-5.517,3.85-8.094,5.28l-1.569,0.88c-2.484,1.414-9.864,8.666-10.396,18.24
		c-0.009,0.17-0.023,0.34-0.029,0.516c-4.36,1.489-7.24,1.268-8.797-0.663c-3.319-4.097-0.812-8.184,2.813-13.099l1.131-1.563
		l1.132-1.523c0,0,0.988-1.23,1.067-1.359c0.052,0.258,0.1,0.51,0.155,0.813l0.443,1.939l0.396,1.537
		c0.285,1.348,1.165,1.612,1.524,1.665c0.506,0.07,1.353,0.947,3.606-3.253c0.476-0.891,1.393-2.426,2.417-4.024l1.694-2.677
		c1.786-2.913,1.366-4.89-1.435-6.819c-1.104-0.753-1.027-1.147-0.059-3.008l0.284-0.569c0.889-1.765,4.51-13.208-0.75-21.321
		c-3.67-5.671-8.849-10.921-15.866-9.318c-4.01,0.912-6.663,2.429-9.224,3.904c-2.526,1.447-4.895,2.832-8.366,3.335
		c-2.208,0.324-7.576,2.098-7.803,2.172c-0.713,0.234-1.686,0.564-1.736,1.602c-0.009,0.028-0.009,0.053-0.009,0.081
		c0,1.119,1.216,1.671,2.752,2.373c1.784,0.806,2.558,1.459,2.941,1.916c-0.836,1.343-4.229,5.048-4.937,5.542
		c-0.66,0.391-1.044,1.025-1.044,1.702c0,0.11,0.013,0.221,0.032,0.335c0.211,1.13,1.384,1.875,3.479,2.228
		c0.006,0,0.021,0.007,0.035,0.007l-0.035,0.36c-0.227,2.347-0.57,5.898,0.958,8.261l0.318,0.485
		c1.251,1.933,3.855,5.938,3.961,7.345c0.039,0.465-0.122,1.083-0.274,1.683c-0.259,1.023-0.526,2.083,0.018,2.97
		c0.204,0.341,0.617,0.782,1.405,0.96c2.433,0.558,3.34-1.394,4.068-2.959l0.406-0.843c0.988-1.98,2.354-4.695,3.997-7.449
		l1.074-1.645c1.917-2.855,4.503-7.792,3.931-11.813c0.4,0.009,0.72,0.027,0.818,0.035c0.46,0.068,0.944,0.129,1.421,0.01
		l0.452-0.093c0.837-0.158,1.982-0.378,2.248-1.461c0.255-1.069-0.66-1.945-1.581-2.665c-1.164-0.903-2.452-4.677-1.798-7.106
		c0.484-1.766,1.323-2.719,2.566-2.937c2.526-0.424,6.471,2.273,8.321,4.978c1.598,2.32,2.292,5.143,2.292,7.502
		c0,0.828-0.076,1.594-0.224,2.248c-0.577,2.587-1.077,2.843-1.091,2.849c-0.103,0.026-0.456-0.085-0.665-0.149l-0.839-0.222
		c-1.811-0.325-3.957,0.15-5.341,1.187l-0.449,0.317c-1.075,0.724-2.541,1.708-2.344,3.195c0.179,1.347,1.621,1.994,2.687,2.36
		c0.826,0.286,1.047,0.754,1.14,1.087c0.496,1.72-1.19,4.878-2.484,6.462l-0.659,0.8l-1.587,2.118
		c-6.376,8.184-8.441,16.091-5.684,21.703c1.667,3.387,5.828,7.405,16.192,7.432c-0.431,2.258-1.04,3.733-1.974,5.225
		c-2.533,4.042-6.824,4.458-9.134,4.683l-0.747,0.083l-0.579,0.041c-0.687,0.039-1.627,0.082-2.337,0.887
		c-0.899,1.014-1.149,2.953-0.888,6.9c0.349,5.24-0.262,8.109-0.709,10.211c-0.17,0.821-0.363,1.712-0.416,2.436
		c-0.031,0.459-0.195,1.219-0.336,1.833c-0.194,0.807-0.398,1.68-0.398,2.501c0,0.649,0.133,1.277,0.501,1.809
		c0.453,0.651,1.149,1.041,2.091,1.164l2.37,0.143c0.495,0.016,1.131,0.026,1.525,0.08c-0.008,0.041-0.03,0.084-0.03,0.084
		c-0.064,0.171-0.129,0.348-0.191,0.521h-26.42c0,0,7.819,13.55,8.391,14.536c-0.517,1.014-7.765,15.104-7.765,15.104h71.2
		l4.024,13.714c22.034-8.043,48.277-12.648,72.099-12.648h0.126c23.833,0,50.114,4.582,72.159,12.631l4.006-13.696h70.086
		c0,0-7.241-14.09-7.759-15.104c0.559-0.986,8.389-14.536,8.389-14.536h-1.95h-26.744h-1.607c0.325-2.241,0.434-4.568,0.331-5.56
		c-0.076-0.83-0.366-2.3-0.668-3.854c-0.305-1.553-0.682-3.488-0.682-4.027c0-1.532,0.038-6.31,0.161-7.35
		c0.374-3.158-3.011-5.683-4.639-6.891l-0.532-0.41c-1.479-1.196-2.905-2.732-4.199-4.289c4.076,1.404,11.516,2.783,17.878-4.842
		c1.713-2.092,2.896-4.863,3.61-6.521l0.114-0.274c0.645-1.49,2.249-3.961,2.734-4.39c1.521-1.354,7.927-9.756,5.897-13.154
		c-1.385-2.303-5.065-0.961-6.277-0.523c-0.674,0.25-1.02-0.219-1.484-1.985c-0.393-1.464-1.242-5.212-1.31-5.764l-0.006-0.124
		c-0.073-0.685-0.207-2.1-1.338-2.664c-0.705-0.35-1.528-0.237-2.444,0.321c-0.448,0.278-0.82,0.371-1.116,0.278
		c-0.365-0.119-0.655-0.525-0.808-0.873c-0.316-0.74-0.855-2.559-1.183-3.641l-0.255-0.843l-0.141-0.564
		c-0.17-0.769-0.407-1.81-1.423-2.08c-0.987-0.249-1.815,0.5-2.504,1.271c-0.547,0.609-1.036,1.198-1.476,1.78
		c-6.544-5.843-5.791-11.277-5.341-14.578c0.662-4.03,2.305-6.7,4.896-7.97c3.804-1.867,8.521-0.213,9.104,0.1l0.551,0.282
		c0.251,0.129,0.726,0.358,0.978,0.553c-0.07,0.075-0.164,0.169-0.346,0.293l-0.105,0.072l-0.088,0.094
		c-1.634,1.805-2.283,3.689-2.283,5.564c0,4.579,3.87,9.079,6.787,12.168c0,0.018-0.006,0.033-0.006,0.054
		c0,4.162,1.013,10.552,3.867,13.138c1.112,1.009,2.551,1.474,3.988,1.332c2.471-0.239,5.929-2.353,6.529-2.621
		c0.603-0.271,2.351-2.013-0.472-2.749c-2.819-0.736-2.088-3.288-1.947-4.566c0.173-1.665,0.981-3.765,2.229-6.483
		c0.384-0.847,0.539-1.794,0.539-2.764c0-1.782-0.524-3.617-1.034-4.959c0.463-0.047,0.955-0.141,1.479-0.329
		c1.473-0.52,2.445-1.408,2.741-2.496c0.062-0.236,0.094-0.476,0.094-0.713c0-0.709-0.281-1.434-0.823-2.086
		C451.719,88.19,451.561,87.599,451.561,86.973z M363.315,73.038l4.77-0.296c5.885-0.428,13.536-2.877,16.59-12.047l0.076-0.231
		c0.627-1.766,0.278-4.882,0.234-5.231l-0.17-1.458l-1.373,0.541c-1.414,0.57-6.047,1.747-7.479,1.853
		c-1.127,0.085-4.567,0.326-7.642,2.639l-0.161,0.115l-0.108,0.165c-0.062,0.095-0.226,0.237-0.346,0.237
		c-0.158,0.004-0.477-0.194-0.881-0.75c-1.049-1.465-1.959-2.512-2.454-3.071c0,0-0.117-0.138-0.214-0.253
		c0.035-0.268,0.381-0.823,1.842-1.204l1.625-0.353c1.889-0.37,3.839-0.749,3.95-3.791c0-0.039,0-0.074,0-0.109
		c0-0.923-0.413-1.737-1.194-2.355c-1.991-1.581-6.056-1.542-7.763-1.078l-0.047,0.013l-0.047,0.014
		c-0.184,0.07-0.263,0.07-0.292,0.07c-0.021-0.013-0.217-0.176-0.457-0.967c-0.158-0.551-0.22-0.939-0.22-1.217
		c0-0.477,0.173-0.618,0.258-0.689c0.696-0.594,0.939-1.31,0.939-2.021c0-1.008-0.479-2.013-0.778-2.62l-0.229-0.504
		c-0.129-0.32-0.357-0.891-0.357-1.309c0-0.123,0.018-0.235,0.062-0.323c0.123-0.215,0.486-0.398,1.021-0.506
		c1.477-0.306,2.914-0.228,4.185-0.151c1.007,0.053,1.959,0.106,2.819-0.035c0.97-0.16,1.956-0.671,2.928-1.161
		c0.97-0.494,1.974-1.011,2.735-1.046c1.133-0.061,3.634-0.006,5.642,0.045l2.891,0.054c1.981,0,8.429-2.075,10.648-4.29
		c0.261-0.292,0.624-0.529,0.797-0.563c0.021,0.035,0.044,0.07,0.044,0.07c0.345,0.548,0.582,1.771,0.802,2.954
		c0.302,1.571,0.639,3.353,1.405,4.646c0.826,1.395,2.032,2.573,3.2,3.713c0.753,0.731,1.464,1.423,2.003,2.112
		c0.533,0.676,1.177,2.213,1.813,3.706c0.963,2.295,1.953,4.667,3.215,5.873c1.484,1.405,5.156,4.881,8.945,4.106
		c-0.047,0.068-0.062,0.142-0.12,0.201l-1.093,0.997c-1.364,1.16-2.772,2.359-2.772,3.75c0,0.047,0,0.1,0,0.153
		c0.123,1.491,0.595,2.427,0.935,3.007l0.078,0.133c0.12,0.184,0.249,0.388,0.249,0.67c0,0.348-0.19,0.813-0.849,1.502
		c-1.438,1.507-1.912,2.459-1.912,3.405c0,0.477,0.12,0.953,0.308,1.494l0.056,0.173c0.123,0.37,0.34,1.018,0.34,1.333
		c0,0.048-0.009,0.083-0.015,0.114c-0.012,0.004-0.047,0.027-0.047,0.027l-0.372,0.206c-0.75,0.411-0.952,0.525-1.481,0.652
		l-0.19,0.049c-2.565,0.558-3.862,1.97-3.862,4.201c0,0.133,0,0.265,0.012,0.398l0.062,0.812c0.032,0.496,0.062,1.006,0.062,1.342
		c0,0.131-0.006,0.213-0.023,0.284c-0.056,0.032-0.167,0.08-0.469,0.176l-0.646,0.166c-1.511,0.353-3.798,0.886-4,5.104l-0.07,1.659
		c-0.105,3.243-0.261,4.778-1.256,4.896c-1.883,0.229-3.262-1.39-3.467-1.844c-0.19-0.424-0.539-1.854-0.604-2.042
		c-1.423-4.347-0.957-3.306-2.989,0.521c-0.311,0.521-0.608,1.228-1.065,2.075c-1.631,3.012-2.644,3.424-3.335,3.926l-0.478,0.257
		c-0.149,0.072-0.372,0.078-0.485,0.035c-0.246-0.105-0.592-0.574-0.82-1.576c-0.39-1.682-0.74-3.91-0.907-6.011
		c-0.126-3.038,3.104-6.221-3.429-1.019c0,0-0.823,0.548-1.283,0.829c-0.854,0.53-5.823,2.73-7.229,3.313
		c-0.489,0.21-2.161,0.335-2.17-0.097c0-0.063-0.006-0.239,0.085-0.547c0.009-0.063,0.021-0.109,0.029-0.17
		c0.788-2.742,2.056-2.16-2.45-1.729l-2.152,0.115l-0.677,0.053c-1.153,0.098-2.743,0.236-3.555-0.487
		c-0.418-0.377-0.638-1.029-0.661-1.939c-0.091-4.143,2.989-6.266,5.077-6.684c2.755-0.554,13.404-1.694,18.121-2.106
		c3.864-0.336,10.895-1.83,14.587-8.084c1.335-2.267,2.989-11.545,1.783-16.945c-0.384-1.718-2.17-4.395-1.074,0.512
		c1.089,4.703-1.515,13.361-2.656,15.286c-3.177,5.382-9.407,6.683-12.836,6.982c-4.652,0.401-15.428,1.553-18.364,2.142
		c-2.538,0.506-5.065,2.383-6.228,5.254c-1.025,1.454-3.379,4.778-5.689,4.719c-2.696-0.071-4.787-3.289-4.787-6.012
		C349.519,73.789,353.557,73.567,363.315,73.038z M347.665,83.568c0.671,3.324,3.364,6.582,6.816,6.67
		c1.938,0.047,3.643-1.068,5.133-2.609c0.138,1.233,0.592,2.206,1.364,2.894c0.688,0.624,1.514,0.918,2.36,1.058
		c-0.636,1.07-1.273,2.471-1.543,4.424l-10.918-0.682c-1.605-4.154-3.602-8.117-5.95-11.783
		C345.801,83.627,346.708,83.645,347.665,83.568z M362.958,105.513c-1.021,0.54-2.184,1.041-3.168,1.346
		c-1.215,0.378-3.361,0.879-5.153,1.966c-0.667-3.806-1.634-7.556-2.901-11.188l9.923,0.623
		C361.688,100.205,362.057,102.577,362.958,105.513z M334.554,52.302c-1.033,0-1.867-0.841-1.867-1.875
		c0-1.03,0.834-1.871,1.867-1.871c1.031,0,1.871,0.841,1.871,1.871C336.425,51.461,335.585,52.302,334.554,52.302z M339.663,46.779
		c-1.405,0-2.55-1.142-2.55-2.554c0-1.404,1.145-2.557,2.55-2.557c1.411,0,2.563,1.153,2.563,2.557
		C342.226,45.637,341.074,46.779,339.663,46.779z M348.356,36.179c0,1.939-1.575,3.511-3.508,3.511s-3.511-1.572-3.511-3.511
		c0-1.932,1.578-3.506,3.511-3.506S348.356,34.247,348.356,36.179z M345.801,22.039c1.935,0,3.507,1.571,3.507,3.506
		c0,1.932-1.572,3.509-3.507,3.509c-1.938,0-3.505-1.577-3.505-3.509C342.296,23.61,343.862,22.039,345.801,22.039z M337.345,14.334
		c2.204,0,3.99,1.787,3.99,3.983c0,2.205-1.786,3.987-3.99,3.987c-2.196,0-3.979-1.783-3.979-3.987
		C333.365,16.121,335.148,14.334,337.345,14.334z M327.258,13.993c1.408,0,2.556,1.147,2.556,2.557c0,1.406-1.147,2.549-2.556,2.549
		c-1.405,0-2.551-1.143-2.551-2.549C324.707,15.14,325.853,13.993,327.258,13.993z M319.35,16.852c1.033,0,1.874,0.845,1.874,1.877
		c0,1.027-0.841,1.864-1.874,1.864c-1.037,0-1.874-0.837-1.874-1.864C317.476,17.697,318.313,16.852,319.35,16.852z M315.432,20.188
		l0.047-0.038c0.58,1.573,2.097,2.703,3.871,2.703c2.037,0,3.732-1.483,4.063-3.432c0.882,1.172,2.27,1.937,3.845,1.937
		c1.628,0,3.065-0.816,3.938-2.055c0.472,2.974,3.049,5.254,6.149,5.254c1.071,0,2.087-0.268,2.96-0.745
		c-0.176,0.547-0.267,1.13-0.267,1.733c0,2.232,1.279,4.166,3.13,5.125c-2.359,0.718-4.078,2.914-4.078,5.509
		c0,1.21,0.368,2.33,1.004,3.262c-0.135-0.018-0.284-0.027-0.431-0.027c-2.649,0-4.805,2.157-4.805,4.811
		c0,0.778,0.188,1.511,0.516,2.161c-0.264-0.053-0.539-0.088-0.82-0.088c-2.274,0-4.125,1.856-4.125,4.129
		c0,0.375,0.056,0.736,0.146,1.081c-0.223,0.208-0.583,0.579-0.826,0.825c-1.684-0.729-3.391-1.39-5.127-1.958l0.088-0.103
		c1.933-1.421,5.033-4.54,8.939-9.884c3.027-4.148,3.777-8.36,2.064-11.561c-1.263-2.333-3.698-3.852-6.881-4.266
		c-5.824-0.759-11.595,2.183-15.012,4.271L315.432,20.188z M327.527,58.865c-6.881-3.183-14.213-4.797-21.825-4.797
		c-7.51,0-14.729,1.57-21.522,4.655c-0.226-1.638-0.678-3.138-1.341-4.377c7.264-3.142,14.983-4.737,22.948-4.737
		c8.061,0,15.863,1.631,23.213,4.847C328.288,55.714,327.791,57.223,327.527,58.865z M327.898,66.529
		c-6.771-4.099-14.317-6.258-22.196-6.258c-7.818,0-15.3,2.123-22.021,6.151c0.46-1.759,0.681-3.564,0.669-5.295
		c6.713-3.181,13.892-4.801,21.352-4.801c7.557,0,14.821,1.659,21.603,4.931C327.264,62.986,327.451,64.781,327.898,66.529z
		 M289.509,49.52c-1.213-0.715-4.829-3.617-9.605-10.158c-2.625-3.58-3.322-7.128-1.928-9.731c0.926-1.72,2.761-2.843,5.164-3.159
		c6.158-0.802,12.642,3.424,15.182,5.099l2.96,15.938l0.011,0.017c-3.989,0.291-7.896,0.979-11.721,2.049L289.509,49.52z
		 M310.325,47.525l0.021-0.017l2.966-15.938c2.539-1.675,9.021-5.901,15.179-5.099c2.407,0.316,4.237,1.439,5.165,3.159
		c1.396,2.604,0.694,6.151-1.927,9.731c-4.784,6.552-8.389,9.452-9.595,10.16l-0.044,0.076
		C318.251,48.516,314.325,47.82,310.325,47.525z M302.157,14.699c0-0.565,0.693-0.647,1.109-0.647h2.477h0.029h2.482
		c0.407,0,1.102,0.082,1.102,0.647c0,1.612,1.256,3.805,4.014,4.27l-5.291,28.417l0.032,0.018c-0.778-0.028-1.552-0.051-2.324-0.051
		c-0.749,0-1.495,0.018-2.245,0.045v-0.012l-5.283-28.434C300.939,18.446,302.157,16.286,302.157,14.699z M292.325,16.852
		c1.033,0,1.878,0.845,1.878,1.877c0,1.027-0.845,1.864-1.878,1.864c-1.034,0-1.871-0.837-1.871-1.864
		C290.454,17.697,291.291,16.852,292.325,16.852z M284.418,13.993c1.413,0,2.555,1.147,2.555,2.557c0,1.406-1.142,2.549-2.555,2.549
		c-1.411,0-2.558-1.143-2.558-2.549C281.86,15.14,283.007,13.993,284.418,13.993z M274.324,14.334c2.198,0,3.987,1.787,3.987,3.983
		c0,2.205-1.789,3.987-3.987,3.987c-2.199,0-3.982-1.783-3.982-3.987C270.342,16.121,272.125,14.334,274.324,14.334z
		 M262.363,25.545c0-1.936,1.572-3.506,3.508-3.506c1.934,0,3.511,1.571,3.511,3.506c0,1.932-1.577,3.509-3.511,3.509
		C263.936,29.054,262.363,27.477,262.363,25.545z M266.824,39.69c-1.933,0-3.507-1.572-3.507-3.511c0-1.932,1.574-3.506,3.507-3.506
		c1.938,0,3.511,1.575,3.511,3.506C270.335,38.118,268.763,39.69,266.824,39.69z M272.008,46.779c-1.408,0-2.556-1.142-2.556-2.554
		c0-1.404,1.147-2.557,2.556-2.557c1.414,0,2.56,1.153,2.56,2.557C274.567,45.637,273.422,46.779,272.008,46.779z M277.12,52.302
		c-1.027,0-1.872-0.841-1.872-1.875c0-1.03,0.845-1.871,1.872-1.871c1.033,0,1.877,0.841,1.877,1.871
		C278.997,51.461,278.153,52.302,277.12,52.302z M281.86,52.316c-0.281-0.419-0.524-0.741-0.717-0.961
		c0.067-0.3,0.105-0.606,0.105-0.927c0-2.273-1.854-4.129-4.129-4.129c-0.284,0-0.555,0.035-0.822,0.088
		c0.333-0.65,0.521-1.383,0.521-2.161c0-2.654-2.16-4.811-4.811-4.811c-0.149,0-0.287,0.009-0.437,0.027
		c0.644-0.932,1.022-2.052,1.022-3.262c0-2.595-1.73-4.791-4.095-5.509c1.862-0.959,3.136-2.892,3.136-5.125
		c0-0.604-0.094-1.187-0.268-1.733c0.879,0.477,1.894,0.745,2.957,0.745c3.104,0,5.688-2.28,6.157-5.254
		c0.872,1.238,2.308,2.055,3.937,2.055c1.575,0,2.969-0.765,3.846-1.937c0.328,1.948,2.026,3.432,4.062,3.432
		c1.766,0,3.269-1.111,3.857-2.673l0.016,0.009l1.607,8.646c-3.407-2.088-9.188-5.03-15.011-4.271
		c-3.177,0.414-5.622,1.933-6.877,4.266c-1.72,3.2-0.969,7.412,2.066,11.561c3.901,5.344,7.005,8.463,8.941,9.884l0.087,0.079
		C285.271,50.926,283.553,51.585,281.86,52.316z M271.16,80.768c9.002-11.763,21.274-18.24,34.542-18.24
		c13.261,0,25.528,6.478,34.541,18.24c6.406,8.37,10.71,18.861,12.379,29.722l-1.165,1.095c-1.47,1.318-3.136,2.816-3.751,4.766
		l-0.062,0.159c-0.488,1.563-0.846,2.669-0.846,3.604c0,0.525,0.111,0.994,0.381,1.455c0.717,1.251,1.704,1.606,2.515,1.757
		c0.176,0.008,0.319,0.608,0.319,1.059c0,0.062,0,0.124-0.009,0.185c-0.018,0.106-0.026,0.228-0.026,0.354
		c0,0.882,0.416,2.194,2.573,3.053c0.135,0.053,0.278,0.089,0.419,0.134c-3.101,28.326-23.104,50.336-47.269,50.336
		c-22.884,0-42.04-19.724-46.647-45.854c2.045-1.314,1.774-3.652,1.606-5.069l-0.081-0.9c0-1.412-0.454-4.023-0.255-7.567
		c0.122-2.117,0.384-4.757,0.855-7.001c0.3-1.453,0.59-2.824,0.713-3.871c0.311-2.563-0.132-3.735-1.557-5.093
		C262.539,94.927,266.215,87.213,271.16,80.768z M370.023,120.208c0.012,0.012,0.015,0.025,0.023,0.036
		c1.974,2.189,6.45,3.396,8.941,3.92c2.173,0.459,4.226,1.313,5.795,2.151c0.223,0.743,0.308,1.636,0.281,2.535
		c-2.311,0.624-10.266,2.515-15.981,0.554l-0.471-0.205c-0.976-0.43-2.293-1.02-3.769-0.432c-1.253,0.489-2.299,1.738-3.177,3.813
		c-2.223,5.206-2.044,10.478,0.48,14.104c0.96,1.4,2.052,2.56,3.024,3.584c1.317,1.399,2.453,2.604,2.819,3.9
		c0.146,0.535,0.012,0.793-0.117,0.969c-0.532,0.7-2.21,1.159-4.26,1.159l-1.801-0.054c-2.313-0.087-5.37-0.204-8.348,0.289
		c-1.481-1.799-2.989-3.236-4.277-4.455l-0.642-0.617c3.443-6.889,5.762-14.732,6.676-23.073c0.331-0.031,0.658-0.102,0.937-0.22
		c0.144,0.171,0.261,0.354,0.261,0.354c0.888,1.053,2.604,2.037,4.196,1.879c2.037-0.202,3.583-3.379,3.85-6.201
		c0.129-1.412,0.571-1.583,1.534-1.959l0.806-0.345l1.256-0.61C369.877,120.396,367.783,121.375,370.023,120.208z M402.104,184.279
		h-20.809l-6.052,4.81c-6.33-1.913-12.865-3.58-19.512-4.986c0.415-0.317,0.869-0.698,1.139-1.021
		c1.971-2.332,2.743-6.38,2.91-9.128c0.023-0.033,0.053-0.053,0.088-0.088l1.358-1.941c1.326-1.969,3.133-4.669,4.74-5.357
		c2.489-1.066,6.972-2.366,8.658-2.366h0.478c2.512,0.022,7.747,0.075,9.044-3.167c1.052-2.629-0.324-4.021-1.153-4.852
		c-0.264-0.265-0.507-0.512-0.612-0.718l-0.301-0.538c-0.858-1.482-2.231-3.83,0.359-6.564c0.073-0.036,0.135-0.063,0.202-0.106
		c0.146-0.104,0.261-0.245,0.343-0.388c1.382,3.432,4.076,8.515,8.137,11.625c6.099,4.684,10.711,5.396,11.981,5.502
		c2.082,0.172,5.01,0.684,5.853,0.965c0.516,0.17,1.818,1.784,1.959,3.443c0.229,2.864-0.554,4.852-2.34,5.904
		c-3.092,1.814-6.526,5.814-6.512,8.463C402.063,183.956,402.093,184.105,402.104,184.279z M348.392,175.083
		c-0.021,0.672-0.24,0.919-0.407,1.059c-1.086,0.9-4.283,0.389-6.623,0.018c-1.104-0.182-2.154-0.346-3.042-0.398
		c-3.874-0.218-6.737,2.484-7.817,3.498c-0.252,0.222-0.527,0.495-0.759,0.732c-4.327-0.452-8.643-0.796-12.921-1.008h0.765
		c9.686-2.857,18.271-9.117,24.814-17.661C344.708,163.693,348.863,168.431,348.392,175.083z M343.757,159.474
		c1.338-1.875,2.562-3.853,3.695-5.924l0.184,0.176c1.011,0.961,2.179,2.066,3.35,3.396c-0.893,0.269-1.768,0.595-2.57,1.041
		c-1.681,0.918-2.515,2.119-2.813,3.305C344.925,160.68,344.287,160.009,343.757,159.474z M338.19,178.015
		c0.768,0.046,1.769,0.203,2.82,0.377c3.065,0.485,6.532,1.045,8.417-0.509c0.779-0.639,1.184-1.544,1.225-2.683
		c0.111-1.539,0-2.982-0.258-4.328c0.869,0.776,1.944,1.023,3.083,0.732c0.105,0.318,0.22,0.745,0.313,1.078l0.085,0.335
		c0.299,1.147,1.32,2.083,2.521,2.324c0.325,0.065,0.642,0.078,0.958,0.048c-0.313,2.2-0.993,4.776-2.217,6.241
		c-0.313,0.365-1.625,1.296-2.513,1.818c-6.477-1.288-13.041-2.318-19.591-3.095C334.353,179.355,336.439,177.918,338.19,178.015z
		 M382.04,145.113c0.035,0.141,0.088,0.301,0.138,0.471c-0.413,0.325-0.791,0.643-1.116,0.971c-1.824,0.825-4.544-1.095-5.888-2.049
		l-0.161-0.115c-2.904-2.232-5.566-2.718-1.303,1.287l0.164,0.107c1.124,0.805,3.279,2.576,5.504,3.034
		c-1.587,3.215,0.085,6.097,0.753,7.245l0.226,0.409c0.263,0.53,0.679,0.942,1.036,1.303c0.771,0.776,1.153,1.165,0.653,2.418
		c-0.721,1.81-5.221,1.765-6.913,1.751l-0.507-0.01c-2.223,0-7.063,1.488-9.542,2.558c-2.12,0.901-3.988,3.584-5.517,5.845
		c-0.366,0.574-1.672,2.375-2.021,2.645c-0.204,0.126-0.438,0.195-0.702,0.145c-0.393-0.079-0.709-0.419-0.791-0.697l-0.544-1.854
		c-0.419-1.856-0.07-2.851-2.293-1.256l0.006,0.004c-0.627,0.26-0.963,0.119-1.162-0.01c-0.548-0.344-1.148-0.92-0.885-1.438
		c0.044-0.075,0.486-0.947,0.486-0.947c1.388-2.535,0.416-2.453-1.763-2.223l0.006,0.01c-0.214,0.008-0.404,0.043-0.51,0.061
		c-0.28,0.053-1.168-0.484-1.537-1.519c-0.43-1.208,0.135-2.288,1.643-3.114c0.917-0.503,1.95-0.865,3.028-1.121
		c0.764-0.241,1.864-0.329,2.506-0.414c2.384-0.257,4.805-0.176,6.696-0.109l1.883,0.053c1.681,0,4.702-0.265,6.061-2.047
		c0.439-0.572,0.876-1.55,0.495-2.931c-0.51-1.844-1.895-3.306-3.355-4.859c-0.961-1.014-1.941-2.06-2.816-3.319
		c-2.07-2.983-2.167-7.441-0.255-11.932c0.611-1.447,1.282-2.348,1.927-2.597c0.55-0.217,1.162,0.018,2.022,0.399l0.609,0.256
		c5.691,1.957,13.108,0.553,16.385-0.241c-0.132,0.459-0.302,0.895-0.504,1.265C383.021,134.674,381.27,142.22,382.04,145.113z
		 M194.978,177.839l-0.321-0.273l-2.144-1.818c-1.197-1.01-2.557-2.147-2.963-2.553c-0.33-0.387-0.836-2.398-0.836-4.112
		c0-0.298,0.011-0.583,0.046-0.848c0.159-1.28,0.435-2.46,0.629-3.325c0,0,0.123-0.557,0.176-0.833
		c0.31-0.243,1.588-0.694,3.236-0.513c2.631,0.293,5.159,0.488,7.178-0.323c2.176-0.866,3.732-2.588,4.162-4.52
		c3.168,0.241,6.96-2.204,8.407-3.937c0.779-0.934,1.438-2.398,2.186-4.228l0.229,0.099c2.475,1.104,5.038,2.242,8.958,1.588
		c0.347-0.054,0.624-0.086,0.858-0.104c-0.693,0.44-1.594,1.386-3.732,4.163c-0.965,1.253-1.444,2.465-1.444,3.612
		c0,0.288,0.027,0.57,0.09,0.847c0.505,2.354,2.951,3.644,4.73,4.59l0.248,0.13c1.589,0.854,3.495,1.537,5.346,2.206l2.879,1.097
		c1.005,0.429,1.773,1.1,2.672,1.87c0.918,0.8,1.966,1.71,3.442,2.488c2.718,1.44,4.232,2.011,6.014,1.563
		c0,0,0.111-0.021,0.202-0.045c0.086,0.394,0.162,0.977,0.194,1.218c0.391,2.939,3.513,3.336,5.569,3.606l0.9,0.124l1.014,0.229
		c0.433,1.218,1.007,2.357,1.752,3.241c0.006,0.01,0.746,0.593,1.303,1.029c-6.569,1.398-13.023,3.041-19.282,4.929l-6.345-4.76
		h-0.379h-29.87h-2.456c0-0.063,0-0.122,0-0.174C197.625,180.063,196.094,178.784,194.978,177.839z M253.403,123.193
		c-0.89,1.633-1.119,2.08-2.488,2.574c-0.545,0.196-0.769,0.125-1.221-0.023c-0.557-0.188-1.325-0.436-2.478-0.018
		c-3.225,1.173-3.115,2.877-2.963,5.238l0.079,1.545c0.032,1.085,0.271,1.883,0.586,2.471c0.146,0.255,0.532,0.769,1.094,1.195
		c1.175,0.749,2.612,0.543,3.557,0.094c0.349-0.164,1.442-0.539,2.592-0.934c1.547-0.53,3.335-1.138,4.779-1.724
		c1.187,6.429,3.212,12.489,5.945,17.937l-0.544,0.529c-3.17,2.991-7.699,7.297-9.747,15.142c-0.494-0.243-1.064-0.589-1.747-1.155
		c-2.211-1.847-4.658-2.999-7.08-3.347c-2.396-0.343-5.618-1.7-8.172-2.841c-0.848-0.389-1.383-0.825-1.497-1.242
		c-0.135-0.448,0.162-1.025,0.517-1.501c0.396-0.54,2.327-1.489,4.62-2.718c2.334-1.247,9.063-7,8.483-10.592
		c-0.167-1.065-1.006-2.558-2.358-4.906l-1.063-1.854c-1.317-2.375-3.804-3.353-6.807-2.672c-2.843,0.643-9.623,1.42-13.763,0.95
		c2.798-2.31,6.147-3.633,10.034-3.937c4.578-0.359,8.61-2.902,11.919-5.743c1.97-1.685,6.055-6.848,7.798-10.183
		c0.085-0.159,0.163-0.318,0.245-0.471c-0.009,0.25-0.022,0.523-0.054,0.823l-0.039,0.659
		C253.536,118.132,254.103,121.91,253.403,123.193z M238.004,136.642c1.385-0.313,3.258-0.301,4.281,1.535l1.074,1.895
		c0.927,1.601,1.972,3.416,2.086,4.113c0.264,1.668-4.432,6.657-7.304,8.199c-0.666,0.449-4.932,2.826-5.408,3.495
		c-0.297,0.406-0.926,1.385-0.926,2.55c0,0.269,0.032,0.547,0.113,0.83c0.313,1.097,1.245,1.997,2.751,2.674
		c3.983,1.791,6.689,2.727,8.775,3.021c1.979,0.28,4.09,1.294,5.955,2.842c1.302,1.093,2.375,1.599,3.21,1.871l1.15,0.288
		c0.712,0.681,2.622,4.382,2.622,6.677c0,0.194-0.016,0.369-0.044,0.542c-0.041,0.266-0.14,0.61-0.331,0.736
		c-0.39,0.253-1.394,0.027-2.209-0.177l-0.845-0.194l-0.692-0.158l-0.989-0.136c-2.017-0.265-3.461-0.535-3.615-1.667
		c-0.079-0.6-0.158-1.11-0.261-1.541c-0.962-3.938-0.841-2.225-2.548-1.617c-0.123,0.033-0.253,0.063-0.37,0.094
		c-0.883,0.217-1.687,0.081-4.412-1.366c-1.245-0.663-2.154-1.445-3.021-2.198c-0.952-0.819-1.934-1.678-3.256-2.248l-3.015-1.142
		c-1.765-0.642-3.593-1.296-5.045-2.071l-0.25-0.131c-1.388-0.735-3.293-1.75-3.582-3.072c-0.155-0.717,0.157-1.591,0.94-2.604
		c2.695-3.502,3.187-3.46,3.454-3.762c0.422-0.199,1.928-1.462,1.568-2.533c-0.302-0.9-1.21-1.889-4.314-1.372
		c-3.252,0.543-5.399-0.411-7.669-1.425l-0.299-0.133c0.812-2.018,1.736-4.255,2.965-6.572c0.751-1.43,1.601-2.702,2.524-3.842
		l0.646-0.712C225.947,138.37,234.416,137.454,238.004,136.642z M255.527,180.267c0.604-0.005,1.19-0.118,1.72-0.463
		c0.708-0.459,1.153-1.224,1.327-2.266c0.498-3.001-2.001-8.586-3.784-9.613c1.89-7.316,6.13-11.391,9.107-14.199l0.09-0.087
		c1.134,2.065,2.37,4.04,3.699,5.92c-2.486,2.527-7.358,7.858-6.808,15.642c0.032,1.139,0.448,2.044,1.221,2.683
		c1.877,1.554,5.35,0.994,8.415,0.509c1.054-0.174,2.053-0.331,2.816-0.377c1.618-0.09,3.824,1.298,5.271,2.357
		c-6.608,0.782-13.227,1.831-19.758,3.138c-0.822-0.467-1.834-1.153-2.454-1.879C256.063,181.245,255.779,180.778,255.527,180.267z
		 M273.208,175.761c-0.881,0.053-1.932,0.217-3.048,0.398c-2.338,0.371-5.53,0.883-6.62-0.018c-0.161-0.14-0.383-0.387-0.406-1.059
		c-0.463-6.582,3.594-11.295,5.912-13.686c6.553,8.516,15.125,14.746,24.787,17.594l0.989-0.006
		c-4.313,0.222-8.666,0.571-13.024,1.03c-0.264-0.265-0.534-0.538-0.577-0.573l-0.197-0.184
		C279.95,178.246,277.079,175.543,273.208,175.761z M204.252,34.914c-1.945-1.637-2.996-3.578-2.801-5.185
		c0.116-0.965,0.716-1.769,1.701-2.263c1.953-0.977,4.732-0.802,8.488,0.523c0.32,0.134,0.9,0.218,1.689,0.24l0.493,0.018
		c0,0-0.938-2.907-1.11-3.446c0.474-0.149,2.065-0.666,2.54-0.817c0.168,0.535,1.121,3.486,1.121,3.486l0.396-0.354
		c0.47-0.41,0.9-0.917,1.188-1.386c2.158-3.038,4.312-4.766,6.392-5.101c1.08-0.177,2.045,0.121,2.704,0.845
		c0.712,0.771,1.076,1.961,1.076,3.379c0,0.768-0.105,1.598-0.321,2.458c-0.905,3.596-1.756,5.671-2.212,6.626
		c-0.186-0.036-0.382-0.071-0.591-0.106c-0.398-0.079-0.774-0.096-1.139-0.079c-0.106,0-0.22,0.018-0.329,0.024
		c0.267-0.441,1.272-2.329,2.43-6.924c0.176-0.718,0.263-1.406,0.263-2.017c0-0.918-0.198-1.666-0.581-2.082
		c-0.079-0.089-0.323-0.359-0.994-0.247c-1.619,0.259-3.477,1.9-5.565,4.919c-0.674,0.816-1.247,1.347-1.815,1.756
		c0.229,0.671,1.444,4.215,1.444,4.215s0.254,0.751,0.474,1.38c-0.067,0-0.149,0.008-0.208,0.006c0,0,0,0,0-0.006
		c-1.224-0.222-2.28-0.424-3.197-0.564c-0.076-0.269-0.143-0.471-0.143-0.471l-1.173-3.875l-0.271,0.011
		c-0.784,0.033-1.66-0.064-2.752-0.312c0.007,0.004-0.035-0.008-0.035-0.008c-3.473-1.235-6.019-1.481-7.57-0.704
		c-0.521,0.258-0.798,0.606-0.849,1.057l-0.017,0.213c0,1.041,0.873,2.419,2.275,3.602c2.083,1.764,3.617,2.824,4.635,3.457
		c-0.088,0.03-0.166,0.048-0.239,0.035c-0.576-0.105-1.14-0.121-1.679-0.009c-0.194,0.04-0.377,0.1-0.563,0.168
		C206.41,36.665,205.353,35.841,204.252,34.914z M221.941,32.878l-0.053,0.076l-0.045,0.098c-0.16,0.371-0.516,0.753-1.007,1.12
		l-1.409-4.402c0.37-0.359,0.742-0.759,1.109-1.206l0.032-0.04l0.031-0.043c1.775-2.594,3.009-3.592,3.772-3.969
		c0.015,0.106,0.03,0.192,0.03,0.328c0,0.395-0.054,0.908-0.215,1.561C222.971,31.225,221.946,32.86,221.941,32.878z
		 M213.401,34.006c-0.071,0-0.133,0-0.197,0c0,0-0.006,0-0.013,0c-0.976,0.047-1.662,0.335-2.105,0.987
		c-0.06,0.083-0.104,0.171-0.15,0.265c-0.924-0.58-2.332-1.569-4.276-3.201c-0.683-0.576-1.051-1.063-1.259-1.422
		c0.834-0.141,2.408-0.064,5.38,1.012l0.076,0.022l0.071,0.018c0.644,0.148,1.247,0.247,1.827,0.306L213.401,34.006z
		 M220.396,84.538c-0.804-1.677-1.668-3.087-2.434-4.128l-0.022-0.029l-0.023-0.026c-0.118-0.142-0.237-0.28-0.365-0.412
		l0.006-0.003c-4.413-5.514-3.372-3.378-3.909,0.771c-0.044,0.317-0.074,0.642-0.11,0.968c-0.04,0.506-0.094,1.025-0.185,1.412
		c-0.149,0.583-0.314,0.813-0.385,0.85c-0.086,0.045-0.365,0.088-1.288-0.193c-4.238-1.271-5.313-4.363-5.904-6.027l-0.038-0.105
		c-0.158-0.459-0.314-0.875-0.475-1.235c-2.133-5.511-1.511-3.292-3.284-1.311l0.014,0.005c-0.181,0.176-0.332,0.36-0.465,0.529
		l-0.161,0.199c-0.257,0.301-0.374,0.379-0.427,0.414c-0.038-0.031-0.098-0.078-0.186-0.165c-0.683-0.683-2.248-3.161-2.851-4.671
		c-0.145-0.359-0.196-0.836-0.196-1.377c0-1.225,0.29-2.761,0.486-3.809l0.098-0.547l0.079-0.348
		c0.51-1.845,0.754-2.833,0.026-3.557c-0.708-0.712-1.629-0.455-3.292,0.009l-0.319,0.089c-0.405,0.107-0.688,0.178-0.927,0.229
		c0.3-1.623,0.529-3.274,0.529-4.816c0-2.861-0.782-5.32-3.365-6.426c-0.42-0.177-0.726-0.363-0.977-0.54
		c4.84-0.944,9.699-3.43,13.506-6.836l0.896-0.953c1.188-1.248,2.674-2.806,3.982-3.074c0.759-0.155,1.729,0.168,2.89,0.966
		c0.306,0.208,0.935,0.773,1.354,1.147c0.696,0.632,1.418,1.278,2.199,0.543c0.077-0.076,0.741-0.755,0.007-1.667
		c-1.394-1.712-2.224-3.712-1.933-4.146c0.006-0.002,0.423-0.373,2.909,0.099l-0.102-0.013c2.013,0.502,7.544,3.044,4.501,0.496
		c0.654-0.159,1.328-0.389,2.02-0.566l0.971-0.194c0.493-0.077,1.006-0.094,1.525-0.01c1.378,0.229,2.368,0.371,3.074,0.539
		l0.192,0.043c0,0,0.699-0.006,0.915-0.006c-0.048,0.122-0.094,0.266-0.167,0.442c-0.093,0.121-0.16,0.264-0.189,0.439
		c-0.19,1.353,2.818,4.009,2.854,4.036c0.574,0.495,2.769,2.654,5.089,4.939c3.41,3.353,7.278,7.159,8.737,8.396
		c2.054,1.735,1.757,3.341,1.465,3.812c-0.379,0.618-1.078,1.198-1.634,1.034l-0.651-0.277c-0.901-0.422-2.145-0.994-3.037-0.168
		c-0.39,0.363-0.548,0.839-0.548,1.376c0,0.671,0.234,1.433,0.505,2.193c0.142,0.384,0.209,0.643,0.24,0.829
		c-0.375,0.667-1.796,0.696-2.723,0.173c-0.493-0.272-1.895-1.483-2.919-2.365l-1.943-1.632c-1.942-1.492-5.072-2.424-6.696-2.688
		c-0.328-0.053-0.877-0.27-1.354-0.459c-0.356-0.142-0.7-0.274-1.027-0.37c-2.179-1.211-2.731-4.131-2.864-4.731
		c-0.145-0.629-0.56-0.91-0.634-0.07c-0.066,0.82-0.528,3.327,1.624,6.792c0.321,0.68,0.995,1.51,1.954,2.616l0.968,1.234
		c1.639,2.172,4.111,5.454,9.284,8.41l3.175,1.651c5.896,2.955,14.437,6.184,17.872,15.504c1.28,3.478,1.469,7.67,0.468,12.549
		c-2.327-1.649-5.377-3.673-8.364-5.655c-1.74-1.157-3.639-2.419-5.358-3.594l1.134-0.584c1.959-1.224,2.997-2.436,3.264-3.829
		c0.395-2.019-1.132-3.819-2.534-6.064c-3.268-5.238-11.007-6.414-15.988-7.042l-3.36-0.535c-5.284-0.979-11.602-3.513-15.385-6.886
		c-5.354-4.789-4.629-13.936-4.077-16.66c0.123-0.619-0.018-1.979-0.499-0.541c-0.739,3.01-3.22,13.258,3.07,18.885
		c4.121,3.682,11.167,6.452,16.768,7.513l3.194,0.475c4.566,0.566,11.784,1.854,14.488,6.178c1.162,1.871,2.313,3.188,2.106,4.244
		c-0.139,0.715-0.895,1.504-2.238,2.348l-2.13,0.992c-1.662-1.175-2.909-2.118-3.241-2.546c-0.271-0.353-0.661-0.854-1.119-1.206
		l0.003-0.002c-3.662-2.895-2.003-1.112-2.306,0.626c-0.398,0.304-2.129,0.356-5.263-0.844c-1.818-0.692-1.918-0.788-2.689-1.847
		c-2.252-2.929-1.817-1.754-2.344,0.717c-0.187,0.883-0.32,1.162-1.183,1.066C221.911,85.439,221.125,85.068,220.396,84.538z
		 M176.336,106.582l-1.136,1.748c-1.691,2.823-3.076,5.585-4.083,7.601l-0.429,0.892c-0.814,1.752-0.998,1.826-1.483,1.717
		c0.007-0.271,0.14-0.803,0.232-1.173c0.159-0.65,0.348-1.374,0.348-2.101c0-0.104,0-0.209-0.007-0.309
		c-0.149-1.832-2.128-5.021-4.326-8.408l-0.315-0.484c-0.617-0.953-0.791-2.383-0.791-3.795c0-1.098,0.105-2.181,0.186-3.018v-0.035
		c1.207,0.105,2.657,0.371,5.098-1.292c-0.006,0.073-0.006,0.152-0.006,0.232c0,1.577,0.395,3.495,0.798,4.695l0.116,0.414
		c0.296,1.068,0.777,2.852,2.346,3.06c1.358,0.187,2.641-0.927,4.274-3.725c2.112-3.601,2.285-5.092,2.273-6.314v-0.118l0.074-0.094
		c0.026-0.022,0.152-0.04,0.34-0.047C180.502,99.194,178.104,103.953,176.336,106.582z M181.37,137.248
		c-2.318-4.73-0.295-11.948,5.433-19.305c-0.009,0.013,1.545-2.069,1.545-2.069l0.677-0.817c1.175-1.441,3.08-4.549,3.08-7.228
		c0-0.441-0.053-0.876-0.169-1.288c-0.352-1.239-1.247-2.14-2.584-2.604c-0.649-0.22-0.953-0.406-1.091-0.514
		c0.239-0.318,0.941-0.805,1.274-1.029l0.541-0.382c0.89-0.661,2.395-0.982,3.58-0.767l0.588,0.154
		c0.653,0.205,1.548,0.477,2.464-0.061c0.97-0.563,1.613-1.85,2.161-4.304c0.691-3.114,0.139-7.813-2.427-11.551
		c-1.912-2.789-6.568-6.576-10.55-5.899c-1.496,0.25-3.42,1.124-4.332,4.447c-0.215,0.816-0.418,1.522-0.418,2.405
		c0,2.926,1.492,6.06,2.974,7.2c0.072,0.062,0.117,0.102,0.173,0.15c-0.144,0.027-0.411,0.085-0.44,0.087
		c-0.1,0.019-0.394-0.024-0.594-0.047c-1.368-0.154-5.764-1.107-6.275,2.34c0,0,0,0.212,0,0.247c0,0.665-0.094,1.809-1.934,4.944
		c-0.916,1.569-1.483,2.169-1.769,2.4c-0.155-0.325-0.303-0.865-0.375-1.138l-0.161-0.541c-0.339-1.023-0.479-2.494-0.479-3.725
		c0-0.112,0.005-0.212,0.006-0.315c0.018-0.259,0.041-0.988,0.186-1.336c0.174-0.419,0.379-0.917,0.379-1.395
		c0-0.384-0.135-0.755-0.529-1.048c-0.964-0.73-1.836,0.201-3.988,1.59c-1.783,1.163-2.356,1.163-3.407,1.029
		c-0.655-0.084-1.65-0.438-2.226-0.632c-0.441-0.145-0.763-0.158-0.996-0.238c1.606-1.431,5.277-5.421,5.626-6.878
		c0.079-0.313-0.05-0.941-0.158-1.126c-0.569-0.903-1.515-1.994-4.21-3.239c1.9-0.602,4.707-1.548,5.98-1.715
		c3.905-0.509,6.456-2.15,9.175-3.711c2.418-1.388,4.921-2.818,8.602-3.658c4.544-1.037,8.563,1.441,13.489,8.384
		c1.958,2.747,2.407,6.212,2.407,9.399c0,4.395-1.151,8.332-1.806,9.645l-0.277,0.533c-0.45,0.879-0.996,1.932-0.996,3.018
		c0,0.977,0.438,1.977,1.787,2.901c1.023,0.706,1.539,1.194,1.539,1.883c0,0.483-0.247,1.065-0.75,1.889l-1.665,2.636
		c-1.075,1.667-2.093,3.255-2.58,4.325c-0.111,0.248-0.821,1.4-0.9,1.122c-0.112-0.428-0.221-0.856-0.221-0.856l-0.378-1.637
		c-0.587-3.511-1.157-4.226-2.08-4.367c-0.489-0.07-1.148,0.114-1.513,0.865l-1.013,1.731l-0.985,1.617l-1.023,1.33l-1.103,1.511
		c-2.96,4.021-7.436,10.086-2.757,15.873c2.892,3.567,7.825,2.474,10.402,1.671c-0.113,1.647-0.242,3.045-0.395,4.254
		C188.714,143.341,183.325,141.219,181.37,137.248z M183.035,181.145l-2.107-0.123c-0.277-0.036-0.376-0.106-0.4-0.124
		c-0.211-0.313,0.101-1.646,0.272-2.355c0.159-0.681,0.251-1.542,0.303-2.194c0.04-0.601,0.123-1.412,0.279-2.171
		c0.376-1.766,0.861-4.055,0.861-7.688c0-0.954-0.031-1.989-0.105-3.143c-0.072-0.973-0.093-1.767-0.093-2.418
		c0-2.085,0.271-2.667,0.413-2.832c0.079-0.088,0.341-0.105,0.759-0.127l0.765-0.061l0.667-0.07
		c2.304-0.229,7.705-0.748,10.829-5.735c2.225-3.548,2.759-7.044,3.244-15.774c0.453-8.172,6.723-14.955,9.258-16.402l1.542-0.859
		c2.038-1.13,4.518-2.718,6.586-3.977c0.604-0.443,1.753-0.754,2.379-2.365c0.372-1.165,0.934-2.338,1.545-3.709
		c0.818-1.851,1.744-3.936,2.52-6.793c1.398-5.225,0.602-10.413-0.874-14.604c0.27,0.071,0.555,0.13,0.847,0.159
		c1.417,0.149,2.427-0.356,3.038-1.469c0.63,0.582,1.318,0.9,2.648,1.403c2.63,1.007,5.915,1.81,7.496,0.415
		c0.076,0.091,0.152,0.176,0.243,0.295c0.94,1.223,4.913,3.892,11.313,8.142c4.432,2.947,9.015,5.987,11.019,7.671
		c1.103,0.935,1.533,1.352,1.533,2.558c0,0.309-0.03,0.671-0.082,1.106c-0.112,0.949-0.388,2.276-0.688,3.677
		c-0.485,2.325-0.764,5.056-0.889,7.345c-0.214,3.582,0.244,6.258,0.244,7.7l0.097,1.184c0.063,0.521,0.105,0.953,0.105,1.317
		c0,0.818-0.202,1.289-0.769,1.617c-1.23,0.701-4.191,1.711-6.359,2.452c-1.495,0.512-2.372,0.812-2.811,1.014
		c-0.362,0.178-1.066,0.328-1.513,0.041c-0.495-0.313-0.622-1.155-0.636-1.808l-0.085-1.623c-0.141-2.217-0.153-2.354,1.51-2.959
		c0.464-0.164,0.664-0.102,1.097,0.04c0.573,0.19,1.371,0.455,2.602,0c2.139-0.78,2.711-1.84,3.664-3.595
		c0.828-1.524,0.37-3.369,0.573-6.748l0.132-2.307c0.149-1.7,1.07-4.093-3.389-5.522c-7.559-2.42-11.972-3.724-13.499-3.973
		c-2.061-0.336-4.431-1.286-4.836-1.704c-0.426-0.441-1.117-0.441-1.539,0c-0.426,0.441-0.426,1.159,0,1.599
		c1.012,1.049,4.156,2.031,6.035,2.341c0.968,0.155,4.014,1.048,13.194,3.896c0.216,0.064,0.43,0.158,0.633,0.277
		c-0.358,0.746-0.73,1.5-1.133,2.269c-1.59,3.054-5.48,8.003-7.282,9.548c-2.972,2.55-6.577,4.854-10.608,5.173
		c-7.517,0.59-13.246,4.518-17.038,11.675c-1.436,2.706-2.501,5.381-3.359,7.524c-0.88,2.207-1.64,4.104-2.374,4.989
		c-1.448,1.735-5.382,3.787-7.313,2.946c-2.631-1.154-4.08-1.224-5.74-0.275c-0.905,0.522-0.576,1.222-2.359,1.071
		c-0.623-0.053-2.861-0.178-2.914,0.441c-0.052,0.627,1.538,1.198,2.155,1.251c3.473,0.284,3.074-0.129,4.241-0.8
		c0.626-0.357,1.137-0.641,3.063,0.113c-0.239,1.51-1.626,2.583-2.813,3.054c-1.653,0.663-4.321,0.368-6.084,0.174
		c-2.182-0.244-5.368,0.373-5.664,2.172l-0.197,0.919c-0.21,0.911-0.494,2.154-0.672,3.546c-0.235,1.936,0.259,5.66,1.432,6.833
		c0.47,0.477,1.81,1.605,3.116,2.693l2.093,1.779l0.359,0.309c0.955,0.803,1.933,1.626,1.841,4.955
		c-0.089,2.9-1.192,3.076-4.69,3.191l-0.491,0.018c-2.271,0.079-3.608-0.555-3.905-0.891c-0.684-0.439,0.414-1.882,0.575-2.348
		c0.08-0.246,0.143-0.483,0.167-0.707l0.007,0.002c0.61-2.612,2.332-2.525-2.427-2.579l0.016,0.019
		C184.122,181.172,183.594,181.155,183.035,181.145z M162.202,211.658c1.311-2.56,6.631-12.906,6.631-12.906
		s-5.561-9.628-7.05-12.213c1.896,0,1.092,0,21.934,0c-0.007,0.091-0.023,0.189-0.023,0.284c0,0.495,0.103,0.98,0.359,1.437
		c0.44,0.77,1.239,1.265,2.377,1.468c1.075,0.22,3.064,0.298,3.83,0.256l0.479-0.012c2.695-0.089,5.681-0.203,6.595-3.433h1.842
		c16.431,0,30.105,0,30.399,0c0.144,0.106,2.307,1.703,4.466,3.295c-3.206,1.012-6.356,2.082-9.433,3.212l-0.944,0.349l5.361,18.264
		C214.528,211.658,165.206,211.658,162.202,211.658z M376.57,224.728c-21.793-7.624-47.359-11.999-70.631-11.999h-0.126
		c-23.276,0-48.823,4.383-70.632,12.025l-8.737-29.948c24.339-8.82,53.115-13.852,79.366-13.852h0.141
		c26.249,0,55.104,5.057,79.433,13.879L376.57,224.728z M421.354,188.72c0.299-0.537,0.547-1.305,0.752-2.182h1.128
		c21.569,0,23.774,0,25.672,0c-1.49,2.585-7.051,12.213-7.051,12.213s5.314,10.347,6.632,12.906c-3.016,0-51.692,0-65.724,0
		l5.332-18.224l-0.94-0.389c-3.036-1.116-6.154-2.175-9.311-3.171c2.021-1.604,4.062-3.229,4.208-3.336c0.277,0,5.762,0,20.803,0
		c0.267,0.347,0.583,0.683,1.024,1.014c0.85,0.639,2.258,0.357,3.238,0c0.126,0.582,0.357,1.142,0.832,1.698
		c1.227,1.455,3.458,2.655,5.709,1.25c0,0,0.557-0.396,0.961-0.685l0.021,0.014c0.781,0.786,2.181,1.158,3.561,0.963
		C419.605,190.587,420.756,189.833,421.354,188.72z M415.064,157.945l0.608,0.461c1.285,0.962,3.959,2.957,3.745,4.817
		c-0.17,1.422-0.182,7.556-0.182,7.614c0,0.706,0.278,2.163,0.727,4.465c0.277,1.43,0.57,2.916,0.641,3.642
		c0.167,1.622-0.381,7.148-1.227,8.697c-0.366,0.657-1.092,0.856-1.502,0.911c-0.791,0.116-1.435-0.117-1.64-0.32l-0.284-0.309
		c-1.294-3.602-1.827-1.678-3.024,0.326l0,0l-0.469,0.337c-1.282,0.802-2.456-0.403-2.79-0.795
		c-0.308-0.362-0.437-0.651-0.428-0.936c0.003-0.115,0-0.218-0.006-0.315l0.009,0.006c0.601-3.238,0.442-2.927-2.097-1.5
		c-0.144,0.057-0.283,0.135-0.424,0.233l0.032-0.019c-0.284,0.177-1.389,0.565-1.613,0.412c-0.598-0.465-0.812-0.765-0.817-1.922
		v-0.002c0-1.453,2.611-4.859,5.396-6.495c1.631-0.964,3.493-2.931,3.493-6.89c0-0.365-0.023-0.752-0.05-1.151
		c-0.202-2.495-2.021-4.907-3.496-5.401c-1.212-0.406-4.421-0.908-6.377-1.073c-0.788-0.064-5.03-0.621-10.802-5.039
		c-4.881-3.745-7.668-10.944-8.266-13.17c-0.085-0.317-0.123-0.741-0.123-1.235c0-2.904,1.301-8.26,2.064-9.661
		c0.765-1.404,1.168-3.283,1.168-5.095c0-0.205,0-0.404-0.018-0.6c1.415,1.059,2.823,2.313,3.754,3.22
		c4.091,4.018,3.373,2.181,1.247-0.784c-0.992-1.377-2.553-3.512-4.45-4.843c-1.713-1.194-4.937-2.845-8.412-3.577
		c-3.373-0.716-6.055-1.765-7.357-2.869c0.283-0.166,0.535-0.313,0.737-0.449c0.135-0.086,1.974-1.28,3.622-2.486
		c0.58,0.836,1.514,1.642,2.526,1.895c1.424,0.354,4.12-0.165,5.271-1.806c0.604-0.865,1.037-1.906,1.385-2.744
		c0,0,0.48-1.08,0.507-1.14c0.521-0.607,3.821-2.965,4.594-3.313c1.04-0.476,0.771-0.701-0.258-0.553
		c-1.206,0.177-5.513,1.359-6.28,2.717l-0.649,1.42c-0.325,0.78-0.686,1.652-1.148,2.315c-0.529,0.759-2.23,1.067-2.875,0.908
		c-0.472-0.118-1.03-0.673-1.291-1.103c0.36-0.317,0.633-0.594,0.752-0.795c0.313-0.532,0.141-1.186-0.377-1.517
		c-0.519-0.329-1.216-0.159-1.561,0.353l0.026-0.045c-0.363,0.469-3.078,2.451-5.47,3.995c-1.651,1.068-1.997,1.28-4.532,2.511
		l-1.277,0.623l-0.617,0.265c-1.075,0.417-2.703,1.053-2.96,3.847c-0.229,2.366-1.131,4.09-1.839,4.166
		c-0.727,0.071-1.745-0.512-2.223-1.082c0,0-0.328-0.371-0.472-0.646c-0.711-1.952-1.051-1.948-2.254-0.471
		c-0.366,0.452-1.789-0.007-2.246-0.157c-0.466-0.202-1.101-0.584-0.916-1.35l0,0c0.77-3.942,0.787-4.146-2.135-3.335
		c-0.428,0.078-0.735-0.205-0.995-0.664c-0.234-0.412,0.125-1.541,0.667-3.253l0.044-0.161c0.431-1.365,1.795-2.583,3.118-3.76
		c0.621-0.598,1.464-1.33,2.056-1.906c1.3-1.146,3.159-1.64,5.435-2.348c2.128-0.662,5.25-2.221,6.518-3.486
		c0.913-0.918,4.79-3.748,7.369-4.942c1.172-0.547,1.099-0.959-0.799-0.423c-2.507,0.957-6.834,2.428-8.172,3.77
		c-0.111,0.107-0.261,0.229-0.425,0.36c-2.249-7.674-0.334-10.596,0.954-12.55L366,91.599c0.082-0.002,0.155-0.012,0.231-0.012
		l0.606-0.049c0,0,1.104-0.063,2.091-0.116c-0.032,0.918,0.392,1.511,0.705,1.818c1.253,1.206,3.66,0.951,4.614,0.553
		c0.059-0.025,6.383-2.707,7.607-3.521c0.43-0.282,0.896-0.545,1.297-0.738c0.152,1.404,0.463,3.812,0.863,5.568
		c0.475,2.048,1.43,2.842,2.146,3.142c0.773,0.333,1.663,0.256,2.434-0.205l0.254-0.121c0.882-0.524,2.721-1.191,4.524-4.997
		c0.17-0.354,0.322-0.642,0.447-0.9c0.041,0.1,0.059,0.17,0.108,0.294c0.067,0.147,0.308,0.659,0.354,0.747l0.393,0.803
		c2.55,5.206,7.311,14.907,7.891,25.002l0.431,4.238c0.884,5.64,2.685,7.377,3.955,8.595c0.313,0.31,0.565,0.554,0.721,0.792
		c0.448,0.688,1.458,3.301,1.921,6.531c0,0.043-0.012,0.088-0.012,0.131c0,0.494,0.073,0.993,0.19,1.486
		c0.17,2.238,0.026,4.648-0.759,6.873c-0.523-0.769-0.963-1.446-1.3-1.935c-2.626-4.015-7.973-7.456-1.903,1.204
		C407.706,149.498,411.135,154.757,415.064,157.945z M420.384,114.136c0.237-0.829,0.337-1.375,0.56-2.128
		c0.398-1.395,1.063-2.832,2.978-4.983c0.026-0.025,0.044-0.037,0.073-0.071c0.041,0.178,0.155,0.619,0.155,0.619l0.24,0.817
		c0.387,1.274,0.948,3.004,1.276,3.883c1.194,3.136,0.762,3.53,4.27,2.006l0.922-0.377c0.1-0.065,0.161-0.084,0.229-0.111
		c0.056,0.239,0.1,0.604,0.117,0.751l0.012,0.154c0.082,0.802,1.391,5.943,1.707,7.173c1.127,4.378-0.059,4.029,3.572,2.565
		c2.544-1.023,3.97-0.741,4.09-0.547c0.891,1.474-3.481,8.517-5.464,10.289c-0.872,0.78-2.649,3.672-3.303,5.199l-0.114,0.272
		c-0.67,1.547-1.768,4.135-3.279,5.971c-6.567,7.872-14.068,4.744-17.271,3.412l-0.258-0.105c0.621-1.51,0.958-3.107,1.104-4.695
		c1.572,1.396,3.912,2.348,6.937,2.348c5.947,0,10.386-5.913,10.386-11.201c0-5.32-4.374-8.154-8.427-8.533
		c-2.243-0.209-4.056,0.453-5.127,0.996c-0.012-0.176-0.044-0.57-0.044-1.084c0-1.629,0.302-4.471,2.302-5.277
		c0.293-0.121,0.825-0.333,1.118-0.404c3.399-0.883,3.271-0.912,0.986-2.566c-0.137-0.099-0.23-0.136-0.348-0.224
		c-0.032-0.035-0.062-0.07-0.091-0.104c-0.076-0.088-0.108-0.259-0.108-0.483C419.582,116.766,420.135,114.924,420.384,114.136z
		 M447.046,101.041c-1.771,3.866-2.597,7.097-2.667,9.639c-0.026,1.329,1.159,3.121,2.195,3.518
		c0.199,0.118,0.176,0.313-0.056,0.459c-0.157,0.082-0.787,0.441-0.787,0.441c-0.727,0.444-2.231,0.992-3.244,1.06
		c-0.847,0.082-1.549-0.167-2.196-0.76c-1.83-1.659-2.813-5.577-3.057-9.089c1.569,1.553,2.56,2.039,3.49,1.759
		c1.086-0.325,1.279-1.456,1.426-2.289l0.188-0.794c0.656-1.577,1.719-6.168,2.067-8.938c0.091-0.77,0.272-2.106,0.488-2.548
		c0.041,0.014,0.085,0.025,0.164,0.059l0.132,0.055c0.226,0.099,0.495,0.218,0.812,0.328c0.506,0.988,1.382,3.308,1.382,5.291
		C447.383,99.893,447.283,100.518,447.046,101.041z M450.357,90.081c0.144,0.178,0.305,0.422,0.305,0.643
		c0,0.038-0.006,0.074-0.018,0.114c-0.076,0.268-0.451,0.661-1.317,0.962c-1.455,0.516-2.478,0.063-3.235-0.255l-0.144-0.068
		c-0.12-0.048-0.217-0.083-0.328-0.114c-4.178-1.592-2.632-1.21-3.221,2.724c-0.091,0.515-0.164,1.077-0.243,1.679
		c-0.337,2.725-1.373,7.088-1.903,8.349l-0.325,1.271c-0.015,0.077-0.026,0.165-0.047,0.247c-0.318-0.229-0.816-0.66-1.619-1.508
		l-0.799-0.833c-3.657-3.829-7.083-7.808-7.083-11.498c0-1.41,0.513-2.78,1.684-4.093c0.832-0.63,1.268-1.308,1.268-2.031
		c0-0.054,0-0.104-0.003-0.151c-0.107-1.296-1.417-1.938-2.371-2.406l-0.445-0.229c-0.828-0.46-6.427-2.461-11.152-0.178
		c-3.309,1.605-5.376,4.843-6.169,9.63l-0.012,0.084c-0.448,3.295-1.385,10.071,6.348,16.813c-0.401,0.776-0.683,1.571-0.817,2.421
		c-0.07,0.439-0.271,1.111-0.497,1.827c-0.237,0.794-0.486,1.624-0.662,2.424c-2.272-3.451-5.376-8.717-6.336-10.484
		c-2.764-5.118-3.947-13.448-0.838-19.46c1.534-2.979,3.944-5.18,7.183-6.589c1.783-0.671,4.983-2.072,9.768-0.477
		c1.689,0.688,3.607,1.475,5.188,1.665c1.83,0.221,3.818-0.297,5.572-0.756c1.145-0.303,2.33-0.61,2.957-0.532
		c0.96,0.124,2.708,0.829,4.113,1.397c1.11,0.455,2,0.808,2.574,0.926c0.371,0.077,0.811,0.06,1.317,0.036
		c0.483-0.019,1.596-0.053,1.897,0.142c0,0.006,0.006,0,0.006,0.009c0,0.142-0.067,0.606-0.688,1.62l-0.018,0.027l-0.018,0.029
		c-0.617,1.16-0.925,2.365-0.925,3.485C449.304,88.14,449.658,89.244,450.357,90.081z"/>
</g>
<path fill="#FFFFFF" d="M376.611,37.12c0.89-0.3,3.678-0.247,4.978,0.886c0.475,0.414,1.183,0.773,1.42,0.949
	c0.24,0.177,0.413,0.647-0.527,0.887c-0.954,0.237-1.487,0.413-2.201,0.712c-0.703,0.294-2.012,0.237-2.718-0.235
	c-0.714-0.477-1.955-1.601-1.955-2.192C375.607,37.536,376.315,37.12,376.611,37.12z"/>
<path fill="#FFFFFF" d="M224.933,45.584c0.521,0.219,1.211,0.912,2.821,1.561c1.605,0.647,1.82-0.043,2.294-1.602
	c0.479-1.563-0.474-1.563-1.082-1.563c-0.607,0-2.212,0.094-3.34,0.218C223.287,44.456,224.414,45.366,224.933,45.584z"/>
<g>
	<path fill="#FFFFFF" d="M27.858,324.834h8.259v1.619H12.461v-1.619h8.259v-57.188h-8.259v-1.619H37.57
		c5.506,0,9.981,1.534,13.427,4.605c3.444,3.071,5.167,7.03,5.167,11.87c0,4.787-1.619,8.406-4.856,10.854
		c-3.237,2.448-8.024,3.672-14.36,3.672h-9.089V324.834z M27.858,295.412h8.01c5.257,0,8.64-0.866,10.148-2.595
		c1.508-1.73,2.262-5.65,2.262-11.767c0-5.534-0.804-9.15-2.408-10.854c-1.604-1.701-4.551-2.55-8.84-2.55h-9.172V295.412z"/>
	<path fill="#FFFFFF" d="M99.773,291.675v-24.029h-8.259v-1.619h23.656v1.619h-8.342v57.188h8.342v1.619H91.515v-1.619h8.259v-31.54
		H76.988v31.54h8.259v1.619H61.591v-1.619h8.259v-57.188h-8.259v-1.619h23.656v1.619h-8.259v24.029H99.773z"/>
	<path fill="#FFFFFF" d="M136.992,324.834h8.259v1.619h-23.656v-1.619h8.259v-57.188h-8.259v-1.619h23.656v1.619h-8.259V324.834z"/>
	<path fill="#FFFFFF" d="M175.331,266.027v1.619h-8.259v57.188h7.471c5.616,0,9.981-2.047,13.094-6.14
		c3.113-4.097,5.209-10.544,6.288-19.343h0.954v27.102h-43.204v-1.619h8.259v-57.188h-8.259v-1.619H175.331z"/>
	<path fill="#FFFFFF" d="M217.655,324.834h8.259v1.619h-23.656v-1.619h8.259v-57.188h-8.259v-1.619h23.656v1.619h-8.259V324.834z"/>
	<path fill="#FFFFFF" d="M247.735,324.834h8.26v1.619h-23.658v-1.619h8.259v-57.188h-8.259v-1.619h25.11
		c5.505,0,9.981,1.534,13.425,4.605c3.446,3.071,5.168,7.03,5.168,11.87c0,4.787-1.619,8.406-4.857,10.854
		c-3.235,2.448-8.022,3.672-14.359,3.672h-9.088V324.834z M247.735,295.412h8.008c5.259,0,8.641-0.866,10.148-2.595
		c1.508-1.73,2.263-5.65,2.263-11.767c0-5.534-0.802-9.15-2.406-10.854c-1.607-1.701-4.553-2.55-8.843-2.55h-9.17V295.412z"/>
	<path fill="#FFFFFF" d="M330.098,326.454l-15.398-59.432v48.891c0,3.184,0.492,5.464,1.477,6.849
		c0.98,1.382,2.564,2.073,4.752,2.073h2.696v1.619h-19.382v-1.619h1.453c2.489,0,4.343-0.691,5.562-2.073
		c1.218-1.385,1.826-3.472,1.826-6.269v-43.246c0-2.017-0.512-3.457-1.537-4.315c-1.024-0.858-2.737-1.285-5.146-1.285h-2.157
		v-1.619h16.935l12.241,47.189l12.909-47.189h15.979v1.619h-8.219v57.188h8.219v1.619h-23.201v-1.619h8.26l0.33-57.813
		l-16.227,59.432H330.098z"/>
	<path fill="#FFFFFF" d="M391.556,265.073c2.351,0,4.635,0.567,6.849,1.7c2.213,1.137,4.204,2.753,5.976,4.854
		c2.711,3.268,4.767,7.065,6.163,11.393c1.396,4.331,2.097,9.057,2.097,14.175c0,4.482-0.554,8.57-1.66,12.265
		c-1.106,3.692-2.767,7.033-4.98,10.022c-1.883,2.519-4.096,4.483-6.641,5.895c-2.547,1.411-5.147,2.116-7.803,2.116
		c-2.686,0-5.306-0.705-7.864-2.116c-2.56-1.411-4.782-3.376-6.661-5.895c-2.214-2.989-3.874-6.33-4.98-10.022
		c-1.107-3.694-1.66-7.782-1.66-12.265c0-3.432,0.33-6.729,0.995-9.899c0.665-3.168,1.631-6.119,2.904-8.86
		c2.047-4.289,4.565-7.586,7.555-9.899C384.833,266.226,388.068,265.073,391.556,265.073z M391.556,325.874
		c2.184,0,4.178-0.644,5.976-1.929c1.798-1.288,3.347-3.177,4.649-5.666c0.855-1.634,1.464-3.812,1.824-6.538
		c0.36-2.723,0.542-7.876,0.542-15.459c0-8.383-0.278-14.084-0.832-17.1c-0.553-3.016-1.493-5.449-2.822-7.306
		c-1.188-1.66-2.608-2.951-4.254-3.88c-1.646-0.925-3.341-1.391-5.083-1.391c-1.798,0-3.528,0.466-5.188,1.391
		c-1.66,0.929-3.071,2.22-4.233,3.88c-1.356,1.909-2.302,4.36-2.844,7.347c-0.538,2.989-0.808,8.676-0.808,17.059v1.949
		c0,6.532,0.179,11.098,0.538,13.697c0.36,2.6,0.97,4.717,1.827,6.351c1.301,2.489,2.855,4.378,4.667,5.666
		C387.327,325.23,389.342,325.874,391.556,325.874z"/>
	<path fill="#FFFFFF" d="M420.1,326.454v-1.619h8.26v-57.188h-8.26v-1.619h27.228c5.063,0,8.978,1.259,11.744,3.776
		c2.767,2.519,4.148,6.073,4.148,10.667c0,4.453-1.396,8.022-4.189,10.708c-2.796,2.682-6.723,4.245-11.788,4.688
		c3.903,0.252,6.945,1.13,9.132,2.638c2.185,1.508,3.666,3.742,4.439,6.702c0.278,0.969,0.477,2.021,0.603,3.153
		c0.123,1.136,0.188,2.548,0.188,4.233V315c0,1.493,0.032,2.579,0.103,3.259c0.07,0.677,0.173,1.279,0.311,1.804
		c0.501,2.021,1.191,3.452,2.076,4.296c0.884,0.846,2.117,1.268,3.695,1.268c0.523,0,1.098-0.064,1.722-0.188
		c0.623-0.126,1.238-0.296,1.847-0.519v1.534c-0.72,0.334-1.496,0.589-2.324,0.768c-0.832,0.182-1.716,0.271-2.656,0.271
		c-4.564,0-7.762-1.259-9.589-3.776c-1.824-2.519-2.737-7.25-2.737-14.194c0-5.23-0.7-8.688-2.097-10.377
		c-1.396-1.687-3.879-2.53-7.448-2.53h-9.007v28.22h8.26v1.619H420.1z M444.505,267.646h-9.007v27.432h7.844
		c4.813,0,8.023-0.969,9.628-2.904s2.406-5.782,2.406-11.539c0-4.951-0.781-8.354-2.342-10.21
		C451.47,268.571,448.627,267.646,444.505,267.646z"/>
	<path fill="#FFFFFF" d="M474.417,326.454v-1.619h8.26v-57.188h-8.26v-1.619h27.227c5.063,0,8.978,1.259,11.747,3.776
		c2.764,2.519,4.148,6.073,4.148,10.667c0,4.453-1.396,8.022-4.192,10.708c-2.793,2.682-6.723,4.245-11.785,4.688
		c3.9,0.252,6.945,1.13,9.13,2.638c2.187,1.508,3.665,3.742,4.441,6.702c0.275,0.969,0.478,2.021,0.6,3.153
		c0.126,1.136,0.188,2.548,0.188,4.233V315c0,1.493,0.035,2.579,0.105,3.259c0.067,0.677,0.173,1.279,0.311,1.804
		c0.498,2.021,1.188,3.452,2.076,4.296c0.884,0.846,2.117,1.268,3.692,1.268c0.526,0,1.101-0.064,1.722-0.188
		c0.623-0.126,1.238-0.296,1.847-0.519v1.534c-0.72,0.334-1.493,0.589-2.324,0.768c-0.829,0.182-1.716,0.271-2.656,0.271
		c-4.564,0-7.759-1.259-9.586-3.776c-1.827-2.519-2.74-7.25-2.74-14.194c0-5.23-0.697-8.688-2.094-10.377
		c-1.399-1.687-3.882-2.53-7.451-2.53h-9.007v28.22h8.26v1.619H474.417z M498.821,267.646h-9.007v27.432h7.844
		c4.816,0,8.026-0.969,9.631-2.904s2.406-5.782,2.406-11.539c0-4.951-0.781-8.354-2.345-10.21
		C505.786,268.571,502.943,267.646,498.821,267.646z"/>
	<path fill="#FFFFFF" d="M544.134,324.834h8.26v1.619h-23.657v-1.619h8.26v-57.188h-8.26v-1.619h23.657v1.619h-8.26V324.834z"/>
	<path fill="#FFFFFF" d="M560.267,326.87v-25.73h1.286c1.106,7.858,3.344,13.942,6.705,18.262c3.361,4.315,7.53,6.473,12.511,6.473
		c3.35,0,6.137-1.121,8.365-3.361c2.226-2.242,3.341-5.064,3.341-8.467c0-2.794-0.817-5.265-2.451-7.408
		c-1.631-2.143-4.635-4.518-9.006-7.117c-1.355-0.832-3.332-1.924-5.936-3.279c-4.591-2.434-7.718-4.428-9.378-5.977
		c-1.244-1.244-2.22-2.711-2.925-4.4c-0.706-1.687-1.06-3.458-1.06-5.312c0-4.538,1.329-8.251,3.984-11.144
		c2.655-2.891,6.058-4.336,10.21-4.336c2.711,0,5.159,0.635,7.346,1.908c2.185,1.273,4.331,3.306,6.434,6.102l4.69-8.01h0.497
		v23.197h-1.288c-1.326-6.971-3.493-12.312-6.494-16.019s-6.646-5.56-10.936-5.56c-3.265,0-5.977,0.934-8.134,2.799
		c-2.158,1.867-3.238,4.198-3.238,6.994c0,3.596,4.33,7.733,12.991,12.409c1.687,0.913,2.986,1.619,3.899,2.117
		c5.563,3.071,9.464,6.037,11.703,8.9c2.243,2.866,3.364,6.192,3.364,9.984c0,5.063-1.552,9.261-4.649,12.597
		c-3.098,3.332-6.96,5-11.58,5c-2.822,0-5.479-0.755-7.967-2.263c-2.492-1.508-4.772-3.728-6.849-6.661l-4.482,8.301H560.267z"/>
</g>
</svg>
