<?xml version="1.0" encoding="utf-8"?>
<!-- Generator: Adobe Illustrator 16.0.0, SVG Export Plug-In . SVG Version: 6.00 Build 0)  -->
<!DOCTYPE svg PUBLIC "-//W3C//DTD SVG 1.1//EN" "http://www.w3.org/Graphics/SVG/1.1/DTD/svg11.dtd">
<svg version="1.1" id="Layer_1" xmlns="http://www.w3.org/2000/svg" xmlns:xlink="http://www.w3.org/1999/xlink" x="0px" y="0px"
	 width="125px" height="46px" viewBox="187.5 69.5 125 46" enable-background="new 187.5 69.5 125 46" xml:space="preserve">
<path fill="#FFFFFF" d="M310.414,105.668l-10.561-13.703l10.023-12.501c1.39-1.737,2.085-3.031,2.085-3.878
	c0-1.871-0.538-3.341-1.614-4.412c-0.898-0.893-1.885-1.339-2.96-1.339c-1.614,0-2.87,0.334-3.768,0.999
	c-0.314,0.223-1.009,1.022-2.085,2.399l-8.072,10.194l-7.804-10.261c-1.032-1.376-1.839-2.242-2.422-2.598
	c-0.763-0.489-1.907-0.733-3.431-0.733c-0.764,0-1.559,0.301-2.389,0.903s-1.424,1.326-1.783,2.173
	c-0.128,0.306-0.218,0.731-0.272,1.268c-0.612-0.688-1.412-1.355-2.398-2c-2.871-1.785-6.324-2.678-10.36-2.678
	c-4.574,0-8.297,1.239-11.167,3.716c-0.374,0.322-0.722,0.658-1.046,1.006c-4.392-3.148-9.198-4.723-14.418-4.723
	c-6.055,0-11.325,2.254-15.809,6.763c-0.71,0.713-1.357,1.452-1.955,2.209c0.021-0.237,0.035-0.48,0.035-0.735
	c0-2.009-1.301-3.86-3.902-5.558c-2.871-1.785-6.324-2.678-10.36-2.678c-4.574,0-8.298,1.239-11.167,3.716
	c-2.871,2.477-4.305,5.703-4.305,9.675c0,3.348,1.053,5.959,3.162,7.834c1.749,1.518,4.642,2.879,8.678,4.084
	c4.037,1.205,6.346,1.965,6.929,2.275c1.838,0.85,2.758,2.076,2.758,3.684c0,1.474-0.504,2.678-1.514,3.615
	s-2.321,1.406-3.936,1.406c-2.018,0-4.329-1.139-6.929-3.415c-1.974-1.739-3.767-2.61-5.382-2.61c-1.345,0-2.479,0.491-3.397,1.473
	c-0.919,0.982-1.379,2.143-1.379,3.481c0,2.724,1.55,5.155,4.651,7.298c3.326,2.322,7.438,3.482,12.335,3.482
	c4.629,0,8.438-1.373,11.426-4.118c1.316-1.21,2.342-2.556,3.079-4.038c0.414,0.473,0.845,0.939,1.306,1.393
	c4.574,4.51,10.09,6.763,16.548,6.763c4.44,0,8.655-1.272,12.647-3.817c0.15-0.096,0.293-0.191,0.438-0.287
	c0.268,0.209,0.546,0.418,0.842,0.623c3.326,2.321,7.438,3.482,12.336,3.482c4.629,0,8.438-1.373,11.426-4.119
	c0.089-0.082,0.173-0.166,0.259-0.249c0.233,1.106,0.711,2.03,1.446,2.761c0.897,0.936,1.885,1.404,2.961,1.404
	c1.435,0,2.578-0.268,3.43-0.803c0.629-0.402,1.436-1.295,2.423-2.68l8.408-11.381l8.679,11.449
	c1.031,1.385,1.838,2.254,2.422,2.611c0.807,0.535,1.95,0.803,3.431,0.803c1.076,0,2.063-0.446,2.96-1.339
	c1.031-1.069,1.547-2.54,1.547-4.411C312.5,108.744,311.805,107.451,310.414,105.668z M204.133,86.441
	c-3.644-0.893-5.466-2.344-5.466-4.353c0-1.071,0.493-2.009,1.48-2.812c0.986-0.803,2.22-1.206,3.7-1.206
	c1.569,0,3.273,0.715,5.112,2.143c0.762,0.626,1.547,1.229,2.354,1.808c0.807,0.581,1.591,0.871,2.354,0.871
	c0.74,0,1.409-0.15,2.011-0.438c-1.118,2.266-1.816,4.695-2.097,7.286C211.246,88.509,208.098,87.409,204.133,86.441z
	 M267.145,104.385c-1.009,0.938-2.32,1.406-3.936,1.406c-2.018,0-4.328-1.139-6.928-3.415c-0.981-0.864-1.918-1.515-2.811-1.949
	c-0.946-0.752-2.088-1.132-3.428-1.132c-1.208,0-2.417,0.537-3.625,1.607c-1.611,1.43-2.797,2.367-3.558,2.813
	c-1.835,1.07-3.826,1.607-5.975,1.607c-3.715,0-6.825-1.25-9.331-3.75s-3.758-5.557-3.758-9.173c0-3.437,1.241-6.417,3.725-8.938
	c2.484-2.521,5.449-3.783,8.895-3.783c3.311,0,6.534,1.406,9.666,4.218c0.388,0.344,0.778,0.626,1.171,0.86
	c0.33,2.468,1.342,4.458,3.042,5.97c1.75,1.518,4.642,2.879,8.678,4.084s6.346,1.965,6.929,2.275
	c1.838,0.85,2.758,2.076,2.758,3.684C268.658,102.242,268.154,103.447,267.145,104.385z M278.943,102.597
	c0.05-0.509,0.075-1.028,0.075-1.56c0-4.15-1.419-7.365-4.251-9.642c-2.34-1.918-6.345-3.571-12.012-4.955
	c-3.645-0.893-5.467-2.344-5.467-4.352c0-1.072,0.494-2.009,1.48-2.813s2.22-1.206,3.7-1.206c1.569,0,3.272,0.715,5.112,2.143
	c0.763,0.625,1.547,1.228,2.354,1.808c0.808,0.581,1.591,0.871,2.354,0.871c1.301,0,2.389-0.446,3.263-1.339
	c0.697-0.71,1.112-1.667,1.253-2.861c0.178,0.246,0.369,0.502,0.578,0.77l9.688,12.503L278.943,102.597z"/>
</svg>
