<?xml version="1.0" encoding="utf-8"?>
<!-- Generator: Adobe Illustrator 16.0.0, SVG Export Plug-In . SVG Version: 6.00 Build 0)  -->
<!DOCTYPE svg PUBLIC "-//W3C//DTD SVG 1.1//EN" "http://www.w3.org/Graphics/SVG/1.1/DTD/svg11.dtd">
<svg version="1.1" id="Layer_1" xmlns="http://www.w3.org/2000/svg" xmlns:xlink="http://www.w3.org/1999/xlink" x="0px" y="0px"
	 width="125px" height="46px" viewBox="0 0 125 46" enable-background="new 0 0 125 46" xml:space="preserve">
<path fill="#FF4000" d="M122.915,36.168l-10.561-13.703l10.022-12.501c1.39-1.737,2.085-3.03,2.085-3.878
	c0-1.871-0.538-3.341-1.614-4.412c-0.897-0.893-1.885-1.339-2.96-1.339c-1.613,0-2.869,0.334-3.768,0.999
	c-0.314,0.223-1.01,1.021-2.085,2.398l-8.072,10.194L98.159,3.666c-1.032-1.376-1.84-2.242-2.422-2.598
	c-0.764-0.489-1.907-0.733-3.432-0.733c-0.764,0-1.559,0.301-2.389,0.903c-0.83,0.602-1.424,1.326-1.783,2.173
	c-0.128,0.306-0.218,0.731-0.271,1.269c-0.612-0.688-1.412-1.355-2.398-2c-2.871-1.785-6.324-2.679-10.359-2.679
	c-4.574,0-8.297,1.239-11.168,3.716c-0.373,0.322-0.722,0.658-1.045,1.006C58.499,1.575,53.692,0,48.474,0
	c-6.056,0-11.326,2.254-15.81,6.764c-0.71,0.713-1.356,1.451-1.955,2.209c0.021-0.238,0.035-0.48,0.035-0.736
	c0-2.008-1.302-3.859-3.902-5.557c-2.87-1.785-6.323-2.679-10.36-2.679c-4.573,0-8.297,1.239-11.166,3.716
	C2.444,6.193,1.01,9.42,1.01,13.393c0,3.348,1.054,5.959,3.162,7.834c1.749,1.518,4.642,2.879,8.679,4.084s6.346,1.965,6.928,2.274
	c1.839,0.851,2.759,2.076,2.759,3.685c0,1.474-0.504,2.678-1.515,3.614c-1.01,0.937-2.32,1.406-3.936,1.406
	c-2.018,0-4.329-1.14-6.929-3.415c-1.974-1.739-3.767-2.609-5.382-2.609c-1.346,0-2.479,0.49-3.397,1.473
	C0.46,32.72,0,33.881,0,35.219c0,2.725,1.55,5.155,4.651,7.299c3.326,2.321,7.438,3.481,12.334,3.481
	c4.63,0,8.438-1.373,11.427-4.118c1.315-1.21,2.342-2.556,3.079-4.038c0.414,0.474,0.845,0.939,1.306,1.394
	c4.574,4.51,10.09,6.763,16.548,6.763c4.44,0,8.655-1.272,12.647-3.817c0.149-0.096,0.293-0.19,0.438-0.287
	c0.268,0.209,0.545,0.418,0.842,0.623C66.599,44.839,70.71,46,75.608,46c4.629,0,8.438-1.373,11.426-4.119
	c0.089-0.082,0.173-0.166,0.259-0.249c0.233,1.106,0.711,2.03,1.446,2.761c0.896,0.937,1.885,1.404,2.961,1.404
	c1.435,0,2.578-0.268,3.43-0.803c0.629-0.402,1.436-1.295,2.424-2.68l8.407-11.381l8.679,11.448
	c1.031,1.386,1.838,2.254,2.422,2.611c0.808,0.534,1.95,0.803,3.432,0.803c1.076,0,2.063-0.446,2.96-1.339
	c1.031-1.068,1.547-2.54,1.547-4.411C125.001,39.244,124.306,37.951,122.915,36.168z M16.634,16.941
	c-3.644-0.894-5.466-2.344-5.466-4.354c0-1.07,0.493-2.009,1.479-2.813c0.986-0.803,2.221-1.205,3.701-1.205
	c1.568,0,3.272,0.715,5.111,2.143c0.762,0.626,1.547,1.229,2.354,1.809c0.808,0.58,1.592,0.871,2.354,0.871
	c0.74,0,1.409-0.15,2.011-0.438c-1.117,2.266-1.816,4.694-2.097,7.286C23.747,19.009,20.599,17.909,16.634,16.941z M79.646,34.885
	c-1.009,0.938-2.319,1.406-3.936,1.406c-2.018,0-4.328-1.139-6.928-3.415c-0.981-0.864-1.918-1.515-2.812-1.949
	c-0.946-0.752-2.088-1.132-3.428-1.132c-1.208,0-2.417,0.537-3.625,1.607c-1.61,1.43-2.797,2.367-3.558,2.813
	c-1.836,1.07-3.826,1.607-5.976,1.607c-3.715,0-6.825-1.25-9.331-3.75s-3.758-5.557-3.758-9.174c0-3.437,1.241-6.416,3.725-8.938
	c2.484-2.521,5.449-3.783,8.896-3.783c3.312,0,6.534,1.406,9.666,4.219c0.388,0.344,0.778,0.625,1.171,0.859
	c0.33,2.469,1.342,4.458,3.042,5.971c1.75,1.518,4.642,2.879,8.679,4.084c4.035,1.205,6.346,1.965,6.928,2.274
	c1.839,0.851,2.759,2.076,2.759,3.685C81.159,32.742,80.655,33.947,79.646,34.885z M91.444,33.098
	c0.05-0.51,0.074-1.029,0.074-1.561c0-4.15-1.418-7.365-4.25-9.643c-2.341-1.918-6.346-3.57-12.013-4.955
	c-3.646-0.893-5.467-2.344-5.467-4.352c0-1.072,0.494-2.009,1.479-2.813c0.986-0.805,2.221-1.207,3.7-1.207
	c1.569,0,3.272,0.716,5.112,2.144c0.763,0.625,1.547,1.228,2.354,1.808c0.809,0.582,1.592,0.871,2.354,0.871
	c1.301,0,2.39-0.445,3.263-1.339c0.697-0.71,1.112-1.667,1.254-2.86c0.178,0.246,0.368,0.502,0.577,0.77l9.688,12.503L91.444,33.098
	z"/>
</svg>
