<?xml version="1.0" encoding="utf-8"?>
<!-- Generator: Adobe Illustrator 16.0.0, SVG Export Plug-In . SVG Version: 6.00 Build 0)  -->
<!DOCTYPE svg PUBLIC "-//W3C//DTD SVG 1.1//EN" "http://www.w3.org/Graphics/SVG/1.1/DTD/svg11.dtd">
<svg version="1.1" id="Layer_1" xmlns="http://www.w3.org/2000/svg" xmlns:xlink="http://www.w3.org/1999/xlink" x="0px" y="0px"
	 width="157.3px" height="145.3px" viewBox="0 0 157.3 145.3" style="enable-background:new 0 0 157.3 145.3;" xml:space="preserve"
	>
<style type="text/css">
<![CDATA[
	.st0{fill-rule:evenodd;clip-rule:evenodd;fill:#4D4D4D;}
	.st1{fill-rule:evenodd;clip-rule:evenodd;fill:#666666;}
	.st2{fill-rule:evenodd;clip-rule:evenodd;fill:#CCCCCC;}
	.st3{fill-rule:evenodd;clip-rule:evenodd;fill:#36352C;}
]]>
</style>
<g>
	<path class="st1" d="M3.5,105.3c1.9-1.7,3.8-3.4,5.7-5.1c9.8-8.7,19.6-17.4,29.4-26.1c12-10.6,24-21.3,35.9-31.9
		c8.5-7.5,16.9-15,25.4-22.6c0.3-0.3,0.6-0.4,1-0.3c9.1,2.2,17.8,5.3,26.1,9.7c5.4,2.9,10.4,6.3,14.8,10.5c3.9,3.8,7.1,8.2,9.1,13.3
		c1.5,3.6,2.3,7.4,2.1,11.3c-0.1,3.2-0.9,6.4-2.1,9.4c-1.5,3.9-3.7,7.4-6.3,10.7c-2.8,3.4-6,6.4-9.5,9.1c-5,3.8-10.4,6.9-16.1,9.6
		c-8.2,3.8-16.7,6.6-25.5,8.7c-5.8,1.4-11.6,2.3-17.5,3c-4.5,0.5-9,0.8-13.5,1c-5.4,0.2-10.8,0-16.2-0.3c-4.4-0.3-8.8-0.8-13.1-1.5
		c-5.3-0.8-10.6-2-15.8-3.5C12.8,109,8.2,107.3,3.5,105.3z"/>
	<path class="st2" d="M112.9,4.2c-0.9,0.8-1.7,1.5-2.5,2.3c-10,8.9-20,17.8-30,26.6c-2,1.8-4,3.5-5.9,5.2c-4,3.5-7.9,7.1-11.9,10.6
		c-1.8,1.6-3.6,3.1-5.4,4.7c-4.7,4.2-9.4,8.4-14.1,12.6c-0.3,0.3-0.5,0.3-0.9,0.2c-6.3-2.3-12.3-5.2-17.8-8.9
		c-3.7-2.5-7-5.4-9.6-9.1c-2.2-3-3.7-6.4-4.2-10.1c-0.3-2.5,0.1-4.9,0.9-7.2c1.6-4.5,4.4-8.1,8-11.1c4.1-3.5,8.7-6.1,13.5-8.3
		c6.5-3,13.4-5.1,20.4-6.6c6.3-1.4,12.6-2.3,19-2.8c4.9-0.4,9.7-0.6,14.6-0.5c7.3,0.1,14.6,0.7,21.8,1.8
		C110.1,3.7,111.4,4,112.9,4.2z"/>
	<path class="st0" d="M146.6,87c-0.4,0.8-0.8,1.6-1.1,2.3c-3.2,7-7.4,13.5-12.3,19.4c-4.7,5.8-10.1,10.8-16.1,15.3
		c-3.4,2.5-6.9,4.7-10.5,6.8c-4.4,2.5-9,4.6-13.8,6.3c-4.4,1.6-8.9,2.8-13.4,3.7c-4.6,0.9-9.2,1.5-13.9,1.8c-3.8,0.2-7.7,0-11.5-0.3
		c-7.3-0.6-14.5-2.1-21.5-4.3c-5.2-1.7-10.4-3.7-15.1-6.6c-2.5-1.5-4.5-3.5-6.3-5.8c-2.4-3.1-4.3-6.5-5.8-10.2
		c-0.9-2.1-1.6-4.3-2.2-6.5c0-0.1-0.1-0.2,0-0.4c1.3,0.5,2.6,1,3.8,1.5c6.5,2.5,13.2,4.3,20,5.6c5.8,1.2,11.6,1.9,17.5,2.4
		c3.2,0.3,6.4,0.4,9.6,0.4c5,0.1,10.1,0,15.1-0.3c2.2-0.1,4.3-0.4,6.5-0.6c3-0.2,5.9-0.7,8.9-1.2c4.1-0.6,8.2-1.5,12.3-2.5
		c7.6-1.9,15-4.3,22.1-7.5c7.3-3.3,14.1-7.3,20.3-12.5c2.4-2.1,4.7-4.3,6.8-6.7c0.1-0.1,0.2-0.3,0.3-0.4
		C146.5,86.9,146.5,86.9,146.6,87z"/>
	<path class="st1" d="M14.3,52.6c7.1,7.8,16,12.5,25.7,16.3c0,0.3-0.3,0.4-0.5,0.6c-3.3,2.9-6.6,5.8-9.8,8.7c-0.3,0.3-0.5,0.3-0.7,0
		C22.5,70.6,17.6,62.3,14.3,53C14.2,52.9,14.2,52.8,14.3,52.6z"/>
	<path class="st0" d="M114.3,7c-0.2,1.7-0.4,3.2-0.6,4.6c-0.4,2.4-0.8,4.9-1.2,7.3c-0.1,0.5-0.2,0.6-0.7,0.4
		c-2.7-0.9-5.4-1.7-8.1-2.3c-0.1,0-0.2-0.1-0.5-0.2C106.9,13.6,110.5,10.3,114.3,7z"/>
	<path class="st3" d="M146.6,86.7C146.7,86.7,146.7,86.8,146.6,86.7c0,0.1,0,0.1,0,0.1C146.6,86.8,146.6,86.8,146.6,86.7
		C146.6,86.7,146.6,86.7,146.6,86.7z"/>
</g>
</svg>
