<?xml version="1.0" encoding="utf-8"?>
<!-- Generator: Adobe Illustrator 16.0.0, SVG Export Plug-In . SVG Version: 6.00 Build 0)  -->
<!DOCTYPE svg PUBLIC "-//W3C//DTD SVG 1.1//EN" "http://www.w3.org/Graphics/SVG/1.1/DTD/svg11.dtd">
<svg version="1.1" id="Layer_1" xmlns="http://www.w3.org/2000/svg" xmlns:xlink="http://www.w3.org/1999/xlink" x="0px" y="0px"
	 width="216.333px" height="211.334px" viewBox="0 0 216.333 211.334" enable-background="new 0 0 216.333 211.334"
	 xml:space="preserve">
<g>
	<path fill-rule="evenodd" clip-rule="evenodd" fill="#FFFFFF" d="M107.842,205.719c-53.26,1.041-98.467-44.173-98.392-98.383
		C9.523,55.324,50.938,8.362,108.784,8.619c57.635,0.257,98.748,47.381,98.391,99.655
		C206.813,161.436,162.091,207.187,107.842,205.719z M158.108,104.914c-2.249,10.748-4.377,21.342-6.726,31.888
		c-0.705,3.161,0.387,4.438,3.376,4.484c3.665,0.058,7.339-0.111,10.994,0.088c3.502,0.19,5.2-1.455,5.886-4.692
		c4.232-20.006,8.482-40.009,12.771-60.002c0.588-2.742-0.206-3.922-3.142-4.198c-15.291-1.432-17.065-0.71-26.571,11.343
		c-2.886,3.661-5.864,7.251-8.866,10.818c-0.669,0.796-1.61,1.361-2.663,2.227c-1.566-3.835-2.914-7.229-4.332-10.592
		c-7.177-17.027-2.313-13.135-20.354-13.871c-4.893-0.199-6.71,1.656-7.612,6.195c-3.209,16.141-6.776,32.209-10.129,48.322
		c-3.443,16.549-5.328,14.115,11.702,14.465c3.99,0.082,5.608-1.7,6.347-5.379c2.018-10.061,4.266-20.073,6.609-30.967
		c3.814,8.368,7.266,15.938,11.186,24.535C144.348,120.683,151.201,112.829,158.108,104.914z M49.823,72.508
		c-1.167,0-2.36,0.165-3.494-0.028c-5.33-0.908-7.329,1.757-8.224,6.667c-2.057,11.282-4.608,22.474-6.776,33.737
		c-2.061,10.7,2.963,20.862,12.58,25.976c17.128,9.107,41.89,0.628,48.433-17.987c4.819-13.709,7.119-28.313,10.385-42.554
		c1.288-5.616,1.006-5.769-5.005-5.807c-2.666-0.017-5.377,0.312-7.988-0.069c-5.26-0.768-7.032,1.961-7.86,6.553
		c-1.507,8.345-3.129,16.681-5.098,24.926c-1.185,4.96-2.555,10.03-4.861,14.528c-2.553,4.979-10.334,6.815-15.542,4.598
		c-3.865-1.646-5.219-5.87-3.953-12.16c1.87-9.285,3.673-18.583,5.569-27.862C60.33,71.563,61.82,72.56,49.823,72.508z"/>
</g>
</svg>
