<?xml version="1.0" encoding="utf-8"?>
<!-- Generator: Adobe Illustrator 16.0.0, SVG Export Plug-In . SVG Version: 6.00 Build 0)  -->
<!DOCTYPE svg PUBLIC "-//W3C//DTD SVG 1.1//EN" "http://www.w3.org/Graphics/SVG/1.1/DTD/svg11.dtd">
<svg version="1.1" id="Layer_1" xmlns="http://www.w3.org/2000/svg" xmlns:xlink="http://www.w3.org/1999/xlink" x="0px" y="0px"
	 width="300px" height="65.333px" viewBox="0 0 300 65.333" enable-background="new 0 0 300 65.333" xml:space="preserve">
<g>
	<path fill-rule="evenodd" clip-rule="evenodd" fill="#FFFFFF" d="M27.987,62.047c-3.716-5.78-7.172-11.141-10.612-16.513
		C13.51,39.497,9.837,33.327,5.735,27.457c-2.336-3.342-2.167-8.59,1.766-11.008c3.625-2.228,7.631-0.999,10.392,3.272
		c3.012,4.66,5.99,9.343,8.989,14.011c0.313,0.486,0.671,0.941,1.179,1.649c3.093-4.838,6.062-9.48,9.028-14.124
		c0.46-0.719,0.885-1.461,1.368-2.164c3.453-5.017,9.315-4.989,12.618,0.106c3.018,4.655,5.95,9.365,8.924,14.048
		c0.408,0.642,0.837,1.271,1.461,2.214c2.895-4.506,5.672-8.824,8.442-13.145c0.737-1.149,1.422-2.332,2.188-3.462
		c2.444-3.609,6.556-4.526,10.053-2.268c3.377,2.18,4.277,6.445,1.963,10.138c-3.762,6.003-7.641,11.933-11.465,17.898
		c-3.637,5.671-7.269,11.345-11.163,17.425c-5.683-8.684-11.169-17.068-16.776-25.637C39.152,44.921,33.716,53.258,27.987,62.047z"
		/>
	<path fill-rule="evenodd" clip-rule="evenodd" fill="#FFFFFF" d="M243.383,43.163c-11.197,0-22.26,0-33.378,0
		c1.986,7.638,10.54,10.287,17.131,5.637c1.207-0.853,2.862-1.377,4.347-1.471c3.399-0.214,6.819-0.068,10.239-0.068
		c-0.455,8.076-13.274,16.234-23.827,15.331c-13.138-1.124-23.237-13.234-21.957-25.842c1.425-14.031,14.072-23.463,26.731-21.704
		C236.895,17.022,245.899,29.31,243.383,43.163z M229.379,32.739c-1.415-4.143-5.079-6.37-9.927-6.205
		c-4.606,0.157-7.932,2.435-8.941,6.205C216.746,32.739,222.955,32.739,229.379,32.739z"/>
	<path fill-rule="evenodd" clip-rule="evenodd" fill="#FFFFFF" d="M84.811,38.648c0.029-13.163,11.145-23.882,24.702-23.821
		c13.472,0.061,24.677,11.026,24.57,24.046c-0.108,13.149-11.253,23.831-24.803,23.77C95.641,62.58,84.782,51.933,84.811,38.648z
		 M109.3,27.23c-5.998,0.025-10.673,5.185-10.604,11.703c0.067,6.408,4.718,11.348,10.689,11.354
		c5.976,0.007,10.875-5.213,10.864-11.573C120.237,32.384,115.299,27.205,109.3,27.23z"/>
	<path fill-rule="evenodd" clip-rule="evenodd" fill="#FFFFFF" d="M294.365,62.524c-4.784,0-9.295,0-14.274,0
		c0-1.135,0.004-2.204,0-3.271c-0.027-6.841,0.128-14.688-0.137-21.519c-0.244-6.275-5.261-10.125-11.142-8.965
		c-4.237,0.835-7.206,4.911-7.26,10.21c-0.066,6.498-0.015,13.997-0.014,20.497c0,0.924,0,1.849,0,2.964c-4.859,0-9.499,0-14.446,0
		c0-3.229-0.049-7.368,0.011-10.506c0.112-5.804-0.219-11.673,0.544-17.394c1.576-11.814,11.871-19.975,24.038-19.7
		c11.604,0.262,21.695,9.16,22.559,20.828C294.871,44.154,294.365,53.723,294.365,62.524z"/>
	<path fill-rule="evenodd" clip-rule="evenodd" fill="#FFFFFF" d="M182.48,15.829c2.334,0,4.37-0.046,6.401,0.01
		c3.524,0.098,6.282,2.704,6.452,6.023c0.179,3.459-2.37,6.329-6.068,6.61c-2.117,0.161-4.258,0.029-6.808,0.029
		c0,2.267,0,4.28,0,6.293c-0.001,3.248-0.018,6.497,0.003,9.745c0.02,3.43,1.016,4.474,4.379,4.533
		c2.549,0.045,5.098,0.009,7.851,0.009c0,4.222,0,8.186,0,12.529c-5.655-0.313-11.395,1.066-16.851-1.437
		c-5.43-2.49-8.686-6.734-8.779-12.743c-0.193-12.563-0.133-25.129-0.071-37.694c0.02-3.916,2.908-6.691,6.6-6.735
		c3.779-0.045,6.698,2.798,6.877,6.791C182.55,11.665,182.48,13.545,182.48,15.829z"/>
	<path fill-rule="evenodd" clip-rule="evenodd" fill="#FFFFFF" d="M164.703,15.825c0,4.287,0,8.263,0,12.597
		c-2.775,0-5.402-0.03-8.028,0.008c-3.447,0.049-4.429,1.041-4.434,4.457c-0.011,8.552-0.004,17.102-0.004,25.654
		c0,0.92,0,2.84,0,3.924c-4.891,0-9.533,0-14.333,0c-0.048-0.966-0.126-2.8-0.126-3.633c-0.009-8.552-0.039-17.103,0.004-25.654
		c0.049-9.925,7.46-17.3,17.368-17.351C158.224,15.812,161.295,15.825,164.703,15.825z"/>
</g>
</svg>
